<?xml version="1.0" encoding="utf-8"?>
<!-- Generator: Adobe Illustrator 26.3.1, SVG Export Plug-In . SVG Version: 6.00 Build 0)  -->
<svg version="1.1" id="레이어_1" xmlns="http://www.w3.org/2000/svg" xmlns:xlink="http://www.w3.org/1999/xlink" x="0px"
	 y="0px" viewBox="0 0 3072 1920" style="enable-background:new 0 0 3072 1920;" xml:space="preserve">
<style type="text/css">
	.st0{fill:#343C37;}
	.st1{fill:#FFFFFF;}
	.st2{clip-path:url(#SVGID_00000139283954485050567280000017968455694670305712_);fill:#FFFFFF;}
	.st3{clip-path:url(#SVGID_00000160874242805058099040000014955537440546021300_);fill:#FFFFFF;}
	.st4{clip-path:url(#SVGID_00000175294330884561800400000005786489725677736865_);fill:#FFFFFF;}
	.st5{clip-path:url(#SVGID_00000039095717026039892840000012191193145036825217_);fill:#FFFFFF;}
	.st6{clip-path:url(#SVGID_00000073716337190647234580000006520487197744584324_);fill:#FFFFFF;}
	.st7{clip-path:url(#SVGID_00000140694479086093027880000010763264967329273262_);fill:#FFFFFF;}
	.st8{clip-path:url(#SVGID_00000016063307631248628910000011819158139136722610_);fill:#FFFFFF;}
	.st9{clip-path:url(#SVGID_00000096778106896057770290000010092237104589410750_);fill:#FFFFFF;}
	.st10{clip-path:url(#SVGID_00000093138114057033515090000009782679366023602611_);fill:#FFFFFF;}
	.st11{clip-path:url(#SVGID_00000178920098574259199860000014775013843731059882_);fill:#FFFFFF;}
	.st12{clip-path:url(#SVGID_00000173154409196451441000000008874440997163121035_);fill:#FFFFFF;}
	.st13{clip-path:url(#SVGID_00000107584881504857560760000005860656513873734294_);fill:#FFFFFF;}
	.st14{clip-path:url(#SVGID_00000097477284851110616600000001220876545467641772_);fill:#FFFFFF;}
	.st15{clip-path:url(#SVGID_00000161593748835219868770000018087977671166446492_);fill:#FFFFFF;}
	.st16{fill:none;stroke:#FFFFFF;stroke-width:0.5;stroke-miterlimit:10;}
	.st17{clip-path:url(#SVGID_00000007405217729617483670000009718721620360487601_);fill:#FFFFFF;}
	
		.st18{clip-path:url(#SVGID_00000116206001918667425170000017654309368601472141_);fill:none;stroke:#FFFFFF;stroke-width:0.5;stroke-miterlimit:10;}
	.st19{clip-path:url(#SVGID_00000155851159062180331700000018364700570994590380_);fill:#FFFFFF;}
	
		.st20{clip-path:url(#SVGID_00000160180058959532791960000005923078213186565291_);fill:none;stroke:#FFFFFF;stroke-width:0.5;stroke-miterlimit:10;}
	.st21{clip-path:url(#SVGID_00000130630647354084469170000002408744949622101403_);fill:#FFFFFF;}
	
		.st22{clip-path:url(#SVGID_00000082360830514542754220000014836586553343560879_);fill:none;stroke:#FFFFFF;stroke-width:0.5;stroke-miterlimit:10;}
	.st23{clip-path:url(#SVGID_00000111889999916695099490000000520282735286474663_);fill:#FFFFFF;}
	
		.st24{clip-path:url(#SVGID_00000034788173290034043350000004887828236365461423_);fill:none;stroke:#FFFFFF;stroke-width:0.5;stroke-miterlimit:10;}
	.st25{clip-path:url(#SVGID_00000062870832524533073200000011222219050835891343_);fill:#FFFFFF;}
	
		.st26{clip-path:url(#SVGID_00000133503366143467633330000003026990296313662110_);fill:none;stroke:#FFFFFF;stroke-width:0.5;stroke-miterlimit:10;}
	.st27{fill:none;stroke:#FFFFFF;stroke-width:4;}
</style>
<rect y="0" class="st0" width="3072" height="1920"/>
<polygon class="st1" points="1631.4,55.7 1623.9,55.7 1615.9,55.7 1610.2,55.7 1610.2,61.4 1610.2,68.2 1610.2,202.5 1739.3,202.5 
	1748.2,183.3 1631.4,183.3 "/>
<g>
	<g>
		<defs>
			<rect id="SVGID_1_" y="0" width="3072" height="1920"/>
		</defs>
		<clipPath id="SVGID_00000172410476816245676720000017045122753638406801_">
			<use xlink:href="#SVGID_1_"  style="overflow:visible;"/>
		</clipPath>
		<path style="clip-path:url(#SVGID_00000172410476816245676720000017045122753638406801_);fill:#FFFFFF;" d="M1455,50
			c-51.3,0-84.5,31.3-84.5,79.7c0,46.7,34.3,78.1,85.2,78.1c51.5,0,84.7-31.3,84.7-79.7C1540.5,81.4,1506.2,50,1455,50 M1455.5,189
			c-38.8,0-63.8-24.2-63.8-61.6c0-36,24.3-58.4,63.3-58.4h0.5c38.8,0.2,63.8,24.4,63.8,61.6C1519.4,166.1,1494.3,189,1455.5,189"/>
	</g>
	<g>
		<defs>
			<rect id="SVGID_00000034079106029317968190000007579832022461619107_" y="0" width="3072" height="1920"/>
		</defs>
		<clipPath id="SVGID_00000081644500308272581080000010867232137541085833_">
			<use xlink:href="#SVGID_00000034079106029317968190000007579832022461619107_"  style="overflow:visible;"/>
		</clipPath>
		<path style="clip-path:url(#SVGID_00000081644500308272581080000010867232137541085833_);fill:#FFFFFF;" d="M1001.9,70.8
			c10,0,43.1,2.1,56.1,29l22.5-0.2l-2.3-5.8c-10.9-27.2-38.4-42.7-75.8-42.7c-52.5,0-86.5,30-86.5,76.5c0,46.3,35.8,79.9,85,79.9
			c39.2,0,67.5-17.6,78-48.5l1.5-4.7h-22.2c-9.5,20.4-29.4,32.6-53.6,32.6c-39,0-65.3-23.8-65.3-59.3
			C939.2,93.1,963.8,70.8,1001.9,70.8"/>
	</g>
	<g>
		<defs>
			<rect id="SVGID_00000183211016064248383620000002048843012957537669_" y="0" width="3072" height="1920"/>
		</defs>
		<clipPath id="SVGID_00000147906123325007627120000013856273235426490763_">
			<use xlink:href="#SVGID_00000183211016064248383620000002048843012957537669_"  style="overflow:visible;"/>
		</clipPath>
		<path style="clip-path:url(#SVGID_00000147906123325007627120000013856273235426490763_);fill:#FFFFFF;" d="M1227.5,70.8
			c10,0,43.1,2.1,56.1,29l22.5-0.2l-2.3-5.8c-10.9-27.2-38.4-42.7-75.8-42.7c-52.5,0-86.5,30-86.5,76.5c0,46.3,35.8,79.9,85,79.9
			c39.2,0,67.5-17.6,78-48.5l1.5-4.7h-22.2c-9.5,20.4-29.4,32.6-53.6,32.6c-39,0-65.3-23.8-65.3-59.3
			C1164.9,93.1,1189.5,70.8,1227.5,70.8"/>
	</g>
	<g>
		<defs>
			<rect id="SVGID_00000101785349127653491080000000085740361379076257_" y="0" width="3072" height="1920"/>
		</defs>
		<clipPath id="SVGID_00000078767430349888861220000002429790075977689518_">
			<use xlink:href="#SVGID_00000101785349127653491080000000085740361379076257_"  style="overflow:visible;"/>
		</clipPath>
		<path style="clip-path:url(#SVGID_00000078767430349888861220000002429790075977689518_);fill:#FFFFFF;" d="M2110.9,55.5
			l-65.1,0.2h-11.5v5.7v11.4v129.8h76.4c45.7,0,75.1-31.6,75.1-77.4C2185.8,83.7,2157.1,55.5,2110.9,55.5 M2102,184.2h-46.5V75
			l46.7-0.2c38.5,0,59.9,19.9,59.9,51.3C2162.2,161.6,2140,184.2,2102,184.2"/>
	</g>
	<g>
		<defs>
			<rect id="SVGID_00000057136885512807113580000007433085934937564553_" y="0" width="3072" height="1920"/>
		</defs>
		<clipPath id="SVGID_00000010301836656140249710000008314089500909146770_">
			<use xlink:href="#SVGID_00000057136885512807113580000007433085934937564553_"  style="overflow:visible;"/>
		</clipPath>
		<path style="clip-path:url(#SVGID_00000010301836656140249710000008314089500909146770_);fill:#FFFFFF;" d="M1908.6,56h-41.3
			l-68,146.9h23l20-43.7h4.5h82h4.6l20.2,43.7h22.2L1908.6,56z M1918.9,140.1h-62.3h-5.6l2.4-5.2l0.9-2.1
			c4.7-10.2,26.1-57.1,26.1-57.1h14.3l27.4,59.2l2.4,5.1L1918.9,140.1L1918.9,140.1z"/>
	</g>
	<g>
		<defs>
			<rect id="SVGID_00000005959907126865020630000005245363566088654466_" y="0" width="3072" height="1920"/>
		</defs>
		<clipPath id="SVGID_00000111876962582174615200000004834735815302470558_">
			<use xlink:href="#SVGID_00000005959907126865020630000005245363566088654466_"  style="overflow:visible;"/>
		</clipPath>
		<path style="clip-path:url(#SVGID_00000111876962582174615200000004834735815302470558_);fill:#FFFFFF;" d="M803.2,55.4h-41.3
			l-68,146.9h23l20-43.7h4.5h82h4.6l20.2,43.7h22.2L803.2,55.4z M813.5,139.6h-62.3h-5.6l2.4-5.2l0.9-2.1
			c4.7-10.2,26.1-57.1,26.1-57.1h14.3l27.4,59.2l2.4,5.1L813.5,139.6L813.5,139.6z"/>
	</g>
</g>
<polygon class="st1" points="2268.7,183.2 2268.7,136.9 2363.6,136.9 2363.6,116.8 2268.7,116.8 2268.7,75.4 2373.5,75.4 
	2373.5,55.7 2261.1,55.7 2247.7,55.7 2247.7,74.7 2247.7,202.4 2369.2,202.4 2378.1,183.2 "/>
<polygon class="st1" points="1330.8,344.9 1330.8,279.4 1317.7,279.4 1317.7,266.1 1344,266.1 1344,344.9 "/>
<g>
	<g>
		<defs>
			<rect id="SVGID_00000019670064829283937630000017594814020341691776_" y="0" width="3072" height="1920"/>
		</defs>
		<clipPath id="SVGID_00000075156521426823614760000005551513977040998076_">
			<use xlink:href="#SVGID_00000019670064829283937630000017594814020341691776_"  style="overflow:visible;"/>
		</clipPath>
		<path style="clip-path:url(#SVGID_00000075156521426823614760000005551513977040998076_);fill:#FFFFFF;" d="M1404.4,305.8
			c0-26,16.6-42.6,41.7-42.6c25.2,0,42.1,16.8,42.1,41.8c0,26-16.7,42.6-41.8,42.6C1421.2,347.6,1404.4,330.8,1404.4,305.8
			 M1446.1,276.1c-16.9,0-27.7,10.8-27.7,28.5c0,18.2,10.8,30.2,28.1,30.2c16.9,0,27.8-10.8,27.8-28.5
			C1474.2,288,1463.3,276.1,1446.1,276.1"/>
	</g>
	<g>
		<defs>
			<rect id="SVGID_00000173858811349712964380000009204722867826837678_" y="0" width="3072" height="1920"/>
		</defs>
		<clipPath id="SVGID_00000137821903326978658790000005662286363526210228_">
			<use xlink:href="#SVGID_00000173858811349712964380000009204722867826837678_"  style="overflow:visible;"/>
		</clipPath>
		<path style="clip-path:url(#SVGID_00000137821903326978658790000005662286363526210228_);fill:#FFFFFF;" d="M1537,305.8
			c0-26,16.6-42.6,41.7-42.6c25.2,0,42.1,16.8,42.1,41.8c0,26-16.7,42.6-41.8,42.6C1553.8,347.6,1537,330.8,1537,305.8
			 M1578.6,276.1c-16.9,0-27.7,10.8-27.7,28.5c0,18.2,10.8,30.2,28.1,30.2c16.9,0,27.8-10.8,27.8-28.5
			C1606.8,288,1595.9,276.1,1578.6,276.1"/>
	</g>
	<g>
		<defs>
			<rect id="SVGID_00000125599568472013458570000012580821279469889967_" y="0" width="3072" height="1920"/>
		</defs>
		<clipPath id="SVGID_00000018227296919618604980000007739733481454715011_">
			<use xlink:href="#SVGID_00000125599568472013458570000012580821279469889967_"  style="overflow:visible;"/>
		</clipPath>
		<path style="clip-path:url(#SVGID_00000018227296919618604980000007739733481454715011_);fill:#FFFFFF;" d="M1707.2,348.6
			c-19.8,0-33.3-7.8-37.8-20.4l10.4-7.7c3.6,8.9,14.7,14,27,14c14.8,0,26.2-7.3,26.2-23c0-0.6-0.1-1.2-0.1-1.8
			c-8,5.8-17.5,8.3-24.7,8.3c-23.3,0-38.4-11.7-38.4-28.6c0-16,19.1-27.1,38.5-27.1c19.9,0,40.1,11.7,40.1,42
			C1748.4,334.2,1734.4,348.6,1707.2,348.6 M1708.3,304.7c10.8,0,19.9-5,22.7-12.2c-0.7-11.5-11.2-16.3-22.7-16.3s-23,5.1-23,13.3
			C1685.3,298,1694.3,304.7,1708.3,304.7"/>
	</g>
	<g>
		<defs>
			<rect id="SVGID_00000122682330007165444750000016816891914288161923_" y="0" width="3072" height="1920"/>
		</defs>
		<clipPath id="SVGID_00000098920000186511295310000011955504548248597171_">
			<use xlink:href="#SVGID_00000122682330007165444750000016816891914288161923_"  style="overflow:visible;"/>
		</clipPath>
		<path style="clip-path:url(#SVGID_00000098920000186511295310000011955504548248597171_);fill:#FFFFFF;" d="M1079.6,1872l1.2-6.1
			h-34.3v-16.7h31.2v-6.1h-31.2V1828h32.8v-6.1h-39.8v50L1079.6,1872L1079.6,1872z M1021.9,1855.5c-0.9,4-2.8,6.9-5.7,8.8
			s-6.9,2.8-12,2.8c-4.1,0-7.7-0.8-10.6-2.5c-3-1.7-5.2-4-6.8-7c-1.5-3-2.3-6.5-2.3-10.6c0-4.2,0.8-7.7,2.5-10.8
			c1.6-3,3.9-5.3,6.9-6.9c2.9-1.6,6.3-2.4,10.2-2.4c4.8,0,8.5,0.9,11.2,2.7c2.7,1.8,4.8,4.7,6.3,8.7l6.8-1.1
			c-1.5-5.5-4.3-9.6-8.3-12.4c-4-2.7-9.3-4.1-16-4.1c-5.4,0-10.2,1.1-14.2,3.4s-7.2,5.3-9.3,9.3s-3.2,8.5-3.2,13.6
			c0,5.4,1.1,10.1,3.4,14.1c2.3,4,5.4,7,9.5,9.1c4,2.1,8.7,3.1,14.1,3.1c7.1,0,12.8-1.5,17-4.6c4.2-3,6.9-7.4,7.8-13.2H1021.9z
			 M967.1,1872v-50h-6.8v40.2l-33.2-40.2h-6.7v50h6.8v-40.2l33.2,40.2H967.1z M909.1,1872l1.2-6.1H876v-16.7h31.2v-6.1H876V1828
			h32.8v-6.1H869v50L909.1,1872L909.1,1872z M822.5,1845.7v-17.6h16c4.4,0,7.6,0.7,9.6,2c2,1.4,3,3.6,3,6.7c0,5.9-4.2,8.9-12.7,8.9
			H822.5z M861,1872l-12.5-21.6c6.6-2.1,9.9-6.6,9.9-13.4c0-10-6.4-15-19.3-15h-23.3v50h6.8v-20.2h15.7c1.7,0,2.8,0,3.3-0.1
			L853,1872H861z M804.5,1872l1.2-6.1h-34.3v-16.7h31.2v-6.1h-31.2V1828h32.8v-6.1h-39.8v50L804.5,1872L804.5,1872z M753.7,1850
			v-6.1h-29.3v-15.8h30.9v-6.1h-37.9v50h6.9v-22H753.7z M706.7,1850v-6.1h-29.3v-15.8h30.9v-6.1h-37.9v50h6.9v-22H706.7z M657,1822
			h-6.9v50h6.9V1822z M597.7,1865.9v-37.8H612c13.9,0,20.9,6.3,20.9,18.9c0,6.2-1.9,10.9-5.7,14.1s-9.4,4.8-16.7,4.8H597.7z
			 M610.1,1872c9.6,0,16.9-2.2,22.1-6.5c5.2-4.3,7.8-10.5,7.8-18.5s-2.4-14.2-7.2-18.5S621,1822,612,1822h-21.1v50H610.1z
			 M524.7,1845.7v-17.6h16c4.4,0,7.6,0.7,9.6,2c2,1.4,3,3.6,3,6.7c0,5.9-4.2,8.9-12.7,8.9H524.7z M563.2,1872l-12.5-21.6
			c6.6-2.1,9.9-6.6,9.9-13.4c0-10-6.4-15-19.3-15H518v50h6.8v-20.2h15.7c1.7,0,2.8,0,3.3-0.1l11.5,20.2L563.2,1872L563.2,1872z
			 M498.1,1852.1c0,5.1-1.3,8.9-4,11.3c-2.6,2.5-6.7,3.7-12.2,3.7s-9.6-1.2-12.2-3.7c-2.6-2.4-4-6.2-4-11.3V1822h-6.9v29.9
			c0,14.2,7.7,21.3,23.1,21.3s23.1-7.1,23.1-21.3V1822h-6.9V1852.1z M435.9,1861.8c-3.7,3.5-8.7,5.3-15.2,5.3s-11.6-1.8-15.3-5.3
			c-3.6-3.5-5.5-8.5-5.5-14.8s1.8-11.2,5.5-14.8c3.7-3.5,8.7-5.3,15.2-5.3s11.6,1.8,15.3,5.3c3.6,3.5,5.5,8.5,5.5,14.8
			S439.5,1858.2,435.9,1861.8 M445,1832.9c-2.4-4-5.6-7-9.8-9.1c-4.2-2.1-9.1-3.1-14.6-3.1c-5.7,0-10.7,1.1-14.9,3.3
			c-4.2,2.2-7.5,5.3-9.7,9.2c-2.2,3.9-3.4,8.5-3.4,13.7c0,5.4,1.2,10.1,3.5,14.1c2.4,4,5.6,7,9.8,9.1c4.2,2.1,9.1,3.1,14.6,3.1
			c5.7,0,10.7-1.1,14.9-3.3c4.2-2.2,7.5-5.3,9.7-9.2c2.2-3.9,3.4-8.5,3.4-13.7C448.6,1841.6,447.4,1836.9,445,1832.9 M371.6,1872
			v-21l21.5-29h-8l-16.8,23l-16.8-23h-8.3l21.5,29v21H371.6z M318,1872l1.2-6.1h-34.3v-16.7h31.2v-6.1h-31.2V1828h32.8v-6.1h-39.8
			v50L318,1872L318,1872z M247.9,1872l22.9-50H263l-18.7,42.6l-18.7-42.6h-8.1l22.9,50H247.9z M202.1,1861.8
			c-3.7,3.5-8.7,5.3-15.2,5.3s-11.6-1.8-15.3-5.3c-3.6-3.5-5.5-8.5-5.5-14.8s1.8-11.2,5.5-14.8c3.7-3.5,8.7-5.3,15.2-5.3
			s11.6,1.8,15.3,5.3c3.6,3.5,5.5,8.5,5.5,14.8S205.8,1858.2,202.1,1861.8 M211.3,1832.9c-2.4-4-5.6-7-9.8-9.1s-9.1-3.1-14.6-3.1
			c-5.7,0-10.7,1.1-14.9,3.3c-4.2,2.2-7.5,5.3-9.7,9.2c-2.2,3.9-3.4,8.5-3.4,13.7c0,5.4,1.2,10.1,3.5,14.1c2.4,4,5.6,7,9.8,9.1
			s9.1,3.1,14.6,3.1c5.7,0,10.6-1.1,14.9-3.3c4.2-2.2,7.5-5.3,9.7-9.2c2.2-3.9,3.4-8.5,3.4-13.7
			C214.8,1841.6,213.7,1836.9,211.3,1832.9 M116.2,1845.7v-17.6h16c4.4,0,7.6,0.7,9.6,2c2,1.4,3,3.6,3,6.7c0,5.9-4.2,8.9-12.7,8.9
			H116.2z M154.6,1872l-12.5-21.6c6.6-2.1,9.9-6.6,9.9-13.4c0-10-6.4-15-19.3-15h-23.3v50h6.8v-20.2h15.7c1.7,0,2.8,0,3.3-0.1
			l11.6,20.2L154.6,1872L154.6,1872z M63.7,1847.2v-19.1h16.2c4.4,0,7.6,0.7,9.7,2.2s3.1,3.8,3.1,7.1c0,3.3-1,5.8-3.2,7.4
			c-2.1,1.6-5.3,2.4-9.7,2.4H63.7z M63.7,1872v-18.7h15.9c6.8,0,11.9-1.3,15.3-3.9s5-6.5,5-11.9c0-5.1-1.6-9-4.9-11.6
			s-8.1-3.9-14.6-3.9H56.7v50H63.7z"/>
	</g>
	<g>
		<defs>
			<rect id="SVGID_00000172410900941334115820000012414704345309325475_" y="0" width="3072" height="1920"/>
		</defs>
		<clipPath id="SVGID_00000041996206646522999700000016520218847531745983_">
			<use xlink:href="#SVGID_00000172410900941334115820000012414704345309325475_"  style="overflow:visible;"/>
		</clipPath>
		<path style="clip-path:url(#SVGID_00000041996206646522999700000016520218847531745983_);fill:#FFFFFF;" d="M769.9,1788.8
			l4.3-15.1h-7.4l-2.6,15.1H769.9z M761.7,1760v-6.1h-29.3v-15.8h30.9v-6.1h-37.9v50h6.9v-22H761.7z M715.7,1782l1.2-6.1h-32.8V1732
			h-6.9v50H715.7z M665.9,1782l1.2-6.1h-34.3v-16.7H664v-6.1h-31.2V1738h32.8v-6.1h-39.8v50L665.9,1782L665.9,1782z M613.9,1743.8
			c-0.9-3-2.3-5.5-4.1-7.4s-4.2-3.3-7.1-4.2c-2.9-0.9-6.5-1.4-10.9-1.4c-7,0-12.6,1.2-16.5,3.7c-4,2.5-6,5.8-6,10.2
			c0,2.8,0.6,5.1,1.8,7s3.1,3.4,5.8,4.7c2.7,1.2,6.4,2.2,11,2.9l8.7,1.3c4,0.6,6.9,1.6,8.7,2.9s2.7,3.1,2.7,5.4
			c0,2.7-1.3,4.8-3.9,6.3c-2.6,1.5-6.3,2.2-11.2,2.2c-5.4,0-9.5-0.8-12.4-2.4s-4.7-4-5.3-7.3H568c0.6,5.3,3,9.3,7.1,11.9
			s10,3.9,17.8,3.9c7,0,12.5-1.3,16.4-3.8s5.9-6.1,5.9-10.7c0-4.2-1.4-7.4-4.2-9.8s-7.1-4-12.8-4.9l-9.7-1.4c-2.9-0.4-5.3-1-7-1.6
			c-1.8-0.7-3-1.5-3.9-2.6c-0.8-1-1.2-2.4-1.2-4c0-2.4,1.3-4.3,4-5.6c2.7-1.3,6.5-2,11.4-2c4.3,0,7.7,0.6,10.1,1.9
			c2.4,1.3,4.2,3.3,5.4,6.2L613.9,1743.8z M524.7,1755.7v-17.6h16c4.4,0,7.6,0.7,9.6,2c2,1.4,3,3.6,3,6.7c0,5.9-4.2,8.9-12.7,8.9
			H524.7z M563.2,1782l-12.5-21.6c6.6-2.1,9.9-6.6,9.9-13.4c0-10-6.4-15-19.3-15H518v50h6.8v-20.2h15.7c1.7,0,2.8,0,3.3-0.1
			l11.5,20.2L563.2,1782L563.2,1782z M498.1,1762.1c0,5.1-1.3,8.9-4,11.3c-2.6,2.5-6.7,3.7-12.2,3.7s-9.6-1.2-12.2-3.7
			c-2.6-2.4-4-6.2-4-11.3V1732h-6.9v29.9c0,14.2,7.7,21.3,23.1,21.3s23.1-7.1,23.1-21.3V1732h-6.9V1762.1z M435.9,1771.8
			c-3.7,3.5-8.7,5.3-15.2,5.3s-11.6-1.8-15.3-5.3c-3.6-3.5-5.5-8.5-5.5-14.8s1.8-11.2,5.5-14.8c3.7-3.5,8.7-5.3,15.2-5.3
			s11.6,1.8,15.3,5.3c3.6,3.5,5.5,8.5,5.5,14.8S439.5,1768.2,435.9,1771.8 M445,1742.9c-2.4-4-5.6-7-9.8-9.1
			c-4.2-2.1-9.1-3.1-14.6-3.1c-5.7,0-10.7,1.1-14.9,3.3c-4.2,2.2-7.5,5.3-9.7,9.2c-2.2,3.9-3.4,8.5-3.4,13.7
			c0,5.4,1.2,10.1,3.5,14.1c2.4,4,5.6,7,9.8,9.1c4.2,2.1,9.1,3.1,14.6,3.1c5.7,0,10.7-1.1,14.9-3.3c4.2-2.2,7.5-5.3,9.7-9.2
			c2.2-3.9,3.4-8.5,3.4-13.7C448.6,1751.6,447.4,1746.9,445,1742.9 M371.6,1782v-21l21.5-29h-8l-16.8,23l-16.8-23h-8.3l21.5,29v21
			H371.6z M318,1782l1.2-6.1h-34.3v-16.7h31.2v-6.1h-31.2V1738h32.8v-6.1h-39.8v50L318,1782L318,1782z M247.9,1782l22.9-50H263
			l-18.7,42.6l-18.7-42.6h-8.1l22.9,50H247.9z M202.1,1771.8c-3.7,3.5-8.7,5.3-15.2,5.3s-11.6-1.8-15.3-5.3
			c-3.6-3.5-5.5-8.5-5.5-14.8s1.8-11.2,5.5-14.8c3.7-3.5,8.7-5.3,15.2-5.3s11.6,1.8,15.3,5.3c3.6,3.5,5.5,8.5,5.5,14.8
			S205.8,1768.2,202.1,1771.8 M211.3,1742.9c-2.4-4-5.6-7-9.8-9.1s-9.1-3.1-14.6-3.1c-5.7,0-10.7,1.1-14.9,3.3
			c-4.2,2.2-7.5,5.3-9.7,9.2c-2.2,3.9-3.4,8.5-3.4,13.7c0,5.4,1.2,10.1,3.5,14.1c2.4,4,5.6,7,9.8,9.1s9.1,3.1,14.6,3.1
			c5.7,0,10.6-1.1,14.9-3.3c4.2-2.2,7.5-5.3,9.7-9.2c2.2-3.9,3.4-8.5,3.4-13.7C214.8,1751.6,213.7,1746.9,211.3,1742.9
			 M116.2,1755.7v-17.6h16c4.4,0,7.6,0.7,9.6,2c2,1.4,3,3.6,3,6.7c0,5.9-4.2,8.9-12.7,8.9H116.2z M154.6,1782l-12.5-21.6
			c6.6-2.1,9.9-6.6,9.9-13.4c0-10-6.4-15-19.3-15h-23.3v50h6.8v-20.2h15.7c1.7,0,2.8,0,3.3-0.1l11.6,20.2L154.6,1782L154.6,1782z
			 M63.7,1757.2v-19.1h16.2c4.4,0,7.6,0.7,9.7,2.2s3.1,3.8,3.1,7.1c0,3.3-1,5.8-3.2,7.4c-2.1,1.6-5.3,2.4-9.7,2.4H63.7z M63.7,1782
			v-18.7h15.9c6.8,0,11.9-1.3,15.3-3.9s5-6.5,5-11.9c0-5.1-1.6-9-4.9-11.6s-8.1-3.9-14.6-3.9H56.7v50H63.7z"/>
	</g>
	<g>
		<defs>
			<rect id="SVGID_00000127028063151035785310000008973904596457399955_" y="0" width="3072" height="1920"/>
		</defs>
		<clipPath id="SVGID_00000044886319283765594800000013178594983200066495_">
			<use xlink:href="#SVGID_00000127028063151035785310000008973904596457399955_"  style="overflow:visible;"/>
		</clipPath>
		<path style="clip-path:url(#SVGID_00000044886319283765594800000013178594983200066495_);fill:#FFFFFF;" d="M2378.4,1852.9v-9.6
			h8.9c2.5,0,4.2,0.4,5.4,1.1c1.1,0.7,1.7,2,1.7,3.6c0,1.7-0.6,2.9-1.7,3.7c-1.2,0.8-2.9,1.2-5.4,1.2L2378.4,1852.9L2378.4,1852.9z
			 M2401.4,1869l-7.6-12.8c3.9-1.3,5.9-4,5.9-8.1c0-6.1-4-9.1-12.1-9.1h-14.3v30h5.1v-11.8h8.7h0.7c0.2,0,0.5,0,0.7,0l6.8,11.8
			H2401.4z M2368.7,1869l-14.5-18.8l13.3-11.2h-6.6l-16.5,13.6V1839h-5.3v30h5.3v-11l6-4.7l12.1,15.7H2368.7z M2317.8,1873.1
			l2.9-10.1h-5.2l-1.6,10.1H2317.8z M2310,1869l0.8-4.5h-19V1839h-5.3v30H2310z M2273.6,1856.9c0,2.9-0.7,5-2.2,6.3
			c-1.4,1.4-3.7,2-6.7,2s-5.3-0.7-6.7-2c-1.4-1.4-2.2-3.5-2.2-6.3V1839h-5.3v17.7c0,4.4,1.2,7.6,3.5,9.8c2.4,2.2,5.9,3.3,10.7,3.3
			s8.3-1.1,10.7-3.3c2.4-2.2,3.5-5.4,3.5-9.8V1839h-5.3V1856.9z M2236,1862.3c-2,2-4.9,3-8.5,3s-6.5-1-8.5-3s-3-4.8-3-8.3
			c0-3.6,1-6.3,3-8.3s4.9-3,8.5-3s6.5,1,8.5,3s3,4.8,3,8.3C2239,1857.6,2238,1860.3,2236,1862.3 M2242.4,1845.6
			c-1.4-2.4-3.4-4.2-6-5.4s-5.5-1.9-8.9-1.9c-3.5,0-6.5,0.7-9.1,2s-4.5,3.2-5.9,5.5c-1.4,2.4-2,5.1-2,8.3c0,3.2,0.7,6.1,2.1,8.4
			s3.4,4.2,6,5.4c2.6,1.2,5.5,1.9,8.9,1.9c3.5,0,6.5-0.7,9.1-2s4.5-3.2,5.9-5.5c1.4-2.4,2-5.1,2-8.3
			C2244.5,1850.8,2243.8,1847.9,2242.4,1845.6 M2205.5,1869l0.8-4.5h-20v-8.7h18.2v-4.5h-18.2v-7.8h19.1v-4.5H2181v30H2205.5z
			 M2174,1846.5c-0.5-1.9-1.3-3.5-2.4-4.7c-1.1-1.2-2.6-2.1-4.4-2.7c-1.8-0.6-4.1-0.9-6.8-0.9c-4.4,0-7.8,0.7-10.2,2.2
			s-3.6,3.6-3.6,6.3c0,1.7,0.4,3.1,1.1,4.3c0.7,1.2,1.9,2.1,3.5,2.8s3.8,1.3,6.6,1.7l5.4,0.8c2.1,0.3,3.6,0.8,4.6,1.5
			s1.5,1.7,1.5,2.9c0,1.5-0.7,2.6-2.2,3.4c-1.4,0.8-3.5,1.2-6.2,1.2c-3,0-5.3-0.5-6.9-1.4c-1.6-0.9-2.5-2.4-2.9-4.5h-5.4
			c0.4,3.5,1.9,6,4.3,7.7c2.5,1.7,6.1,2.5,10.8,2.5c4.4,0,7.8-0.8,10.2-2.3c2.4-1.6,3.6-3.7,3.6-6.6c0-2.5-0.8-4.5-2.5-5.9
			s-4.2-2.4-7.7-3l-6.2-0.9c-2.4-0.4-4.1-0.9-5.1-1.5s-1.4-1.6-1.4-2.9s0.7-2.4,2.2-3.1s3.6-1.1,6.3-1.1c1.6,0,3,0.2,4.1,0.5
			s2,0.8,2.7,1.5s1.3,1.6,1.8,2.8L2174,1846.5z"/>
	</g>
	<g>
		<defs>
			<rect id="SVGID_00000173159573068936621330000015681843334015157943_" y="0" width="3072" height="1920"/>
		</defs>
		<clipPath id="SVGID_00000179625190735031846160000013830198239623693997_">
			<use xlink:href="#SVGID_00000173159573068936621330000015681843334015157943_"  style="overflow:visible;"/>
		</clipPath>
		<path style="clip-path:url(#SVGID_00000179625190735031846160000013830198239623693997_);fill:#FFFFFF;" d="M3013.8,1819.1
			l2.9-10.1h-5.2l-1.6,10.1H3013.8z M3000.2,1802.9c0,2.9-0.7,5-2.2,6.3c-1.4,1.4-3.7,2-6.7,2c-3.1,0-5.3-0.7-6.7-2
			c-1.4-1.4-2.2-3.5-2.2-6.3V1785h-5.3v17.7c0,4.4,1.2,7.6,3.5,9.8c2.4,2.2,5.9,3.3,10.7,3.3s8.3-1.1,10.7-3.3
			c2.4-2.2,3.5-5.4,3.5-9.8V1785h-5.3V1802.9z M2965.9,1809.4c-2.4,1.3-5.5,1.9-9.2,1.9c-3.8,0-6.8-1-8.8-2.9s-3-4.7-3-8.4
			c0-3.6,1-6.4,2.9-8.4s4.7-3,8.2-3c2.4,0,4.3,0.4,5.8,1.3s2.6,2.2,3.2,4l5.3-0.8c-0.9-2.9-2.6-5.1-5-6.6s-5.5-2.3-9.2-2.3
			c-3.4,0-6.4,0.7-9,2c-2.5,1.3-4.5,3.2-5.8,5.5c-1.3,2.4-2,5.2-2,8.4c0,3.3,0.7,6.1,2.1,8.4s3.4,4.1,6,5.4c2.6,1.2,5.6,1.8,9.2,1.8
			c2.7,0,5.3-0.4,7.8-1.1s4.7-1.7,6.4-3V1799h-14.1v4.4h9.1v6H2965.9z M2934.8,1800.3H2919v4.6h15.8V1800.3z M2906,1808.3
			c-2,2-4.9,3-8.5,3s-6.5-1-8.5-3s-3-4.8-3-8.3c0-3.6,1-6.3,3-8.3s4.9-3,8.5-3s6.5,1,8.5,3s3,4.8,3,8.3
			C2909.1,1803.6,2908.1,1806.3,2906,1808.3 M2912.4,1791.6c-1.4-2.4-3.4-4.2-6-5.4s-5.5-1.9-8.9-1.9c-3.5,0-6.5,0.7-9.1,2
			s-4.5,3.2-5.9,5.5s-2,5.1-2,8.3c0,3.2,0.7,6.1,2.1,8.4s3.4,4.2,6,5.4c2.6,1.2,5.5,1.9,8.9,1.9c3.5,0,6.5-0.7,9.1-2
			s4.5-3.2,5.9-5.5c1.4-2.4,2-5.1,2-8.3C2914.6,1796.8,2913.9,1793.9,2912.4,1791.6 M2874.7,1815v-30h-5.3v12.1h-18.1V1785h-5.3v30
			h5.3v-13.1h18.1v13.1H2874.7z M2834.4,1804.9c-0.6,2.2-1.6,3.8-3.1,4.9c-1.5,1-3.7,1.6-6.4,1.6c-3.4,0-6.1-1-8-3s-2.9-4.8-2.9-8.3
			s1-6.3,2.9-8.3s4.6-3,7.9-3c2.5,0,4.6,0.5,6.1,1.5s2.6,2.6,3.4,4.9l5.4-0.8c-1.8-6.7-6.8-10-14.8-10c-3.3,0-6.2,0.7-8.7,2
			s-4.4,3.2-5.7,5.6s-2,5.1-2,8.2c0,3.2,0.7,6.1,2.1,8.4c1.4,2.4,3.3,4.2,5.7,5.4c2.5,1.2,5.3,1.9,8.6,1.9c4.3,0,7.8-0.9,10.5-2.8
			c2.6-1.9,4.2-4.6,4.8-8.1L2834.4,1804.9L2834.4,1804.9z M2795.1,1808.3c-2,2-4.9,3-8.5,3s-6.5-1-8.5-3s-3-4.8-3-8.3
			c0-3.6,1-6.3,3-8.3s4.9-3,8.5-3s6.5,1,8.5,3s3,4.8,3,8.3C2798.2,1803.6,2797.2,1806.3,2795.1,1808.3 M2801.6,1791.6
			c-1.4-2.4-3.4-4.2-6-5.4s-5.5-1.9-8.9-1.9c-3.5,0-6.5,0.7-9.1,2s-4.5,3.2-5.9,5.5c-1.4,2.4-2,5.1-2,8.3c0,3.2,0.7,6.1,2.1,8.4
			c1.4,2.4,3.4,4.2,6,5.4c2.6,1.2,5.5,1.9,8.9,1.9c3.5,0,6.5-0.7,9.1-2s4.5-3.2,5.9-5.5c1.4-2.4,2-5.1,2-8.3
			C2803.7,1796.8,2803,1793.9,2801.6,1791.6 M2764.7,1815l0.8-4.5h-20v-8.7h18.2v-4.5h-18.2v-7.8h19.1v-4.5h-24.4v30H2764.7z
			 M2733.2,1792.5c-0.5-1.9-1.3-3.5-2.4-4.7c-1.1-1.2-2.6-2.1-4.4-2.7s-4.1-0.9-6.8-0.9c-4.4,0-7.8,0.7-10.2,2.2s-3.6,3.6-3.6,6.3
			c0,1.7,0.4,3.1,1.1,4.3s1.9,2.1,3.5,2.8c1.6,0.7,3.8,1.3,6.6,1.7l5.4,0.8c2.1,0.3,3.6,0.8,4.6,1.5s1.5,1.7,1.5,2.9
			c0,1.5-0.7,2.6-2.2,3.4c-1.4,0.8-3.5,1.2-6.2,1.2c-3,0-5.3-0.5-6.9-1.4s-2.5-2.4-2.9-4.5h-5.4c0.4,3.5,1.9,6,4.3,7.7
			c2.4,1.7,6.1,2.5,10.8,2.5c4.4,0,7.8-0.8,10.2-2.3c2.4-1.6,3.6-3.7,3.6-6.6c0-2.5-0.8-4.5-2.5-5.9s-4.2-2.4-7.7-3l-6.2-0.9
			c-2.4-0.4-4.1-0.9-5.1-1.5s-1.4-1.6-1.4-2.9s0.7-2.4,2.2-3.1s3.6-1.1,6.3-1.1c1.6,0,3,0.2,4.1,0.5s2,0.8,2.7,1.5s1.3,1.6,1.8,2.8
			L2733.2,1792.5z M2685.8,1819.1l2.9-10.1h-5.2l-1.6,10.1H2685.8z M2672.2,1809.4c-2.4,1.3-5.5,1.9-9.2,1.9c-3.8,0-6.8-1-8.8-2.9
			s-3-4.7-3-8.4c0-3.6,1-6.4,2.9-8.4s4.7-3,8.2-3c2.4,0,4.3,0.4,5.8,1.3s2.6,2.2,3.2,4l5.3-0.8c-0.9-2.9-2.6-5.1-5-6.6
			s-5.5-2.3-9.2-2.3c-3.4,0-6.4,0.7-9,2c-2.5,1.3-4.5,3.2-5.8,5.5s-2,5.2-2,8.4c0,3.3,0.7,6.1,2.1,8.4s3.4,4.1,6,5.4
			c2.6,1.2,5.6,1.8,9.2,1.8c2.7,0,5.3-0.4,7.8-1.1s4.7-1.7,6.4-3V1799H2663v4.4h9.1v6H2672.2z M2639.8,1815v-30h-5.2v22.6
			l-18.8-22.6h-5v30h5.2v-22.6l18.8,22.6H2639.8z M2596.5,1808.3c-2,2-4.9,3-8.5,3s-6.5-1-8.5-3s-3-4.8-3-8.3c0-3.6,1-6.3,3-8.3
			s4.9-3,8.5-3s6.5,1,8.5,3s3,4.8,3,8.3C2599.5,1803.6,2598.5,1806.3,2596.5,1808.3 M2602.9,1791.6c-1.4-2.4-3.4-4.2-6-5.4
			c-2.6-1.2-5.5-1.9-8.9-1.9c-3.5,0-6.5,0.7-9.1,2s-4.5,3.2-5.9,5.5c-1.4,2.4-2,5.1-2,8.3c0,3.2,0.7,6.1,2.1,8.4
			c1.4,2.4,3.4,4.2,6,5.4c2.6,1.2,5.5,1.9,8.9,1.9c3.5,0,6.5-0.7,9.1-2s4.5-3.2,5.9-5.5s2-5.1,2-8.3
			C2605,1796.8,2604.3,1793.9,2602.9,1791.6 M2541.4,1810.5v-21h7.7c7.8,0,11.7,3.5,11.7,10.5c0,3.4-1,6.1-3.1,7.8
			c-2.1,1.8-5.2,2.7-9.3,2.7H2541.4z M2548.2,1815c5.8,0,10.3-1.3,13.4-3.9c3.1-2.6,4.7-6.3,4.7-11.1c0-4.8-1.5-8.6-4.4-11.1
			c-3-2.6-7.2-3.9-12.8-3.9h-13v30H2548.2z M2530.1,1800.3h-15.8v4.6h15.8V1800.3z M2509.5,1815l0.8-4.5h-20v-8.7h18.2v-4.5h-18.2
			v-7.8h19.1v-4.5H2485v30H2509.5z M2469.2,1803.1h-12l6-13L2469.2,1803.1z M2480.4,1815l-14.2-30h-5.8l-14.2,30h5.6l3.5-7.5h15.8
			l3.4,7.5H2480.4z M2422.6,1810.8v-9.4h9.2c2.5,0,4.4,0.4,5.6,1.2s1.8,2,1.8,3.6s-0.6,2.8-1.8,3.5s-3.1,1.1-5.7,1.1L2422.6,1810.8
			L2422.6,1810.8z M2422.6,1797.3v-8.1h8.6c2.5,0,4.2,0.3,5.3,0.9s1.6,1.6,1.6,3c0,1.5-0.5,2.5-1.6,3.2s-2.7,1-4.9,1H2422.6z
			 M2432,1815c4.1,0,7.2-0.7,9.4-2.2c2.1-1.5,3.2-3.7,3.2-6.5c0-3.4-2-5.8-6.1-7.1c3.3-1.1,4.9-3.2,4.9-6.4c0-5.1-4-7.7-12-7.7
			h-13.9v30h14.5V1815z M2406,1809.4c-2.4,1.3-5.5,1.9-9.2,1.9c-3.8,0-6.8-1-8.8-2.9s-3-4.7-3-8.4c0-3.6,1-6.4,2.9-8.4s4.7-3,8.2-3
			c2.4,0,4.3,0.4,5.8,1.3s2.6,2.2,3.2,4l5.3-0.8c-0.9-2.9-2.6-5.1-5-6.6s-5.5-2.3-9.2-2.3c-3.4,0-6.4,0.7-9,2
			c-2.5,1.3-4.5,3.2-5.8,5.5c-1.3,2.4-2,5.2-2,8.4c0,3.3,0.7,6.1,2.1,8.4c1.4,2.3,3.4,4.1,6,5.4c2.6,1.2,5.6,1.8,9.2,1.8
			c2.7,0,5.3-0.4,7.8-1.1s4.7-1.7,6.4-3V1799h-14.1v4.4h9.1v6H2406z M2373.5,1815v-30h-5.2v22.6l-18.8-22.6h-5v30h5.2v-22.6
			l18.8,22.6H2373.5z M2328.9,1803.1h-12l6-13L2328.9,1803.1z M2340.1,1815l-14.2-30h-5.8l-14.2,30h5.6l3.5-7.5h15.8l3.4,7.5H2340.1
			z M2282.3,1810.8v-9.4h9.2c2.5,0,4.4,0.4,5.6,1.2c1.2,0.8,1.8,2,1.8,3.6s-0.6,2.8-1.8,3.5s-3.1,1.1-5.7,1.1L2282.3,1810.8
			L2282.3,1810.8z M2282.3,1797.3v-8.1h8.6c2.5,0,4.2,0.3,5.3,0.9s1.6,1.6,1.6,3c0,1.5-0.5,2.5-1.6,3.2s-2.7,1-4.9,1H2282.3z
			 M2291.7,1815c4.1,0,7.2-0.7,9.4-2.2c2.1-1.5,3.2-3.7,3.2-6.5c0-3.4-2-5.8-6.1-7.1c3.3-1.1,4.9-3.2,4.9-6.4c0-5.1-4-7.7-12-7.7
			h-13.9v30h14.5V1815z M2251.5,1799.2c-1.3,1-3,1.5-5.1,1.5c-4.6,0-6.9-1.8-6.9-5.5c0-1.7,0.6-3.1,1.9-4.2c1.3-1.1,3-1.6,5.1-1.6
			c2,0,3.7,0.6,5,1.7s1.9,2.5,1.9,4.3C2253.5,1796.9,2252.8,1798.2,2251.5,1799.2 M2253.9,1801.8c-0.2,3.4-0.9,5.8-2.1,7.4
			c-1.2,1.6-2.9,2.3-5.2,2.3c-1.9,0-3.3-0.3-4.3-0.8s-1.7-1.4-2-2.6h-5c0.3,2.5,1.4,4.4,3.3,5.7c1.9,1.3,4.6,1.9,8,1.9
			c4,0,7.1-1.4,9.2-4.2c2.1-2.8,3.2-6.8,3.2-12c0-4.7-1-8.3-3.1-10.7c-2.1-2.4-5.1-3.7-9.2-3.7c-2.4,0-4.6,0.4-6.4,1.3
			c-1.8,0.9-3.2,2-4.2,3.5s-1.4,3.2-1.4,5.2c0,3,1,5.3,2.9,7c1.9,1.6,4.6,2.5,8.1,2.5c3.8,0,6.5-1.1,8.4-3.4L2253.9,1801.8z
			 M2211.8,1808.8c-1.2-1.8-1.8-4.5-1.8-8.3s0.6-6.5,1.8-8.3s3.1-2.7,5.7-2.7c2.6,0,4.5,0.9,5.7,2.7c1.2,1.8,1.8,4.5,1.8,8.3
			s-0.6,6.5-1.8,8.3s-3.1,2.7-5.7,2.7C2214.9,1811.4,2213,1810.5,2211.8,1808.8 M2227,1811.9c2.2-2.6,3.3-6.4,3.3-11.4
			c0-10.2-4.3-15.2-12.8-15.2c-4.2,0-7.3,1.3-9.5,3.9s-3.3,6.4-3.3,11.4c0,10.2,4.3,15.2,12.8,15.2
			C2221.7,1815.7,2224.8,1814.5,2227,1811.9 M2182.4,1808.8c-1.2-1.8-1.8-4.5-1.8-8.3s0.6-6.5,1.8-8.3s3.1-2.7,5.7-2.7
			c2.6,0,4.5,0.9,5.7,2.7c1.2,1.8,1.8,4.5,1.8,8.3s-0.6,6.5-1.8,8.3s-3.1,2.7-5.7,2.7C2185.5,1811.4,2183.6,1810.5,2182.4,1808.8
			 M2197.6,1811.9c2.2-2.6,3.3-6.4,3.3-11.4c0-10.2-4.3-15.2-12.8-15.2c-4.2,0-7.3,1.3-9.5,3.9s-3.3,6.4-3.3,11.4
			c0,10.2,4.3,15.2,12.8,15.2C2192.3,1815.7,2195.4,1814.5,2197.6,1811.9 M2163.7,1815v-29h-4.5l-10.3,6.4l2.3,3.7l7.4-4.5v23.4
			H2163.7z"/>
	</g>
	<g>
		<defs>
			<rect id="SVGID_00000093172074107141050320000010344470601479055511_" y="0" width="3072" height="1920"/>
		</defs>
		<clipPath id="SVGID_00000004516504337887431800000007011053428368455576_">
			<use xlink:href="#SVGID_00000093172074107141050320000010344470601479055511_"  style="overflow:visible;"/>
		</clipPath>
		<path style="clip-path:url(#SVGID_00000004516504337887431800000007011053428368455576_);fill:#FFFFFF;" d="M2497.6,1745.2
			c-1.3,1-3,1.5-5.1,1.5c-4.6,0-6.9-1.8-6.9-5.5c0-1.7,0.6-3.1,1.9-4.2c1.3-1.1,3-1.6,5.1-1.6c2,0,3.7,0.6,5,1.7s1.9,2.5,1.9,4.3
			C2499.5,1742.9,2498.8,1744.2,2497.6,1745.2 M2499.9,1747.8c-0.2,3.4-0.9,5.8-2.1,7.4c-1.2,1.6-2.9,2.3-5.2,2.3
			c-1.9,0-3.3-0.3-4.3-0.8s-1.7-1.4-2-2.6h-5c0.3,2.5,1.4,4.4,3.3,5.7c1.9,1.3,4.6,1.9,8,1.9c4,0,7.1-1.4,9.2-4.2s3.2-6.8,3.2-12
			c0-4.7-1-8.3-3.1-10.7c-2.1-2.5-5.1-3.7-9.2-3.7c-2.4,0-4.6,0.4-6.4,1.3c-1.8,0.9-3.2,2-4.2,3.5s-1.4,3.2-1.4,5.2c0,3,1,5.3,2.9,7
			c1.9,1.6,4.6,2.5,8.1,2.5c3.8,0,6.5-1.1,8.4-3.4L2499.9,1747.8z M2457.8,1754.8c-1.2-1.8-1.8-4.5-1.8-8.3s0.6-6.5,1.8-8.3
			s3.1-2.7,5.7-2.7s4.5,0.9,5.7,2.7c1.2,1.8,1.8,4.5,1.8,8.3s-0.6,6.5-1.8,8.3s-3.1,2.7-5.7,2.7S2459.1,1756.5,2457.8,1754.8
			 M2473,1757.9c2.2-2.6,3.3-6.4,3.3-11.4c0-10.2-4.3-15.2-12.8-15.2c-4.2,0-7.3,1.3-9.5,3.9s-3.3,6.4-3.3,11.4
			c0,10.2,4.3,15.2,12.8,15.2C2467.7,1761.7,2470.9,1760.5,2473,1757.9 M2428.4,1754.8c-1.2-1.8-1.8-4.5-1.8-8.3s0.6-6.5,1.8-8.3
			s3.1-2.7,5.7-2.7c2.6,0,4.5,0.9,5.7,2.7c1.2,1.8,1.8,4.5,1.8,8.3s-0.6,6.5-1.8,8.3s-3.1,2.7-5.7,2.7
			C2431.6,1757.4,2429.7,1756.5,2428.4,1754.8 M2443.6,1757.9c2.2-2.6,3.3-6.4,3.3-11.4c0-10.2-4.3-15.2-12.8-15.2
			c-4.2,0-7.3,1.3-9.5,3.9s-3.3,6.4-3.3,11.4c0,10.2,4.3,15.2,12.8,15.2C2438.3,1761.7,2441.5,1760.5,2443.6,1757.9 M2409.7,1761
			v-29h-4.5l-10.3,6.4l2.3,3.7l7.4-4.5v23.4H2409.7z M2390,1746.4h-25.6v4.4h25.6V1746.4z M2348.5,1761c3-9,7.2-17.4,12.6-25.2v-3.9
			h-24v4.3h18.4c-5.1,7.5-9.2,15.7-12.3,24.7L2348.5,1761L2348.5,1761z M2319.1,1761c3-9,7.2-17.4,12.6-25.2v-3.9h-24v4.3h18.4
			c-5.1,7.5-9.2,15.7-12.3,24.7L2319.1,1761L2319.1,1761z M2301,1736.3v-4.3h-19.4l-1.4,16.4h4.3c0.8-0.8,1.7-1.3,2.8-1.7
			c1.1-0.4,2.4-0.5,3.9-0.5c4.6,0,6.9,1.8,6.9,5.5c0,3.9-2.3,5.9-6.8,5.9c-1.4,0-2.6-0.1-3.5-0.4s-1.6-0.7-2.2-1.4
			c-0.5-0.7-1-1.5-1.2-2.7h-5c0.4,2.9,1.5,5.1,3.5,6.5s4.8,2.2,8.5,2.2s6.6-0.9,8.6-2.6c2-1.8,3-4.3,3-7.5c0-3-0.9-5.3-2.8-6.9
			c-1.9-1.7-4.5-2.5-7.9-2.5c-1.7,0-3,0.1-4.1,0.4s-2.1,0.7-3.3,1.4l0.7-7.7h15.4V1736.3z M2266.5,1761v-29h-4.5l-10.3,6.4l2.3,3.7
			l7.4-4.5v23.4H2266.5z M2243.6,1755h-5.2v6h5.2V1755z M2233.3,1761l0.8-4.5h-19V1731h-5.3v30H2233.3z M2203.1,1761l0.8-4.5h-20
			v-8.7h18.2v-4.5h-18.2v-7.8h19.1v-4.5h-24.4v30H2203.1z M2162,1761v-25.5h12.1v-4.5h-29.5v4.5h12.1v25.5H2162z"/>
	</g>
</g>
<rect x="466" y="428.7" class="st1" width="34" height="203.3"/>
<rect x="466" y="428.7" class="st16" width="34" height="203.3"/>
<rect x="670.7" y="428.7" class="st1" width="34.1" height="203.3"/>
<rect x="670.7" y="428.7" class="st16" width="34.1" height="203.3"/>
<rect x="534.3" y="428.7" class="st1" width="33.8" height="203.3"/>
<rect x="534.3" y="428.7" class="st16" width="33.8" height="203.3"/>
<rect x="602.4" y="428.7" class="st1" width="34" height="203.3"/>
<rect x="602.4" y="428.7" class="st16" width="34" height="203.3"/>
<rect x="732.2" y="428.7" class="st1" width="40.8" height="203.3"/>
<rect x="732.2" y="428.7" class="st16" width="40.8" height="203.3"/>
<rect x="800.4" y="428.7" class="st1" width="40.6" height="203.3"/>
<rect x="800.4" y="428.7" class="st16" width="40.6" height="203.3"/>
<rect x="868.6" y="428.7" class="st1" width="40.6" height="203.3"/>
<rect x="868.6" y="428.7" class="st16" width="40.6" height="203.3"/>
<rect x="131.6" y="428.7" class="st1" width="27.2" height="203.3"/>
<rect x="131.6" y="428.7" class="st16" width="27.2" height="203.3"/>
<rect x="199.8" y="428.7" class="st1" width="27.2" height="203.3"/>
<rect x="199.8" y="428.7" class="st16" width="27.2" height="203.3"/>
<rect x="397.7" y="428.7" class="st1" width="34" height="203.3"/>
<rect x="397.7" y="428.7" class="st16" width="34" height="203.3"/>
<rect x="268.2" y="428.7" class="st1" width="27.1" height="203.3"/>
<rect x="268.2" y="428.7" class="st16" width="27.1" height="203.3"/>
<rect x="336.5" y="428.7" class="st1" width="26.9" height="203.3"/>
<rect x="336.5" y="428.7" class="st16" width="26.9" height="203.3"/>
<rect x="63.3" y="428.7" class="st1" width="27.2" height="203.3"/>
<rect x="63.3" y="428.7" class="st16" width="27.2" height="203.3"/>
<rect x="1427.9" y="428.7" class="st1" width="27.6" height="203.3"/>
<rect x="1427.9" y="428.7" class="st16" width="27.6" height="203.3"/>
<rect x="937.1" y="428.7" class="st1" width="40.6" height="203.3"/>
<rect x="937.1" y="428.7" class="st16" width="40.6" height="203.3"/>
<rect x="1496" y="428.7" class="st1" width="27.8" height="203.3"/>
<rect x="1496" y="428.7" class="st16" width="27.8" height="203.3"/>
<rect x="1141.5" y="428.7" class="st1" width="40.9" height="203.3"/>
<rect x="1141.5" y="428.7" class="st16" width="40.9" height="203.3"/>
<rect x="1352.7" y="428.7" class="st1" width="34.7" height="203.3"/>
<rect x="1352.7" y="428.7" class="st16" width="34.7" height="203.3"/>
<rect x="1005.2" y="428.7" class="st1" width="40.8" height="203.3"/>
<rect x="1005.2" y="428.7" class="st16" width="40.8" height="203.3"/>
<rect x="1073.5" y="428.7" class="st1" width="40.6" height="203.3"/>
<rect x="1073.5" y="428.7" class="st16" width="40.6" height="203.3"/>
<rect x="1209.8" y="428.7" class="st1" width="40.9" height="203.3"/>
<rect x="1209.8" y="428.7" class="st16" width="40.9" height="203.3"/>
<rect x="1278.3" y="428.7" class="st1" width="40.7" height="203.3"/>
<rect x="1278.3" y="428.7" class="st16" width="40.7" height="203.3"/>
<rect x="615.9" y="632" class="st1" width="20.6" height="203.3"/>
<rect x="615.9" y="632" class="st16" width="20.6" height="203.3"/>
<rect x="547.7" y="632" class="st1" width="20.4" height="203.3"/>
<rect x="547.7" y="632" class="st16" width="20.4" height="203.3"/>
<rect x="486.3" y="632" class="st1" width="13.7" height="203.3"/>
<rect x="486.3" y="632" class="st16" width="13.7" height="203.3"/>
<rect x="745.8" y="632" class="st1" width="27.3" height="203.3"/>
<rect x="745.8" y="632" class="st16" width="27.3" height="203.3"/>
<rect x="813.8" y="632" class="st1" width="27.1" height="203.3"/>
<rect x="813.8" y="632" class="st16" width="27.1" height="203.3"/>
<rect x="684.1" y="632" class="st1" width="20.7" height="203.3"/>
<rect x="684.1" y="632" class="st16" width="20.7" height="203.3"/>
<rect x="418" y="632" class="st1" width="13.7" height="203.3"/>
<rect x="418" y="632" class="st16" width="13.7" height="203.3"/>
<rect x="76.9" y="632" class="st1" width="13.6" height="203.3"/>
<rect x="76.9" y="632" class="st16" width="13.6" height="203.3"/>
<rect x="145.1" y="632" class="st1" width="13.7" height="203.3"/>
<rect x="145.1" y="632" class="st16" width="13.7" height="203.3"/>
<rect x="349.9" y="632" class="st1" width="13.5" height="203.3"/>
<rect x="349.9" y="632" class="st16" width="13.5" height="203.3"/>
<rect x="213.3" y="632" class="st1" width="13.7" height="203.3"/>
<rect x="213.3" y="632" class="st16" width="13.7" height="203.3"/>
<rect x="281.8" y="632" class="st1" width="13.5" height="203.3"/>
<rect x="281.8" y="632" class="st16" width="13.5" height="203.3"/>
<rect x="882.1" y="632" class="st1" width="27.1" height="203.3"/>
<rect x="882.1" y="632" class="st16" width="27.1" height="203.3"/>
<rect x="943.5" y="632" class="st1" width="34.2" height="203.3"/>
<rect x="943.5" y="632" class="st16" width="34.2" height="203.3"/>
<rect x="1414.7" y="632" class="st1" width="40.8" height="203.3"/>
<rect x="1414.7" y="632" class="st16" width="40.8" height="203.3"/>
<rect x="1482.9" y="632" class="st1" width="40.8" height="203.3"/>
<rect x="1482.9" y="632" class="st16" width="40.8" height="203.3"/>
<rect x="1079.9" y="632" class="st1" width="34.2" height="203.3"/>
<rect x="1079.9" y="632" class="st16" width="34.2" height="203.3"/>
<rect x="1011.7" y="632" class="st1" width="34.3" height="203.3"/>
<rect x="1011.7" y="632" class="st16" width="34.3" height="203.3"/>
<rect x="1148.3" y="632" class="st1" width="34.2" height="203.3"/>
<rect x="1148.3" y="632" class="st16" width="34.2" height="203.3"/>
<rect x="1216.5" y="632" class="st1" width="34.2" height="203.3"/>
<rect x="1216.5" y="632" class="st16" width="34.2" height="203.3"/>
<rect x="1346.6" y="632" class="st1" width="40.7" height="203.3"/>
<rect x="1346.6" y="632" class="st16" width="40.7" height="203.3"/>
<rect x="1278.3" y="632" class="st1" width="40.7" height="203.3"/>
<rect x="1278.3" y="632" class="st16" width="40.7" height="203.3"/>
<rect x="554.6" y="835.3" class="st1" width="13.5" height="202.9"/>
<rect x="554.6" y="835.3" class="st16" width="13.5" height="202.9"/>
<polygon class="st1" points="486.3,835.3 486.3,1038.7 492.9,1038.7 500,1038.7 500,835.3 "/>
<polygon class="st16" points="486.3,835.3 486.3,1038.7 492.9,1038.7 500,1038.7 500,835.3 "/>
<rect x="895.7" y="835.3" class="st1" width="13.5" height="203"/>
<rect x="895.7" y="835.3" class="st16" width="13.5" height="203"/>
<rect x="827.5" y="835.3" class="st1" width="13.5" height="203"/>
<rect x="827.5" y="835.3" class="st16" width="13.5" height="203"/>
<rect x="759.2" y="835.3" class="st1" width="13.8" height="202.8"/>
<rect x="759.2" y="835.3" class="st16" width="13.8" height="202.8"/>
<rect x="691.1" y="835.3" class="st1" width="13.6" height="202.9"/>
<rect x="691.1" y="835.3" class="st16" width="13.6" height="202.9"/>
<rect x="622.9" y="835.3" class="st1" width="13.5" height="202.9"/>
<rect x="622.9" y="835.3" class="st16" width="13.5" height="202.9"/>
<g>
	<g>
		<defs>
			<rect id="SVGID_00000178907632735788728790000012870398726718048165_" y="0" width="3072" height="1920"/>
		</defs>
		<clipPath id="SVGID_00000139294223222049525910000017274218023200834961_">
			<use xlink:href="#SVGID_00000178907632735788728790000012870398726718048165_"  style="overflow:visible;"/>
		</clipPath>
		<path style="clip-path:url(#SVGID_00000139294223222049525910000017274218023200834961_);fill:#FFFFFF;" d="M151.8,835.3v203.1
			c1.6,0.1,2.6,0.3,3.6,0.2c1-0.1,1.9-0.4,3.4-0.7V835.3H151.8z"/>
	</g>
	<g>
		<defs>
			<rect id="SVGID_00000075144405886341615040000013671577665352799644_" y="0" width="3072" height="1920"/>
		</defs>
		<clipPath id="SVGID_00000101819140614580065300000011236751503481549989_">
			<use xlink:href="#SVGID_00000075144405886341615040000013671577665352799644_"  style="overflow:visible;"/>
		</clipPath>
		
			<path style="clip-path:url(#SVGID_00000101819140614580065300000011236751503481549989_);fill:none;stroke:#FFFFFF;stroke-width:0.5;stroke-miterlimit:10;" d="
			M151.8,835.3v203.1c1.6,0.1,2.6,0.3,3.6,0.2c1-0.1,1.9-0.4,3.4-0.7V835.3H151.8z"/>
	</g>
</g>
<rect x="418" y="835.3" class="st1" width="13.7" height="202.9"/>
<rect x="418" y="835.3" class="st16" width="13.7" height="202.9"/>
<rect x="83.4" y="835.3" class="st1" width="7.1" height="202.9"/>
<rect x="83.4" y="835.3" class="st16" width="7.1" height="202.9"/>
<rect x="220" y="835.3" class="st1" width="7" height="202.8"/>
<rect x="220" y="835.3" class="st16" width="7" height="202.8"/>
<rect x="349.9" y="835.3" class="st1" width="13.5" height="203"/>
<rect x="349.9" y="835.3" class="st16" width="13.5" height="203"/>
<rect x="288.3" y="835.3" class="st1" width="6.9" height="203.1"/>
<rect x="288.3" y="835.3" class="st16" width="6.9" height="203.1"/>
<rect x="1223.2" y="835.3" class="st1" width="27.5" height="202.8"/>
<rect x="1223.2" y="835.3" class="st16" width="27.5" height="202.8"/>
<rect x="964.2" y="835.3" class="st1" width="13.5" height="202.9"/>
<rect x="964.2" y="835.3" class="st16" width="13.5" height="202.9"/>
<rect x="1489.6" y="835.3" class="st1" width="34.1" height="202.8"/>
<rect x="1489.6" y="835.3" class="st16" width="34.1" height="202.8"/>
<rect x="1421.2" y="835.3" class="st1" width="34.3" height="202.8"/>
<rect x="1421.2" y="835.3" class="st16" width="34.3" height="202.8"/>
<rect x="1093.5" y="835.3" class="st1" width="20.6" height="202.9"/>
<rect x="1093.5" y="835.3" class="st16" width="20.6" height="202.9"/>
<rect x="1025.3" y="835.3" class="st1" width="20.7" height="202.9"/>
<rect x="1025.3" y="835.3" class="st16" width="20.7" height="202.9"/>
<rect x="1291.7" y="835.3" class="st1" width="27.3" height="202.8"/>
<rect x="1291.7" y="835.3" class="st16" width="27.3" height="202.8"/>
<rect x="1161.9" y="835.3" class="st1" width="20.5" height="202.8"/>
<rect x="1161.9" y="835.3" class="st16" width="20.5" height="202.8"/>
<rect x="1359.9" y="835.3" class="st1" width="27.4" height="202.8"/>
<rect x="1359.9" y="835.3" class="st16" width="27.4" height="202.8"/>
<rect x="622.2" y="1038.7" class="st1" width="14.3" height="203.3"/>
<rect x="622.2" y="1038.7" class="st16" width="14.3" height="203.3"/>
<rect x="554" y="1038.7" class="st1" width="14.1" height="203.3"/>
<rect x="554" y="1038.7" class="st16" width="14.1" height="203.3"/>
<rect x="485.8" y="1038.7" class="st1" width="14.2" height="203.3"/>
<rect x="485.8" y="1038.7" class="st16" width="14.2" height="203.3"/>
<rect x="813.3" y="1038.7" class="st1" width="27.7" height="203.3"/>
<rect x="813.3" y="1038.7" class="st16" width="27.7" height="203.3"/>
<rect x="881.4" y="1038.7" class="st1" width="27.8" height="203.3"/>
<rect x="881.4" y="1038.7" class="st16" width="27.8" height="203.3"/>
<g>
	<g>
		<defs>
			<rect id="SVGID_00000129192704585555535590000009483996304891014294_" y="0" width="3072" height="1920"/>
		</defs>
		<clipPath id="SVGID_00000129172933959129927050000014383510712862322619_">
			<use xlink:href="#SVGID_00000129192704585555535590000009483996304891014294_"  style="overflow:visible;"/>
		</clipPath>
		<path style="clip-path:url(#SVGID_00000129172933959129927050000014383510712862322619_);fill:#FFFFFF;" d="M684.2,1038.7V1242
			h20.6c0-25.6,0-51.1,0-76.7c0-42.2,0-84.4,0-126.7L684.2,1038.7L684.2,1038.7z"/>
	</g>
	<g>
		<defs>
			<rect id="SVGID_00000018197259156477982660000007795732912253384620_" y="0" width="3072" height="1920"/>
		</defs>
		<clipPath id="SVGID_00000066516763685880791240000008773144078827973285_">
			<use xlink:href="#SVGID_00000018197259156477982660000007795732912253384620_"  style="overflow:visible;"/>
		</clipPath>
		
			<path style="clip-path:url(#SVGID_00000066516763685880791240000008773144078827973285_);fill:none;stroke:#FFFFFF;stroke-width:0.5;stroke-miterlimit:10;" d="
			M684.2,1038.7V1242h20.6c0-25.6,0-51.1,0-76.7c0-42.2,0-84.4,0-126.7L684.2,1038.7L684.2,1038.7z"/>
	</g>
</g>
<rect x="752.1" y="1038.7" class="st1" width="21" height="203.3"/>
<rect x="752.1" y="1038.7" class="st16" width="21" height="203.3"/>
<rect x="151.3" y="1038.7" class="st1" width="7.5" height="203.3"/>
<rect x="151.3" y="1038.7" class="st16" width="7.5" height="203.3"/>
<rect x="219.8" y="1038.7" class="st1" width="7.3" height="203.3"/>
<rect x="219.8" y="1038.7" class="st16" width="7.3" height="203.3"/>
<rect x="83.3" y="1038.7" class="st1" width="7.2" height="203.3"/>
<rect x="83.3" y="1038.7" class="st16" width="7.2" height="203.3"/>
<rect x="288.1" y="1038.7" class="st1" width="7.1" height="203.3"/>
<rect x="288.1" y="1038.7" class="st16" width="7.1" height="203.3"/>
<rect x="424.3" y="1038.7" class="st1" width="7.4" height="203.3"/>
<rect x="424.3" y="1038.7" class="st16" width="7.4" height="203.3"/>
<rect x="356" y="1038.7" class="st1" width="7.4" height="203.3"/>
<rect x="356" y="1038.7" class="st16" width="7.4" height="203.3"/>
<rect x="1509.9" y="1038.7" class="st1" width="13.9" height="203.3"/>
<rect x="1509.9" y="1038.7" class="st16" width="13.9" height="203.3"/>
<rect x="1441.5" y="1038.7" class="st1" width="14" height="203.3"/>
<rect x="1441.5" y="1038.7" class="st16" width="14" height="203.3"/>
<rect x="950.2" y="1038.7" class="st1" width="27.5" height="203.3"/>
<rect x="950.2" y="1038.7" class="st16" width="27.5" height="203.3"/>
<rect x="1366.3" y="1038.7" class="st1" width="21.1" height="203.3"/>
<rect x="1366.3" y="1038.7" class="st16" width="21.1" height="203.3"/>
<rect x="1086.2" y="1038.7" class="st1" width="27.9" height="203.3"/>
<rect x="1086.2" y="1038.7" class="st16" width="27.9" height="203.3"/>
<rect x="1018.4" y="1038.7" class="st1" width="27.6" height="203.3"/>
<rect x="1018.4" y="1038.7" class="st16" width="27.6" height="203.3"/>
<rect x="1229.7" y="1038.7" class="st1" width="21" height="203.3"/>
<rect x="1229.7" y="1038.7" class="st16" width="21" height="203.3"/>
<rect x="1298.1" y="1038.7" class="st1" width="20.9" height="203.3"/>
<rect x="1298.1" y="1038.7" class="st16" width="20.9" height="203.3"/>
<rect x="1154.7" y="1038.7" class="st1" width="27.7" height="203.3"/>
<rect x="1154.7" y="1038.7" class="st16" width="27.7" height="203.3"/>
<rect x="527.4" y="1242" class="st1" width="40.7" height="203.3"/>
<rect x="527.4" y="1242" class="st16" width="40.7" height="203.3"/>
<rect x="602" y="1242" class="st1" width="34.2" height="203.3"/>
<rect x="602" y="1242" class="st16" width="34.2" height="203.3"/>
<rect x="459.3" y="1242" class="st1" width="40.7" height="203.3"/>
<rect x="459.3" y="1242" class="st16" width="40.7" height="203.3"/>
<rect x="738.8" y="1242" class="st1" width="34.2" height="203.3"/>
<rect x="738.8" y="1242" class="st16" width="34.2" height="203.3"/>
<rect x="670.6" y="1242" class="st1" width="34.2" height="203.3"/>
<rect x="670.6" y="1242" class="st16" width="34.2" height="203.3"/>
<rect x="254.7" y="1242" class="st1" width="40.6" height="203.3"/>
<rect x="254.7" y="1242" class="st16" width="40.6" height="203.3"/>
<rect x="118.1" y="1242" class="st1" width="40.7" height="203.3"/>
<rect x="118.1" y="1242" class="st16" width="40.7" height="203.3"/>
<rect x="186.6" y="1242" class="st1" width="40.4" height="203.3"/>
<rect x="186.6" y="1242" class="st16" width="40.4" height="203.3"/>
<rect x="390.9" y="1242" class="st1" width="40.8" height="203.3"/>
<rect x="390.9" y="1242" class="st16" width="40.8" height="203.3"/>
<rect x="50" y="1242" class="st1" width="40.5" height="203.3"/>
<rect x="50" y="1242" class="st16" width="40.5" height="203.3"/>
<rect x="874.6" y="1242" class="st1" width="34.2" height="203.3"/>
<rect x="874.6" y="1242" class="st16" width="34.2" height="203.3"/>
<rect x="322.5" y="1242" class="st1" width="40.8" height="203.3"/>
<rect x="322.5" y="1242" class="st16" width="40.8" height="203.3"/>
<rect x="806.7" y="1242" class="st1" width="34.3" height="203.3"/>
<rect x="806.7" y="1242" class="st16" width="34.3" height="203.3"/>
<rect x="1441.8" y="1242" class="st1" width="13.7" height="203.3"/>
<rect x="1441.8" y="1242" class="st16" width="13.7" height="203.3"/>
<rect x="1510.2" y="1242" class="st1" width="13.5" height="203.3"/>
<rect x="1510.2" y="1242" class="st16" width="13.5" height="203.3"/>
<rect x="1298.6" y="1242" class="st1" width="20.4" height="203.3"/>
<rect x="1298.6" y="1242" class="st16" width="20.4" height="203.3"/>
<rect x="1086.8" y="1242" class="st1" width="27.3" height="203.3"/>
<rect x="1086.8" y="1242" class="st16" width="27.3" height="203.3"/>
<rect x="1018.9" y="1242" class="st1" width="27.1" height="203.3"/>
<rect x="1018.9" y="1242" class="st16" width="27.1" height="203.3"/>
<rect x="1161.7" y="1242" class="st1" width="20.7" height="203.3"/>
<rect x="1161.7" y="1242" class="st16" width="20.7" height="203.3"/>
<rect x="950.7" y="1242" class="st1" width="27.1" height="203.3"/>
<rect x="950.7" y="1242" class="st16" width="27.1" height="203.3"/>
<rect x="1373.6" y="1242" class="st1" width="13.7" height="203.3"/>
<rect x="1373.6" y="1242" class="st16" width="13.7" height="203.3"/>
<rect x="1230.2" y="1242" class="st1" width="20.6" height="203.3"/>
<rect x="1230.2" y="1242" class="st16" width="20.6" height="203.3"/>
<rect x="608.6" y="1445.3" class="st1" width="27.5" height="202.9"/>
<rect x="608.6" y="1445.3" class="st16" width="27.5" height="202.9"/>
<rect x="684.3" y="1445.3" class="st1" width="20.5" height="202.9"/>
<rect x="684.3" y="1445.3" class="st16" width="20.5" height="202.9"/>
<rect x="540.8" y="1445.3" class="st1" width="27.3" height="202.9"/>
<rect x="540.8" y="1445.3" class="st16" width="27.3" height="202.9"/>
<rect x="895.3" y="1445.3" class="st1" width="13.5" height="202.9"/>
<rect x="895.3" y="1445.3" class="st16" width="13.5" height="202.9"/>
<rect x="752.5" y="1445.3" class="st1" width="20.6" height="203"/>
<rect x="752.5" y="1445.3" class="st16" width="20.6" height="203"/>
<rect x="472.6" y="1445.3" class="st1" width="27.4" height="202.9"/>
<rect x="472.6" y="1445.3" class="st16" width="27.4" height="202.9"/>
<rect x="820.3" y="1445.3" class="st1" width="20.7" height="202.9"/>
<rect x="820.3" y="1445.3" class="st16" width="20.7" height="202.9"/>
<rect x="397.4" y="1445.3" class="st1" width="34.3" height="202.9"/>
<rect x="397.4" y="1445.3" class="st16" width="34.3" height="202.9"/>
<rect x="192.9" y="1445.3" class="st1" width="34.1" height="203"/>
<rect x="192.9" y="1445.3" class="st16" width="34.1" height="203"/>
<rect x="50" y="1445.3" class="st1" width="40.5" height="203"/>
<rect x="50" y="1445.3" class="st16" width="40.5" height="203"/>
<rect x="329.2" y="1445.3" class="st1" width="34.1" height="202.9"/>
<rect x="329.2" y="1445.3" class="st16" width="34.1" height="202.9"/>
<rect x="261.2" y="1445.3" class="st1" width="34.1" height="202.8"/>
<rect x="261.2" y="1445.3" class="st16" width="34.1" height="202.8"/>
<rect x="124.5" y="1445.3" class="st1" width="34.3" height="202.9"/>
<rect x="124.5" y="1445.3" class="st16" width="34.3" height="202.9"/>
<rect x="1510.2" y="1445.3" class="st1" width="13.5" height="203"/>
<rect x="1510.2" y="1445.3" class="st16" width="13.5" height="203"/>
<rect x="1441.8" y="1445.3" class="st1" width="13.7" height="202.9"/>
<rect x="1441.8" y="1445.3" class="st16" width="13.7" height="202.9"/>
<rect x="1305.5" y="1445.3" class="st1" width="13.5" height="202.9"/>
<rect x="1305.5" y="1445.3" class="st16" width="13.5" height="202.9"/>
<rect x="1100.3" y="1445.3" class="st1" width="13.8" height="202.9"/>
<rect x="1100.3" y="1445.3" class="st16" width="13.8" height="202.9"/>
<polygon class="st1" points="1373.6,1445.3 1373.6,1648.6 1380.7,1648.6 1387.3,1648.6 1387.3,1445.3 "/>
<polygon class="st16" points="1373.6,1445.3 1373.6,1648.6 1380.7,1648.6 1387.3,1648.6 1387.3,1445.3 "/>
<rect x="1168.8" y="1445.3" class="st1" width="13.6" height="202.9"/>
<rect x="1168.8" y="1445.3" class="st16" width="13.6" height="202.9"/>
<rect x="1032.5" y="1445.3" class="st1" width="13.5" height="203"/>
<rect x="1032.5" y="1445.3" class="st16" width="13.5" height="203"/>
<rect x="964.2" y="1445.3" class="st1" width="13.5" height="203"/>
<rect x="964.2" y="1445.3" class="st16" width="13.5" height="203"/>
<rect x="1237.2" y="1445.3" class="st1" width="13.5" height="203"/>
<rect x="1237.2" y="1445.3" class="st16" width="13.5" height="203"/>
<rect x="1964.3" y="632" class="st1" width="34" height="203.3"/>
<rect x="1964.3" y="632" class="st16" width="34" height="203.3"/>
<rect x="2168.9" y="632" class="st1" width="34.1" height="203.3"/>
<rect x="2168.9" y="632" class="st16" width="34.1" height="203.3"/>
<rect x="2032.6" y="632" class="st1" width="33.8" height="203.3"/>
<rect x="2032.6" y="632" class="st16" width="33.8" height="203.3"/>
<rect x="2100.7" y="632" class="st1" width="34" height="203.3"/>
<rect x="2100.7" y="632" class="st16" width="34" height="203.3"/>
<rect x="2230.5" y="632" class="st1" width="40.8" height="203.3"/>
<rect x="2230.5" y="632" class="st16" width="40.8" height="203.3"/>
<rect x="2298.7" y="632" class="st1" width="40.6" height="203.3"/>
<rect x="2298.7" y="632" class="st16" width="40.6" height="203.3"/>
<rect x="2366.9" y="632" class="st1" width="40.6" height="203.3"/>
<rect x="2366.9" y="632" class="st16" width="40.6" height="203.3"/>
<rect x="1629.8" y="632" class="st1" width="27.2" height="203.3"/>
<rect x="1629.8" y="632" class="st16" width="27.2" height="203.3"/>
<rect x="1698.1" y="632" class="st1" width="27.2" height="203.3"/>
<rect x="1698.1" y="632" class="st16" width="27.2" height="203.3"/>
<rect x="1896" y="632" class="st1" width="34" height="203.3"/>
<rect x="1896" y="632" class="st16" width="34" height="203.3"/>
<rect x="1766.5" y="632" class="st1" width="27.1" height="203.3"/>
<rect x="1766.5" y="632" class="st16" width="27.1" height="203.3"/>
<rect x="1834.8" y="632" class="st1" width="26.9" height="203.3"/>
<rect x="1834.8" y="632" class="st16" width="26.9" height="203.3"/>
<rect x="1561.6" y="632" class="st1" width="27.2" height="203.3"/>
<rect x="1561.6" y="632" class="st16" width="27.2" height="203.3"/>
<rect x="2926.2" y="632" class="st1" width="27.6" height="203.3"/>
<rect x="2926.2" y="632" class="st16" width="27.6" height="203.3"/>
<rect x="2435.4" y="632" class="st1" width="40.6" height="203.3"/>
<rect x="2435.4" y="632" class="st16" width="40.6" height="203.3"/>
<rect x="2994.2" y="632" class="st1" width="27.8" height="203.3"/>
<rect x="2994.2" y="632" class="st16" width="27.8" height="203.3"/>
<rect x="2639.8" y="632" class="st1" width="40.9" height="203.3"/>
<rect x="2639.8" y="632" class="st16" width="40.9" height="203.3"/>
<rect x="2850.9" y="632" class="st1" width="34.7" height="203.3"/>
<rect x="2850.9" y="632" class="st16" width="34.7" height="203.3"/>
<rect x="2503.5" y="632" class="st1" width="40.8" height="203.3"/>
<rect x="2503.5" y="632" class="st16" width="40.8" height="203.3"/>
<rect x="2571.7" y="632" class="st1" width="40.6" height="203.3"/>
<rect x="2571.7" y="632" class="st16" width="40.6" height="203.3"/>
<rect x="2708.1" y="632" class="st1" width="40.9" height="203.3"/>
<rect x="2708.1" y="632" class="st16" width="40.9" height="203.3"/>
<rect x="2776.6" y="632" class="st1" width="40.7" height="203.3"/>
<rect x="2776.6" y="632" class="st16" width="40.7" height="203.3"/>
<rect x="2114.1" y="835.3" class="st1" width="20.6" height="203.3"/>
<rect x="2114.1" y="835.3" class="st16" width="20.6" height="203.3"/>
<rect x="2046" y="835.3" class="st1" width="20.4" height="203.3"/>
<rect x="2046" y="835.3" class="st16" width="20.4" height="203.3"/>
<rect x="1984.5" y="835.3" class="st1" width="13.7" height="203.3"/>
<rect x="1984.5" y="835.3" class="st16" width="13.7" height="203.3"/>
<rect x="2244" y="835.3" class="st1" width="27.3" height="203.3"/>
<rect x="2244" y="835.3" class="st16" width="27.3" height="203.3"/>
<rect x="2312.1" y="835.3" class="st1" width="27.1" height="203.3"/>
<rect x="2312.1" y="835.3" class="st16" width="27.1" height="203.3"/>
<rect x="2182.3" y="835.3" class="st1" width="20.7" height="203.3"/>
<rect x="2182.3" y="835.3" class="st16" width="20.7" height="203.3"/>
<rect x="1916.3" y="835.3" class="st1" width="13.7" height="203.3"/>
<rect x="1916.3" y="835.3" class="st16" width="13.7" height="203.3"/>
<rect x="1575.1" y="835.3" class="st1" width="13.6" height="203.3"/>
<rect x="1575.1" y="835.3" class="st16" width="13.6" height="203.3"/>
<rect x="1643.4" y="835.3" class="st1" width="13.7" height="203.3"/>
<rect x="1643.4" y="835.3" class="st16" width="13.7" height="203.3"/>
<rect x="1848.1" y="835.3" class="st1" width="13.5" height="203.3"/>
<rect x="1848.1" y="835.3" class="st16" width="13.5" height="203.3"/>
<rect x="1711.6" y="835.3" class="st1" width="13.7" height="203.3"/>
<rect x="1711.6" y="835.3" class="st16" width="13.7" height="203.3"/>
<rect x="1780.1" y="835.3" class="st1" width="13.5" height="203.3"/>
<rect x="1780.1" y="835.3" class="st16" width="13.5" height="203.3"/>
<rect x="2380.4" y="835.3" class="st1" width="27.1" height="203.3"/>
<rect x="2380.4" y="835.3" class="st16" width="27.1" height="203.3"/>
<rect x="2441.8" y="835.3" class="st1" width="34.2" height="203.3"/>
<rect x="2441.8" y="835.3" class="st16" width="34.2" height="203.3"/>
<rect x="2913" y="835.3" class="st1" width="40.8" height="203.3"/>
<rect x="2913" y="835.3" class="st16" width="40.8" height="203.3"/>
<rect x="2981.2" y="835.3" class="st1" width="40.8" height="203.3"/>
<rect x="2981.2" y="835.3" class="st16" width="40.8" height="203.3"/>
<rect x="2578.1" y="835.3" class="st1" width="34.2" height="203.3"/>
<rect x="2578.1" y="835.3" class="st16" width="34.2" height="203.3"/>
<rect x="2509.9" y="835.3" class="st1" width="34.3" height="203.3"/>
<rect x="2509.9" y="835.3" class="st16" width="34.3" height="203.3"/>
<rect x="2646.5" y="835.3" class="st1" width="34.2" height="203.3"/>
<rect x="2646.5" y="835.3" class="st16" width="34.2" height="203.3"/>
<rect x="2714.8" y="835.3" class="st1" width="34.2" height="203.3"/>
<rect x="2714.8" y="835.3" class="st16" width="34.2" height="203.3"/>
<rect x="2844.9" y="835.3" class="st1" width="40.7" height="203.3"/>
<rect x="2844.9" y="835.3" class="st16" width="40.7" height="203.3"/>
<rect x="2776.6" y="835.3" class="st1" width="40.7" height="203.3"/>
<rect x="2776.6" y="835.3" class="st16" width="40.7" height="203.3"/>
<rect x="2052.8" y="1038.7" class="st1" width="13.5" height="202.9"/>
<rect x="2052.8" y="1038.7" class="st16" width="13.5" height="202.9"/>
<polygon class="st1" points="1984.5,1038.7 1984.5,1242 1991.2,1242 1998.3,1242 1998.3,1038.7 "/>
<polygon class="st16" points="1984.5,1038.7 1984.5,1242 1991.2,1242 1998.3,1242 1998.3,1038.7 "/>
<rect x="2393.9" y="1038.7" class="st1" width="13.5" height="203"/>
<rect x="2393.9" y="1038.7" class="st16" width="13.5" height="203"/>
<rect x="2325.8" y="1038.7" class="st1" width="13.5" height="203"/>
<rect x="2325.8" y="1038.7" class="st16" width="13.5" height="203"/>
<rect x="2257.5" y="1038.7" class="st1" width="13.8" height="202.8"/>
<rect x="2257.5" y="1038.7" class="st16" width="13.8" height="202.8"/>
<rect x="2189.4" y="1038.7" class="st1" width="13.6" height="202.9"/>
<rect x="2189.4" y="1038.7" class="st16" width="13.6" height="202.9"/>
<rect x="2121.2" y="1038.7" class="st1" width="13.5" height="202.9"/>
<rect x="2121.2" y="1038.7" class="st16" width="13.5" height="202.9"/>
<g>
	<g>
		<defs>
			<rect id="SVGID_00000034084370558078728970000005696620747149453467_" y="0" width="3072" height="1920"/>
		</defs>
		<clipPath id="SVGID_00000167356685210267478610000004078755886819456191_">
			<use xlink:href="#SVGID_00000034084370558078728970000005696620747149453467_"  style="overflow:visible;"/>
		</clipPath>
		<path style="clip-path:url(#SVGID_00000167356685210267478610000004078755886819456191_);fill:#FFFFFF;" d="M1650.1,1038.7v203.1
			c1.6,0.1,2.6,0.3,3.6,0.2c1-0.1,1.9-0.4,3.4-0.7v-202.6H1650.1z"/>
	</g>
	<g>
		<defs>
			<rect id="SVGID_00000047056509775092424680000002514269502389598127_" y="0" width="3072" height="1920"/>
		</defs>
		<clipPath id="SVGID_00000155132975202372043020000017280479351007011457_">
			<use xlink:href="#SVGID_00000047056509775092424680000002514269502389598127_"  style="overflow:visible;"/>
		</clipPath>
		
			<path style="clip-path:url(#SVGID_00000155132975202372043020000017280479351007011457_);fill:none;stroke:#FFFFFF;stroke-width:0.5;stroke-miterlimit:10;" d="
			M1650.1,1038.7v203.1c1.6,0.1,2.6,0.3,3.6,0.2c1-0.1,1.9-0.4,3.4-0.7v-202.6H1650.1z"/>
	</g>
</g>
<rect x="1916.3" y="1038.7" class="st1" width="13.7" height="202.9"/>
<rect x="1916.3" y="1038.7" class="st16" width="13.7" height="202.9"/>
<rect x="1581.7" y="1038.7" class="st1" width="7.1" height="202.9"/>
<rect x="1581.7" y="1038.7" class="st16" width="7.1" height="202.9"/>
<rect x="1718.3" y="1038.7" class="st1" width="7" height="202.8"/>
<rect x="1718.3" y="1038.7" class="st16" width="7" height="202.8"/>
<rect x="1848.1" y="1038.7" class="st1" width="13.5" height="203"/>
<rect x="1848.1" y="1038.7" class="st16" width="13.5" height="203"/>
<rect x="1786.6" y="1038.7" class="st1" width="6.9" height="203.1"/>
<rect x="1786.6" y="1038.7" class="st16" width="6.9" height="203.1"/>
<rect x="2721.4" y="1038.7" class="st1" width="27.5" height="202.8"/>
<rect x="2721.4" y="1038.7" class="st16" width="27.5" height="202.8"/>
<rect x="2462.5" y="1038.7" class="st1" width="13.5" height="202.9"/>
<rect x="2462.5" y="1038.7" class="st16" width="13.5" height="202.9"/>
<rect x="2987.9" y="1038.7" class="st1" width="34.1" height="202.8"/>
<rect x="2987.9" y="1038.7" class="st16" width="34.1" height="202.8"/>
<rect x="2919.4" y="1038.7" class="st1" width="34.3" height="202.8"/>
<rect x="2919.4" y="1038.7" class="st16" width="34.3" height="202.8"/>
<rect x="2591.8" y="1038.7" class="st1" width="20.6" height="202.9"/>
<rect x="2591.8" y="1038.7" class="st16" width="20.6" height="202.9"/>
<rect x="2523.6" y="1038.7" class="st1" width="20.7" height="202.9"/>
<rect x="2523.6" y="1038.7" class="st16" width="20.7" height="202.9"/>
<rect x="2790" y="1038.7" class="st1" width="27.3" height="202.8"/>
<rect x="2790" y="1038.7" class="st16" width="27.3" height="202.8"/>
<rect x="2660.2" y="1038.7" class="st1" width="20.5" height="202.8"/>
<rect x="2660.2" y="1038.7" class="st16" width="20.5" height="202.8"/>
<rect x="2858.1" y="1038.7" class="st1" width="27.4" height="202.8"/>
<rect x="2858.1" y="1038.7" class="st16" width="27.4" height="202.8"/>
<rect x="2120.4" y="1242" class="st1" width="14.3" height="203.3"/>
<rect x="2120.4" y="1242" class="st16" width="14.3" height="203.3"/>
<rect x="2052.2" y="1242" class="st1" width="14.1" height="203.3"/>
<rect x="2052.2" y="1242" class="st16" width="14.1" height="203.3"/>
<rect x="1984.1" y="1242" class="st1" width="14.2" height="203.3"/>
<rect x="1984.1" y="1242" class="st16" width="14.2" height="203.3"/>
<rect x="2311.5" y="1242" class="st1" width="27.7" height="203.3"/>
<rect x="2311.5" y="1242" class="st16" width="27.7" height="203.3"/>
<rect x="2379.7" y="1242" class="st1" width="27.8" height="203.3"/>
<rect x="2379.7" y="1242" class="st16" width="27.8" height="203.3"/>
<g>
	<g>
		<defs>
			<rect id="SVGID_00000163066792955331334480000005970155519498857123_" y="0" width="3072" height="1920"/>
		</defs>
		<clipPath id="SVGID_00000149359027875924658150000014959027311931753652_">
			<use xlink:href="#SVGID_00000163066792955331334480000005970155519498857123_"  style="overflow:visible;"/>
		</clipPath>
		<path style="clip-path:url(#SVGID_00000149359027875924658150000014959027311931753652_);fill:#FFFFFF;" d="M2182.5,1242v203.3
			h20.6c0-25.6,0-51.1,0-76.7c0-42.2,0-84.4,0-126.7L2182.5,1242L2182.5,1242z"/>
	</g>
	<g>
		<defs>
			<rect id="SVGID_00000109027484523334323730000012700250492219672998_" y="0" width="3072" height="1920"/>
		</defs>
		<clipPath id="SVGID_00000170986019820637696860000006677914822063361448_">
			<use xlink:href="#SVGID_00000109027484523334323730000012700250492219672998_"  style="overflow:visible;"/>
		</clipPath>
		
			<path style="clip-path:url(#SVGID_00000170986019820637696860000006677914822063361448_);fill:none;stroke:#FFFFFF;stroke-width:0.5;stroke-miterlimit:10;" d="
			M2182.5,1242v203.3h20.6c0-25.6,0-51.1,0-76.7c0-42.2,0-84.4,0-126.7L2182.5,1242L2182.5,1242z"/>
	</g>
</g>
<rect x="2250.3" y="1242" class="st1" width="21" height="203.3"/>
<rect x="2250.3" y="1242" class="st16" width="21" height="203.3"/>
<rect x="1649.6" y="1242" class="st1" width="7.5" height="203.3"/>
<rect x="1649.6" y="1242" class="st16" width="7.5" height="203.3"/>
<rect x="1718" y="1242" class="st1" width="7.3" height="203.3"/>
<rect x="1718" y="1242" class="st16" width="7.3" height="203.3"/>
<rect x="1581.6" y="1242" class="st1" width="7.2" height="203.3"/>
<rect x="1581.6" y="1242" class="st16" width="7.2" height="203.3"/>
<rect x="1786.4" y="1242" class="st1" width="7.1" height="203.3"/>
<rect x="1786.4" y="1242" class="st16" width="7.1" height="203.3"/>
<rect x="1922.6" y="1242" class="st1" width="7.4" height="203.3"/>
<rect x="1922.6" y="1242" class="st16" width="7.4" height="203.3"/>
<rect x="1854.3" y="1242" class="st1" width="7.4" height="203.3"/>
<rect x="1854.3" y="1242" class="st16" width="7.4" height="203.3"/>
<rect x="3008.1" y="1242" class="st1" width="13.9" height="203.3"/>
<rect x="3008.1" y="1242" class="st16" width="13.9" height="203.3"/>
<rect x="2939.7" y="1242" class="st1" width="14" height="203.3"/>
<rect x="2939.7" y="1242" class="st16" width="14" height="203.3"/>
<rect x="2448.5" y="1242" class="st1" width="27.5" height="203.3"/>
<rect x="2448.5" y="1242" class="st16" width="27.5" height="203.3"/>
<rect x="2864.5" y="1242" class="st1" width="21.1" height="203.3"/>
<rect x="2864.5" y="1242" class="st16" width="21.1" height="203.3"/>
<rect x="2584.5" y="1242" class="st1" width="27.9" height="203.3"/>
<rect x="2584.5" y="1242" class="st16" width="27.9" height="203.3"/>
<rect x="2516.6" y="1242" class="st1" width="27.6" height="203.3"/>
<rect x="2516.6" y="1242" class="st16" width="27.6" height="203.3"/>
<rect x="2728" y="1242" class="st1" width="21" height="203.3"/>
<rect x="2728" y="1242" class="st16" width="21" height="203.3"/>
<rect x="2796.4" y="1242" class="st1" width="20.9" height="203.3"/>
<rect x="2796.4" y="1242" class="st16" width="20.9" height="203.3"/>
<rect x="2653" y="1242" class="st1" width="27.7" height="203.3"/>
<rect x="2653" y="1242" class="st16" width="27.7" height="203.3"/>
<rect x="2025.6" y="1445.3" class="st1" width="40.7" height="203.3"/>
<rect x="2025.6" y="1445.3" class="st16" width="40.7" height="203.3"/>
<rect x="2100.3" y="1445.3" class="st1" width="34.2" height="203.3"/>
<rect x="2100.3" y="1445.3" class="st16" width="34.2" height="203.3"/>
<rect x="1957.6" y="1445.3" class="st1" width="40.7" height="203.3"/>
<rect x="1957.6" y="1445.3" class="st16" width="40.7" height="203.3"/>
<rect x="2237.1" y="1445.3" class="st1" width="34.2" height="203.3"/>
<rect x="2237.1" y="1445.3" class="st16" width="34.2" height="203.3"/>
<rect x="2168.9" y="1445.3" class="st1" width="34.2" height="203.3"/>
<rect x="2168.9" y="1445.3" class="st16" width="34.2" height="203.3"/>
<rect x="1752.9" y="1445.3" class="st1" width="40.6" height="203.3"/>
<rect x="1752.9" y="1445.3" class="st16" width="40.6" height="203.3"/>
<rect x="1616.4" y="1445.3" class="st1" width="40.7" height="203.3"/>
<rect x="1616.4" y="1445.3" class="st16" width="40.7" height="203.3"/>
<rect x="1684.9" y="1445.3" class="st1" width="40.4" height="203.3"/>
<rect x="1684.9" y="1445.3" class="st16" width="40.4" height="203.3"/>
<rect x="1889.2" y="1445.3" class="st1" width="40.8" height="203.3"/>
<rect x="1889.2" y="1445.3" class="st16" width="40.8" height="203.3"/>
<rect x="1548.3" y="1445.3" class="st1" width="40.5" height="203.3"/>
<rect x="1548.3" y="1445.3" class="st16" width="40.5" height="203.3"/>
<rect x="2372.9" y="1445.3" class="st1" width="34.2" height="203.3"/>
<rect x="2372.9" y="1445.3" class="st16" width="34.2" height="203.3"/>
<rect x="1820.8" y="1445.3" class="st1" width="40.8" height="203.3"/>
<rect x="1820.8" y="1445.3" class="st16" width="40.8" height="203.3"/>
<rect x="2304.9" y="1445.3" class="st1" width="34.3" height="203.3"/>
<rect x="2304.9" y="1445.3" class="st16" width="34.3" height="203.3"/>
<rect x="2940.1" y="1445.3" class="st1" width="13.7" height="203.3"/>
<rect x="2940.1" y="1445.3" class="st16" width="13.7" height="203.3"/>
<rect x="3008.5" y="1445.3" class="st1" width="13.5" height="203.3"/>
<rect x="3008.5" y="1445.3" class="st16" width="13.5" height="203.3"/>
<rect x="2796.9" y="1445.3" class="st1" width="20.4" height="203.3"/>
<rect x="2796.9" y="1445.3" class="st16" width="20.4" height="203.3"/>
<rect x="2585.1" y="1445.3" class="st1" width="27.3" height="203.3"/>
<rect x="2585.1" y="1445.3" class="st16" width="27.3" height="203.3"/>
<rect x="2517.1" y="1445.3" class="st1" width="27.1" height="203.3"/>
<rect x="2517.1" y="1445.3" class="st16" width="27.1" height="203.3"/>
<rect x="2660" y="1445.3" class="st1" width="20.7" height="203.3"/>
<rect x="2660" y="1445.3" class="st16" width="20.7" height="203.3"/>
<rect x="2448.9" y="1445.3" class="st1" width="27.1" height="203.3"/>
<rect x="2448.9" y="1445.3" class="st16" width="27.1" height="203.3"/>
<rect x="2871.8" y="1445.3" class="st1" width="13.7" height="203.3"/>
<rect x="2871.8" y="1445.3" class="st16" width="13.7" height="203.3"/>
<rect x="2728.4" y="1445.3" class="st1" width="20.6" height="203.3"/>
<rect x="2728.4" y="1445.3" class="st16" width="20.6" height="203.3"/>
<rect x="2052.2" y="429.1" class="st1" width="14.1" height="203.3"/>
<rect x="2052.2" y="429.1" class="st16" width="14.1" height="203.3"/>
<rect x="1984.1" y="429.1" class="st1" width="14.2" height="203.3"/>
<rect x="1984.1" y="429.1" class="st16" width="14.2" height="203.3"/>
<g>
	<g>
		<defs>
			<rect id="SVGID_00000027582043668234964040000011601649914836114859_" y="0" width="3072" height="1920"/>
		</defs>
		<clipPath id="SVGID_00000067928572559968549200000007769959069401400208_">
			<use xlink:href="#SVGID_00000027582043668234964040000011601649914836114859_"  style="overflow:visible;"/>
		</clipPath>
		<path style="clip-path:url(#SVGID_00000067928572559968549200000007769959069401400208_);fill:#FFFFFF;" d="M2182.5,429.1v203.3
			h20.6c0-23.9,0-47.7,0-71.6c0-43.9,0-87.8,0-131.7L2182.5,429.1L2182.5,429.1z"/>
	</g>
	<g>
		<defs>
			<rect id="SVGID_00000032646116141032904550000009586409952375667372_" y="0" width="3072" height="1920"/>
		</defs>
		<clipPath id="SVGID_00000112599450029587383560000016095722382980827802_">
			<use xlink:href="#SVGID_00000032646116141032904550000009586409952375667372_"  style="overflow:visible;"/>
		</clipPath>
		
			<path style="clip-path:url(#SVGID_00000112599450029587383560000016095722382980827802_);fill:none;stroke:#FFFFFF;stroke-width:0.5;stroke-miterlimit:10;" d="
			M2182.5,429.1v203.3h20.6c0-23.9,0-47.7,0-71.6c0-43.9,0-87.8,0-131.7L2182.5,429.1L2182.5,429.1z"/>
	</g>
</g>
<rect x="2120.4" y="429.1" class="st1" width="14.3" height="203.3"/>
<rect x="2120.4" y="429.1" class="st16" width="14.3" height="203.3"/>
<rect x="2250.3" y="429.1" class="st1" width="21" height="203.3"/>
<rect x="2250.3" y="429.1" class="st16" width="21" height="203.3"/>
<rect x="2311.5" y="429.1" class="st1" width="27.7" height="203.3"/>
<rect x="2311.5" y="429.1" class="st16" width="27.7" height="203.3"/>
<rect x="2379.7" y="429.1" class="st1" width="27.8" height="203.3"/>
<rect x="2379.7" y="429.1" class="st16" width="27.8" height="203.3"/>
<rect x="1922.6" y="429.1" class="st1" width="7.4" height="203.3"/>
<rect x="1922.6" y="429.1" class="st16" width="7.4" height="203.3"/>
<rect x="1649.6" y="429.1" class="st1" width="7.5" height="203.3"/>
<rect x="1649.6" y="429.1" class="st16" width="7.5" height="203.3"/>
<rect x="1718" y="429.1" class="st1" width="7.3" height="203.3"/>
<rect x="1718" y="429.1" class="st16" width="7.3" height="203.3"/>
<rect x="1786.4" y="429.1" class="st1" width="7.1" height="203.3"/>
<rect x="1786.4" y="429.1" class="st16" width="7.1" height="203.3"/>
<rect x="1854.3" y="429.1" class="st1" width="7.4" height="203.3"/>
<rect x="1854.3" y="429.1" class="st16" width="7.4" height="203.3"/>
<rect x="1581.6" y="429.1" class="st1" width="7.2" height="203.3"/>
<rect x="1581.6" y="429.1" class="st16" width="7.2" height="203.3"/>
<rect x="3008.1" y="429.1" class="st1" width="13.9" height="203.3"/>
<rect x="3008.1" y="429.1" class="st16" width="13.9" height="203.3"/>
<rect x="2939.7" y="429.1" class="st1" width="14" height="203.3"/>
<rect x="2939.7" y="429.1" class="st16" width="14" height="203.3"/>
<rect x="2516.6" y="429.1" class="st1" width="27.6" height="203.3"/>
<rect x="2516.6" y="429.1" class="st16" width="27.6" height="203.3"/>
<rect x="2584.5" y="429.1" class="st1" width="27.9" height="203.3"/>
<rect x="2584.5" y="429.1" class="st16" width="27.9" height="203.3"/>
<rect x="2864.5" y="429.1" class="st1" width="21.1" height="203.3"/>
<rect x="2864.5" y="429.1" class="st16" width="21.1" height="203.3"/>
<rect x="2448.5" y="429.1" class="st1" width="27.5" height="203.3"/>
<rect x="2448.5" y="429.1" class="st16" width="27.5" height="203.3"/>
<rect x="2653" y="429.1" class="st1" width="27.7" height="203.3"/>
<rect x="2653" y="429.1" class="st16" width="27.7" height="203.3"/>
<rect x="2728" y="429.1" class="st1" width="21" height="203.3"/>
<rect x="2728" y="429.1" class="st16" width="21" height="203.3"/>
<rect x="2796.4" y="429.1" class="st1" width="20.9" height="203.3"/>
<rect x="2796.4" y="429.1" class="st16" width="20.9" height="203.3"/>
<polyline id="bottom-arrow" class="st27" points="1424.1,1798.4 1536,1867.7 1647.9,1798.4 "/>
<polyline id="up-arrow" class="st27" points="1647.9,1867.7 1536,1798.4 1424.1,1867.7 "/>
</svg>
