<?xml version="1.0" encoding="utf-8"?>
<!-- Generator: Adobe Illustrator 26.4.1, SVG Export Plug-In . SVG Version: 6.00 Build 0)  -->
<svg version="1.1" id="레이어_2" xmlns="http://www.w3.org/2000/svg" xmlns:xlink="http://www.w3.org/1999/xlink" x="0px"
	 y="0px" viewBox="0 0 595.3 391.2" style="enable-background:new 0 0 595.3 391.2;" xml:space="preserve">
<style type="text/css">
	.st0{clip-path:url(#SVGID_00000128450909914865422130000005762230397246572456_);}
	.st1{clip-path:url(#SVGID_00000176721695793182496310000009681758851493926584_);fill:#070001;}
	.st2{clip-path:url(#SVGID_00000176721695793182496310000009681758851493926584_);fill:#727171;}
	.st3{clip-path:url(#SVGID_00000176721695793182496310000009681758851493926584_);fill:#FFFFFF;}
	
		.st4{clip-path:url(#SVGID_00000176721695793182496310000009681758851493926584_);fill:none;stroke:#8C9091;stroke-width:3;stroke-miterlimit:10;}
	
		.st5{clip-path:url(#SVGID_00000176721695793182496310000009681758851493926584_);fill:none;stroke:#8C9091;stroke-width:10;stroke-miterlimit:10;}
	.st6{clip-path:url(#SVGID_00000176721695793182496310000009681758851493926584_);fill:#8C9091;}
	.st7{clip-path:url(#SVGID_00000176721695793182496310000009681758851493926584_);}
	.st8{fill:#8C9091;}
	.st9{fill:#231815;}
	.st10{fill:#FFFFFF;}
	.st11{clip-path:url(#SVGID_00000132065268215869595120000007843563966471384983_);}
	.st12{fill:none;stroke:#8C9091;stroke-miterlimit:10;}
	.st13{fill:none;stroke:#FFFFFF;stroke-miterlimit:10;}
	.st14{clip-path:url(#SVGID_00000176721695793182496310000009681758851493926584_);fill:#231815;}
	.st15{fill:#8C9091;stroke:#8C9091;stroke-width:5.000000e-02;stroke-miterlimit:10;}
</style>
<g>
	<defs>
		<rect id="SVGID_1_" width="595.3" height="391.2"/>
	</defs>
	<clipPath id="SVGID_00000073682697061718591120000016538979877272371620_">
		<use xlink:href="#SVGID_1_"  style="overflow:visible;"/>
	</clipPath>
	<g style="clip-path:url(#SVGID_00000073682697061718591120000016538979877272371620_);">
		<defs>
			<rect id="SVGID_00000048503459067865579130000001191994095023436165_" y="-147.1" width="595.3" height="595.3"/>
		</defs>
		<clipPath id="SVGID_00000055701892476280984350000003090039062180290975_">
			<use xlink:href="#SVGID_00000048503459067865579130000001191994095023436165_"  style="overflow:visible;"/>
		</clipPath>
		
			<rect y="-147.1" style="clip-path:url(#SVGID_00000055701892476280984350000003090039062180290975_);fill:#070001;" width="595.3" height="595.3"/>
		<polygon style="clip-path:url(#SVGID_00000055701892476280984350000003090039062180290975_);fill:#727171;" points="0,-147.1 
			0,-42.5 546,140.7 595.3,113.6 595.3,-147.1 		"/>
		<polygon style="clip-path:url(#SVGID_00000055701892476280984350000003090039062180290975_);fill:#FFFFFF;" points="306.8,208.3 
			280.4,217.8 285.2,230.1 312,220.4 		"/>
		
			<polyline style="clip-path:url(#SVGID_00000055701892476280984350000003090039062180290975_);fill:none;stroke:#8C9091;stroke-width:3;stroke-miterlimit:10;" points="
			-7.1,96.2 300.8,191.2 412.1,450.8 		"/>
		
			<polyline style="clip-path:url(#SVGID_00000055701892476280984350000003090039062180290975_);fill:none;stroke:#8C9091;stroke-width:10;stroke-miterlimit:10;" points="
			202.2,-158.6 91.2,318.3 127.2,458.1 		"/>
		
			<polyline style="clip-path:url(#SVGID_00000055701892476280984350000003090039062180290975_);fill:none;stroke:#8C9091;stroke-width:10;stroke-miterlimit:10;" points="
			-8.2,351.7 91.2,318.3 595.3,233.9 546,140.7 -8.2,-45.2 		"/>
		
			<line style="clip-path:url(#SVGID_00000055701892476280984350000003090039062180290975_);fill:none;stroke:#8C9091;stroke-width:10;stroke-miterlimit:10;" x1="556.2" y1="240.4" x2="602.9" y2="356.4"/>
		
			<polyline style="clip-path:url(#SVGID_00000055701892476280984350000003090039062180290975_);fill:none;stroke:#8C9091;stroke-width:3;stroke-miterlimit:10;" points="
			270.7,48.3 205.5,273.3 209.8,298.4 		"/>
		
			<polyline style="clip-path:url(#SVGID_00000055701892476280984350000003090039062180290975_);fill:none;stroke:#8C9091;stroke-width:3;stroke-miterlimit:10;" points="
			-6.2,418.2 150.9,369.3 269.7,393.1 		"/>
		
			<polyline style="clip-path:url(#SVGID_00000055701892476280984350000003090039062180290975_);fill:none;stroke:#8C9091;stroke-width:3;stroke-miterlimit:10;" points="
			266.6,288.9 278.4,355.7 256.2,450.8 		"/>
		
			<line style="clip-path:url(#SVGID_00000055701892476280984350000003090039062180290975_);fill:none;stroke:#8C9091;stroke-width:3;stroke-miterlimit:10;" x1="150.9" y1="369.3" x2="134.8" y2="311"/>
		
			<polyline style="clip-path:url(#SVGID_00000055701892476280984350000003090039062180290975_);fill:none;stroke:#8C9091;stroke-width:3;stroke-miterlimit:10;" points="
			600.8,288.7 522.4,302.7 391.4,403 		"/>
		
			<circle style="clip-path:url(#SVGID_00000055701892476280984350000003090039062180290975_);fill:#8C9091;" cx="514.2" cy="326.8" r="3"/>
		
			<circle style="clip-path:url(#SVGID_00000055701892476280984350000003090039062180290975_);fill:#8C9091;" cx="128.3" cy="362.1" r="3"/>
		
			<circle style="clip-path:url(#SVGID_00000055701892476280984350000003090039062180290975_);fill:#8C9091;" cx="157.3" cy="129.8" r="3"/>
		
			<circle style="clip-path:url(#SVGID_00000055701892476280984350000003090039062180290975_);fill:#8C9091;" cx="290" cy="73.9" r="3"/>
		
			<circle style="clip-path:url(#SVGID_00000055701892476280984350000003090039062180290975_);fill:#8C9091;" cx="117.2" cy="118.5" r="3"/>
		<g style="clip-path:url(#SVGID_00000055701892476280984350000003090039062180290975_);">
			<path class="st8" d="M155.3,104.3l-0.3-0.3c1-0.3,1.6-1,1.7-1.7h-1.4v-0.4h1.9C157.1,103.1,156.3,103.9,155.3,104.3z M156,106.5
				v-1.2h2.8v-0.5h-2.9v-0.4h3.3v1.2h-2.8v0.5h3v0.4H156z M158.8,104.1v-1.1h-0.6v1h-0.4v-2.5h0.4v1.1h0.6v-1.2h0.4v2.6H158.8z"/>
			<path class="st8" d="M162.8,105.2c-0.5,0.1-1.6,0.2-2.3,0.2h-0.4v-1.9h1.8v-1h-1.8V102h2.3v1.7h-1.8v1.2c0.6,0,1.6,0,2.2-0.2
				L162.8,105.2z M163.5,106.5v-2.7h-0.9v-0.4h0.9v-1.9h0.4v5H163.5z"/>
			<path class="st8" d="M168,105.2c-0.5,0.1-1.4,0.2-2.5,0.2H165v-1.9h1.9v-1H165V102h2.3v1.8h-1.9v1.2h0.1c0.8,0,1.8,0,2.4-0.2
				L168,105.2z M168.8,101.6v5h-0.4v-5H168.8z"/>
			<path class="st8" d="M170.9,101.9c0.8,0,1.3,0.7,1.3,1.8s-0.5,1.8-1.3,1.8s-1.3-0.7-1.3-1.8C169.7,102.6,170.1,101.9,170.9,101.9
				z M170.9,102.3c-0.5,0-0.9,0.6-0.9,1.4c0,0.8,0.3,1.4,0.9,1.4s0.8-0.6,0.8-1.4C171.8,102.9,171.5,102.3,170.9,102.3z
				 M173.4,103.9v2.6H173v-5h0.4v2h0.8v0.4H173.4z"/>
			<path class="st8" d="M176.7,102h2.5v0.4h-2v1.4h1.6v0.4h-1.6v1.5h2v0.4h-2.5V102z"/>
			<path class="st8" d="M181.2,102h0.5l1.5,4.2h-0.5l-0.4-1.2h-1.7l-0.4,1.2h-0.5L181.2,102z M180.7,104.6h1.4l-0.7-1.9h0
				L180.7,104.6z"/>
			<path class="st8" d="M183.5,106v-0.4c0.3,0.2,0.7,0.3,1.2,0.3c0.7,0,0.9-0.3,0.9-0.8c0-0.4-0.2-0.6-0.7-0.8l-0.4-0.1
				c-0.6-0.2-0.9-0.5-0.9-1.1c0-0.7,0.4-1.1,1.3-1.1c0.5,0,0.8,0.1,1,0.2v0.4c-0.2-0.1-0.6-0.2-1-0.2c-0.5,0-0.8,0.3-0.8,0.7
				s0.2,0.6,0.6,0.7l0.4,0.1c0.6,0.2,1,0.5,1,1.2c0,0.7-0.4,1.2-1.4,1.2C184.2,106.3,183.8,106.2,183.5,106z"/>
			<path class="st8" d="M187.9,102.4h-1.3V102h3.1v0.4h-1.3v3.8h-0.5V102.4z"/>
		</g>
		<g style="clip-path:url(#SVGID_00000055701892476280984350000003090039062180290975_);">
			<path class="st8" d="M157.1,114v-3.2h-1.5v-0.6h3.7v0.6h-1.5v3.2H157.1z"/>
			<path class="st8" d="M163.6,114v-1.7h-2.3v1.7h-0.7v-3.8h0.7v1.5h2.3v-1.5h0.7v3.8H163.6z"/>
			<path class="st8" d="M166.1,114v-3.8h3.1v0.6h-2.4v1h2.3v0.6h-2.3v1.1h2.5l-0.1,0.6H166.1z"/>
			<path class="st8" d="M176.2,112.5h-1.1V112h1.8v1.6c-0.2,0.2-0.5,0.3-0.8,0.4c-0.3,0.1-0.6,0.1-1,0.1c-0.4,0-0.8-0.1-1.2-0.2
				s-0.6-0.4-0.8-0.7c-0.2-0.3-0.3-0.6-0.3-1.1c0-0.4,0.1-0.8,0.3-1.1s0.4-0.5,0.7-0.7c0.3-0.2,0.7-0.2,1.1-0.2
				c0.5,0,0.9,0.1,1.2,0.3c0.3,0.2,0.5,0.5,0.6,0.8l-0.7,0.1c-0.1-0.2-0.2-0.4-0.4-0.5s-0.4-0.2-0.7-0.2c-0.4,0-0.8,0.1-1,0.4
				s-0.4,0.6-0.4,1.1c0,0.5,0.1,0.8,0.4,1.1c0.3,0.2,0.6,0.4,1.1,0.4c0.5,0,0.9-0.1,1.2-0.2V112.5z"/>
			<path class="st8" d="M181.6,114l-0.4-0.9h-2l-0.4,0.9H178l1.8-3.8h0.7l1.8,3.8H181.6z M180.2,110.8l-0.8,1.6h1.5L180.2,110.8z"/>
			<path class="st8" d="M183.7,114v-3.8h0.7v3.2h2.4l-0.1,0.6H183.7z"/>
			<path class="st8" d="M188.2,114v-3.8h0.7v3.2h2.4l-0.1,0.6H188.2z"/>
			<path class="st8" d="M192.7,114v-3.8h3.1v0.6h-2.4v1h2.3v0.6h-2.3v1.1h2.5l-0.1,0.6H192.7z"/>
			<path class="st8" d="M200.2,114l-0.9-1.5c0,0-0.1,0-0.1,0s-0.1,0-0.1,0H198v1.5h-0.6v-3.8h1.8c1,0,1.5,0.4,1.5,1.1
				c0,0.5-0.2,0.8-0.7,1l1,1.6H200.2z M199.1,112c0.3,0,0.5,0,0.7-0.1c0.1-0.1,0.2-0.3,0.2-0.5c0-0.2-0.1-0.4-0.2-0.5
				c-0.1-0.1-0.4-0.1-0.7-0.1H198v1.2H199.1z"/>
			<path class="st8" d="M202.3,114v-3.8h0.7v3.8H202.3z"/>
			<path class="st8" d="M207.9,114l-0.4-0.9h-2L205,114h-0.7l1.8-3.8h0.7l1.8,3.8H207.9z M206.5,110.8l-0.8,1.6h1.5L206.5,110.8z"/>
			<path class="st8" d="M156,120.3v-3.8h3.1v0.6h-2.4v1h2.3v0.6h-2.3v1.1h2.5l-0.1,0.6H156z"/>
			<path class="st8" d="M163.9,120.3l-0.4-0.9h-2l-0.4,0.9h-0.7l1.8-3.8h0.7l1.8,3.8H163.9z M162.5,117.2l-0.8,1.6h1.5L162.5,117.2z
				"/>
			<path class="st8" d="M168.6,117.6c-0.1-0.1-0.1-0.3-0.2-0.4c-0.1-0.1-0.2-0.2-0.3-0.2c-0.1,0-0.3-0.1-0.5-0.1
				c-0.3,0-0.6,0-0.8,0.1s-0.3,0.2-0.3,0.4c0,0.2,0.1,0.3,0.2,0.4s0.3,0.1,0.6,0.2l0.8,0.1c0.4,0.1,0.8,0.2,1,0.4s0.3,0.4,0.3,0.7
				c0,0.4-0.2,0.6-0.5,0.8c-0.3,0.2-0.7,0.3-1.3,0.3c-0.6,0-1.1-0.1-1.4-0.3c-0.3-0.2-0.5-0.5-0.5-1h0.7c0,0.3,0.2,0.5,0.4,0.6
				c0.2,0.1,0.5,0.2,0.9,0.2c0.3,0,0.6-0.1,0.8-0.2c0.2-0.1,0.3-0.2,0.3-0.4c0-0.2-0.1-0.3-0.2-0.4c-0.1-0.1-0.3-0.2-0.6-0.2
				l-0.7-0.1c-0.3-0.1-0.6-0.1-0.8-0.2c-0.2-0.1-0.4-0.2-0.4-0.4s-0.1-0.3-0.1-0.5c0-0.3,0.2-0.6,0.5-0.8c0.3-0.2,0.7-0.3,1.3-0.3
				c0.3,0,0.6,0,0.9,0.1c0.2,0.1,0.4,0.2,0.6,0.3s0.2,0.3,0.3,0.6L168.6,117.6z"/>
			<path class="st8" d="M171.9,120.3v-3.2h-1.5v-0.6h3.7v0.6h-1.5v3.2H171.9z"/>
		</g>
		<g style="clip-path:url(#SVGID_00000055701892476280984350000003090039062180290975_);">
			<path class="st8" d="M288,81.7h2.5V82h-1c0,0.6,0.6,1.1,1.1,1.2l-0.2,0.3c-0.4-0.1-0.9-0.5-1.1-0.9c-0.1,0.4-0.6,0.9-1.2,1.1
				l-0.2-0.3c0.6-0.2,1.2-0.7,1.2-1.3H288V81.7z M290.1,85.5c-1,0-1.6-0.3-1.6-0.8c0-0.5,0.6-0.9,1.6-0.9s1.6,0.3,1.6,0.9
				C291.8,85.1,291.2,85.5,290.1,85.5z M288.6,80.9h1.3v0.4h-1.3V80.9z M290.1,84.1c-0.7,0-1.2,0.2-1.2,0.5s0.5,0.5,1.2,0.5
				c0.7,0,1.2-0.2,1.2-0.5S290.9,84.1,290.1,84.1z M291.7,83.7h-0.4v-1.1h-0.9v-0.3h0.9v-1.5h0.4V83.7z"/>
			<path class="st8" d="M293.3,82.8c0.6,0,1.4-0.1,1.8-0.2l0,0.3c-0.5,0.1-1.3,0.2-2.1,0.2h-0.4v-2h2.1v0.3H293v1.3H293.3z
				 M293.1,85.4v-1.7h2.9v1.7H293.1z M295.6,84h-2.1v1h2.1V84z M296,82.3v1.1h-0.4v-2.6h0.4V82h0.7v0.3H296z"/>
			<path class="st8" d="M299.1,85.4c-1,0-1.6-0.3-1.6-0.8c0-0.5,0.5-0.8,1.4-0.8v-0.5H297V83h4.2v0.3h-1.9v0.5
				c0.9,0,1.4,0.3,1.4,0.8C300.7,85.1,300.1,85.4,299.1,85.4z M300.8,82.7c-0.8-0.1-1.5-0.5-1.7-0.9c-0.2,0.4-0.9,0.8-1.7,0.9
				l-0.2-0.3c0.7-0.1,1.5-0.4,1.7-1h-1.5v-0.3h3.4v0.3h-1.5c0.1,0.6,1,0.9,1.6,1L300.8,82.7z M297.9,84.6c0,0.3,0.5,0.5,1.2,0.5
				c0.7,0,1.2-0.2,1.2-0.5c0-0.3-0.5-0.5-1.2-0.5C298.4,84.1,297.9,84.3,297.9,84.6z"/>
			<path class="st8" d="M301.5,81.9v-0.3h2.7v0.3H301.5z M302.9,83.7c-0.6,0-1.1-0.3-1.1-0.8c0-0.5,0.4-0.8,1.1-0.8
				c0.6,0,1.1,0.3,1.1,0.8C303.9,83.4,303.5,83.7,302.9,83.7z M305.1,83.9v1.5h-0.4v-1.2h-2.6v-0.3H305.1z M302.2,81.3v-0.3h1.3v0.3
				H302.2z M302.9,82.5c-0.4,0-0.7,0.2-0.7,0.4c0,0.3,0.3,0.4,0.7,0.4c0.4,0,0.7-0.2,0.7-0.4C303.5,82.6,303.2,82.5,302.9,82.5z
				 M305.1,82.5v1.2h-0.4v-2.9h0.4v1.4h0.7v0.3H305.1z"/>
			<path class="st8" d="M306.1,84.8v-0.3h1.1v-1.6h0.4v1.6h0.8v-1.6h0.4v1.6h1.6v0.3H306.1z M309.8,81.9c0,0.7,0,1.4-0.2,2l-0.4-0.1
				c0.1-0.4,0.2-1.1,0.2-1.7v-0.4h-2.8v-0.3h3.2V81.9z"/>
		</g>
		<g style="clip-path:url(#SVGID_00000055701892476280984350000003090039062180290975_);">
			<path class="st8" d="M291.7,92c-0.1,0.4-0.3,0.7-0.6,0.9c-0.3,0.2-0.7,0.3-1.2,0.3c-0.4,0-0.7-0.1-1-0.2
				c-0.3-0.1-0.5-0.4-0.7-0.6c-0.2-0.3-0.2-0.6-0.2-1c0-0.4,0.1-0.7,0.2-1s0.4-0.5,0.7-0.7c0.3-0.2,0.6-0.2,1-0.2
				c0.9,0,1.5,0.4,1.7,1.2l-0.6,0.1c-0.1-0.3-0.2-0.5-0.4-0.6c-0.2-0.1-0.4-0.2-0.7-0.2c-0.4,0-0.7,0.1-0.9,0.4
				c-0.2,0.2-0.3,0.6-0.3,1c0,0.4,0.1,0.7,0.3,1c0.2,0.2,0.5,0.4,0.9,0.4c0.3,0,0.6-0.1,0.8-0.2c0.2-0.1,0.3-0.3,0.4-0.6H291.7z"/>
			<path class="st8" d="M295.9,93.1v-1.5h-2.1v1.5h-0.6v-3.5h0.6V91h2.1v-1.4h0.6v3.5H295.9z"/>
			<path class="st8" d="M298.2,93.1v-3.5h2.9v0.5h-2.2v0.9h2.1v0.5h-2.1v1h2.4l-0.1,0.5H298.2z"/>
			<path class="st8" d="M306.4,91.4c0,0.4-0.1,0.7-0.2,1c-0.2,0.3-0.4,0.5-0.7,0.6c-0.3,0.2-0.7,0.2-1.1,0.2c-0.4,0-0.7-0.1-1-0.2
				s-0.5-0.4-0.7-0.6c-0.2-0.3-0.2-0.6-0.2-1c0-0.4,0.1-0.7,0.2-1s0.4-0.5,0.7-0.7c0.3-0.2,0.7-0.2,1.1-0.2c0.4,0,0.7,0.1,1,0.2
				c0.3,0.1,0.5,0.4,0.7,0.6S306.4,91,306.4,91.4z M305.8,91.4c0-0.4-0.1-0.7-0.4-1c-0.2-0.2-0.6-0.4-1-0.4s-0.8,0.1-1,0.4
				c-0.2,0.2-0.4,0.6-0.4,1c0,0.4,0.1,0.7,0.4,1c0.2,0.2,0.6,0.4,1,0.4s0.8-0.1,1-0.4C305.7,92.1,305.8,91.8,305.8,91.4z"/>
			<path class="st8" d="M310.7,93.1l-2.2-2.7v2.7h-0.6v-3.5h0.6l2.2,2.7v-2.7h0.6v3.5H310.7z"/>
			<path class="st8" d="M315.8,91.8h-1.1v-0.5h1.7v1.5c-0.2,0.2-0.5,0.3-0.8,0.4s-0.6,0.1-0.9,0.1c-0.4,0-0.8-0.1-1.1-0.2
				c-0.3-0.1-0.5-0.4-0.7-0.6c-0.2-0.3-0.2-0.6-0.2-1c0-0.4,0.1-0.7,0.2-1s0.4-0.5,0.7-0.7c0.3-0.2,0.7-0.2,1.1-0.2
				c0.4,0,0.8,0.1,1.1,0.3c0.3,0.2,0.5,0.4,0.6,0.8l-0.6,0.1c-0.1-0.2-0.2-0.4-0.4-0.5s-0.4-0.2-0.7-0.2c-0.4,0-0.7,0.1-1,0.4
				c-0.2,0.2-0.3,0.6-0.3,1c0,0.4,0.1,0.8,0.4,1s0.6,0.3,1,0.3c0.4,0,0.8-0.1,1.1-0.2V91.8z"/>
			<path class="st8" d="M317.9,93.1v-3.5h1.5c0.7,0,1.2,0.2,1.5,0.5s0.5,0.7,0.5,1.3c0,0.6-0.2,1-0.6,1.3s-0.9,0.5-1.6,0.5H317.9z
				 M319.4,92.6c0.5,0,0.8-0.1,1.1-0.3c0.2-0.2,0.4-0.5,0.4-0.9c0-0.8-0.5-1.2-1.4-1.2h-0.9v2.5H319.4z"/>
			<path class="st8" d="M325.7,93.1l-0.4-0.9h-1.9l-0.4,0.9h-0.7l1.7-3.5h0.7l1.7,3.5H325.7z M324.3,90.2l-0.7,1.5h1.4L324.3,90.2z"
				/>
			<path class="st8" d="M331.3,93.1v-2.6l-1.3,2.6h-0.5l-1.3-2.6v2.6h-0.6v-3.5h0.8l1.4,2.9l1.4-2.9h0.7v3.5H331.3z"/>
			<path class="st8" d="M291.8,99.1v-2.6l-1.3,2.6H290l-1.3-2.6v2.6h-0.6v-3.5h0.8l1.4,2.9l1.4-2.9h0.7v3.5H291.8z"/>
			<path class="st8" d="M294.1,99.1v-3.5h0.6v3.5H294.1z"/>
			<path class="st8" d="M296.3,99.1v-3.5h1.5c0.7,0,1.2,0.2,1.5,0.5c0.3,0.3,0.5,0.7,0.5,1.3c0,0.6-0.2,1-0.6,1.3s-0.9,0.5-1.6,0.5
				H296.3z M297.8,98.6c0.5,0,0.8-0.1,1.1-0.3s0.4-0.5,0.4-0.9c0-0.8-0.5-1.2-1.4-1.2H297v2.5H297.8z"/>
			<path class="st8" d="M301.3,99.1v-3.5h1.5c0.7,0,1.2,0.2,1.5,0.5s0.5,0.7,0.5,1.3c0,0.6-0.2,1-0.6,1.3s-0.9,0.5-1.6,0.5H301.3z
				 M302.8,98.6c0.5,0,0.8-0.1,1.1-0.3c0.2-0.2,0.4-0.5,0.4-0.9c0-0.8-0.5-1.2-1.4-1.2H302v2.5H302.8z"/>
			<path class="st8" d="M306.3,99.1v-3.5h0.6v3h2.2l-0.1,0.5H306.3z"/>
			<path class="st8" d="M310.5,99.1v-3.5h2.9v0.5h-2.2V97h2.1v0.5h-2.1v1h2.4l-0.1,0.5H310.5z"/>
			<path class="st8" d="M319.5,96.5c-0.1-0.1-0.1-0.2-0.2-0.3c-0.1-0.1-0.2-0.1-0.3-0.2c-0.1,0-0.3-0.1-0.5-0.1
				c-0.3,0-0.6,0-0.7,0.1c-0.2,0.1-0.3,0.2-0.3,0.4c0,0.1,0.1,0.3,0.2,0.3c0.1,0.1,0.3,0.1,0.6,0.2l0.7,0.1c0.4,0.1,0.7,0.2,0.9,0.3
				c0.2,0.2,0.3,0.4,0.3,0.7c0,0.3-0.1,0.6-0.4,0.8c-0.3,0.2-0.7,0.3-1.2,0.3c-0.6,0-1-0.1-1.3-0.3c-0.3-0.2-0.5-0.5-0.5-0.9h0.6
				c0,0.2,0.2,0.4,0.3,0.5c0.2,0.1,0.5,0.2,0.8,0.2c0.3,0,0.6,0,0.7-0.1c0.2-0.1,0.3-0.2,0.3-0.4c0-0.1-0.1-0.3-0.2-0.3
				c-0.1-0.1-0.3-0.1-0.5-0.2l-0.6-0.1c-0.3,0-0.6-0.1-0.8-0.2c-0.2-0.1-0.3-0.2-0.4-0.3c-0.1-0.1-0.1-0.3-0.1-0.5
				c0-0.3,0.1-0.6,0.4-0.7c0.3-0.2,0.7-0.3,1.2-0.3c0.3,0,0.6,0,0.8,0.1s0.4,0.2,0.5,0.3s0.2,0.3,0.3,0.6L319.5,96.5z"/>
			<path class="st8" d="M325.2,97.9c-0.1,0.4-0.3,0.7-0.6,0.9s-0.7,0.3-1.2,0.3c-0.4,0-0.7-0.1-1-0.2c-0.3-0.1-0.5-0.4-0.7-0.6
				c-0.2-0.3-0.2-0.6-0.2-1c0-0.4,0.1-0.7,0.2-1c0.2-0.3,0.4-0.5,0.7-0.7c0.3-0.2,0.6-0.2,1-0.2c0.9,0,1.5,0.4,1.7,1.2l-0.6,0.1
				c-0.1-0.3-0.2-0.5-0.4-0.6c-0.2-0.1-0.4-0.2-0.7-0.2c-0.4,0-0.7,0.1-0.9,0.4s-0.3,0.6-0.3,1c0,0.4,0.1,0.7,0.3,1
				c0.2,0.2,0.5,0.4,0.9,0.4c0.3,0,0.6-0.1,0.8-0.2c0.2-0.1,0.3-0.3,0.4-0.6H325.2z"/>
			<path class="st8" d="M329.4,99.1v-1.5h-2.1v1.5h-0.6v-3.5h0.6V97h2.1v-1.4h0.6v3.5H329.4z"/>
			<path class="st8" d="M335.4,97.3c0,0.4-0.1,0.7-0.2,1c-0.2,0.3-0.4,0.5-0.7,0.6c-0.3,0.2-0.7,0.2-1.1,0.2c-0.4,0-0.7-0.1-1-0.2
				s-0.5-0.4-0.7-0.6c-0.2-0.3-0.2-0.6-0.2-1c0-0.4,0.1-0.7,0.2-1s0.4-0.5,0.7-0.7c0.3-0.2,0.7-0.2,1.1-0.2c0.4,0,0.7,0.1,1,0.2
				c0.3,0.1,0.5,0.4,0.7,0.6S335.4,96.9,335.4,97.3z M334.8,97.3c0-0.4-0.1-0.7-0.4-1c-0.2-0.2-0.6-0.4-1-0.4s-0.8,0.1-1,0.4
				c-0.2,0.2-0.4,0.6-0.4,1c0,0.4,0.1,0.7,0.4,1c0.2,0.2,0.6,0.4,1,0.4s0.8-0.1,1-0.4C334.7,98.1,334.8,97.7,334.8,97.3z"/>
			<path class="st8" d="M340.7,97.3c0,0.4-0.1,0.7-0.2,1c-0.2,0.3-0.4,0.5-0.7,0.6c-0.3,0.2-0.7,0.2-1.1,0.2c-0.4,0-0.7-0.1-1-0.2
				s-0.5-0.4-0.7-0.6c-0.2-0.3-0.2-0.6-0.2-1c0-0.4,0.1-0.7,0.2-1s0.4-0.5,0.7-0.7c0.3-0.2,0.7-0.2,1.1-0.2c0.4,0,0.7,0.1,1,0.2
				c0.3,0.1,0.5,0.4,0.7,0.6S340.7,96.9,340.7,97.3z M340.1,97.3c0-0.4-0.1-0.7-0.4-1c-0.2-0.2-0.6-0.4-1-0.4s-0.8,0.1-1,0.4
				c-0.2,0.2-0.4,0.6-0.4,1c0,0.4,0.1,0.7,0.4,1c0.2,0.2,0.6,0.4,1,0.4s0.8-0.1,1-0.4C340,98.1,340.1,97.7,340.1,97.3z"/>
			<path class="st8" d="M342.1,99.1v-3.5h0.6v3h2.2l-0.1,0.5H342.1z"/>
		</g>
		<g style="clip-path:url(#SVGID_00000055701892476280984350000003090039062180290975_);">
			<path class="st8" d="M143.1,164.5c0,0.6-0.5,1.1-1.2,1.1c-0.7,0-1.2-0.4-1.2-1.1c0-0.6,0.5-1.1,1.2-1.1
				C142.5,163.4,143.1,163.9,143.1,164.5z M141.1,164.5c0,0.4,0.4,0.7,0.8,0.7c0.5,0,0.8-0.3,0.8-0.7c0-0.4-0.3-0.7-0.8-0.7
				C141.4,163.8,141.1,164.1,141.1,164.5z M141.2,167.8V166h0.4v0.6h2.1V166h0.4v1.8H141.2z M143.8,166.9h-2.1v0.6h2.1V166.9z
				 M144.2,164.7v1h-0.4v-2.5h0.4v1.1h0.7v0.3H144.2z"/>
			<path class="st8" d="M148.6,165.6h0.7v0.3h-1.9v1.9H147V166h-1.9v-0.3h3.1c0.1-0.5,0.2-1.3,0.2-1.7h-2.7v-0.3h3.1
				C148.8,164.2,148.8,164.9,148.6,165.6z"/>
			<path class="st8" d="M149.8,163.6h2.5v0.3h-1c0,0.1,0,0.2,0,0.2c0,0.6,0.6,1.1,1.2,1.3l-0.2,0.3c-0.5-0.2-1-0.6-1.2-1
				c-0.1,0.4-0.7,1-1.2,1.2l-0.2-0.3c0.6-0.2,1.2-0.8,1.2-1.5c0-0.1,0-0.2,0-0.2h-1.1V163.6z M152,167.9c-1,0-1.6-0.3-1.6-0.9
				c0-0.5,0.6-0.9,1.6-0.9c1,0,1.6,0.3,1.6,0.9C153.5,167.5,153,167.9,152,167.9z M150.8,167c0,0.3,0.4,0.5,1.1,0.5
				c0.7,0,1.1-0.2,1.1-0.5c0-0.4-0.4-0.5-1.1-0.5C151.2,166.4,150.8,166.6,150.8,167z M152.1,164.8v-0.3h0.9v-1.2h0.4v2.9h-0.4v-1.3
				H152.1z"/>
			<path class="st8" d="M154.2,167.3v-0.3h1.9v-0.8h-1.4v-1.4h2.8V164h-2.8v-0.3h3.2v1.4h-2.8v0.8h2.9v0.3h-1.5v0.8h1.9v0.3H154.2z"
				/>
			<path class="st8" d="M161,166.2l0,0.3c-0.4,0.1-1,0.1-1.6,0.1h-0.5v-2.9h1.8v0.3h-1.4v2.2C159.9,166.4,160.5,166.3,161,166.2z
				 M160.3,165.4V165h1.1v-1.7h0.4v4.3h-0.4v-2.3H160.3z M162.3,167.9v-4.6h0.4v4.6H162.3z"/>
			<path class="st8" d="M165.6,166v0.9h1.9v0.3h-4.2v-0.3h1.9V166c-0.9-0.1-1.5-0.5-1.5-1.3c0-0.8,0.7-1.3,1.7-1.3
				c1,0,1.7,0.5,1.7,1.3C167.1,165.5,166.5,166,165.6,166z M165.4,163.9c-0.8,0-1.3,0.4-1.3,0.9s0.5,0.9,1.3,0.9
				c0.8,0,1.3-0.4,1.3-0.9S166.2,163.9,165.4,163.9z"/>
			<path class="st8" d="M170.3,164.6c0,0.7-0.5,1.1-1.2,1.1s-1.2-0.4-1.2-1.1c0-0.7,0.5-1.1,1.2-1.1S170.3,163.9,170.3,164.6z
				 M168.3,164.6c0,0.5,0.3,0.8,0.8,0.8c0.5,0,0.8-0.3,0.8-0.8c0-0.5-0.3-0.8-0.8-0.8C168.6,163.8,168.3,164.1,168.3,164.6z
				 M171.7,166.2v1.7h-0.4v-1.3h-2.7v-0.3H171.7z M170.4,163.9h0.8v-0.6h0.4v2.7h-0.4v-0.7h-0.8l0-0.3h0.8v-0.8h-0.8L170.4,163.9z"
				/>
		</g>
		<g style="clip-path:url(#SVGID_00000055701892476280984350000003090039062180290975_);">
			<path class="st8" d="M143.8,175.6l-0.4-0.9h-1.9l-0.4,0.9h-0.7l1.7-3.5h0.7l1.7,3.5H143.8z M142.5,172.6l-0.7,1.5h1.4
				L142.5,172.6z"/>
			<path class="st8" d="M145.8,175.6V172h1.7c0.5,0,0.8,0.1,1.1,0.3c0.2,0.2,0.4,0.5,0.4,0.8c0,0.4-0.1,0.7-0.4,0.9
				s-0.6,0.3-1.1,0.3h-1v1.3H145.8z M147.4,173.8c0.3,0,0.5-0.1,0.6-0.2c0.1-0.1,0.2-0.3,0.2-0.5c0-0.2-0.1-0.4-0.2-0.5
				s-0.3-0.1-0.6-0.1h-1v1.2H147.4z"/>
			<path class="st8" d="M153.3,174.2h-1.1v-0.5h1.7v1.5c-0.2,0.2-0.5,0.3-0.8,0.4s-0.6,0.1-0.9,0.1c-0.4,0-0.8-0.1-1.1-0.2
				c-0.3-0.1-0.5-0.4-0.7-0.6c-0.2-0.3-0.2-0.6-0.2-1c0-0.4,0.1-0.7,0.2-1s0.4-0.5,0.7-0.7c0.3-0.2,0.6-0.2,1.1-0.2
				c0.4,0,0.8,0.1,1.1,0.3s0.5,0.4,0.6,0.8l-0.6,0.1c-0.1-0.2-0.2-0.4-0.4-0.5s-0.4-0.2-0.7-0.2c-0.4,0-0.7,0.1-1,0.4
				c-0.2,0.2-0.3,0.6-0.3,1c0,0.4,0.1,0.8,0.4,1c0.2,0.2,0.6,0.3,1,0.3c0.4,0,0.8-0.1,1.1-0.2V174.2z"/>
			<path class="st8" d="M158,172h0.6v2.1c0,0.5-0.1,0.9-0.4,1.2c-0.3,0.3-0.7,0.4-1.3,0.4s-1-0.1-1.3-0.4c-0.3-0.3-0.4-0.6-0.4-1.2
				V172h0.6v2.1c0,0.3,0.1,0.6,0.3,0.7c0.2,0.2,0.4,0.2,0.8,0.2s0.6-0.1,0.8-0.2c0.2-0.2,0.3-0.4,0.3-0.7V172z"/>
			<path class="st8" d="M162.4,172h0.6v2.2c0,0.5-0.1,0.8-0.4,1c-0.3,0.2-0.6,0.4-1.1,0.4c-0.5,0-0.8-0.1-1.1-0.3s-0.4-0.5-0.5-0.9
				h0.6c0,0.2,0.1,0.4,0.3,0.5s0.4,0.2,0.6,0.2c0.3,0,0.5-0.1,0.7-0.2c0.1-0.1,0.2-0.4,0.2-0.7V172z"/>
			<path class="st8" d="M164.6,175.6V172h2.9v0.5h-2.2v0.9h2.1v0.5h-2.1v1h2.4l-0.1,0.5H164.6z"/>
			<path class="st8" d="M172.9,173.8c0,0.4-0.1,0.7-0.2,1s-0.4,0.5-0.7,0.7c-0.3,0.2-0.7,0.2-1.1,0.2c-0.4,0-0.7-0.1-1-0.2
				c-0.3-0.1-0.5-0.4-0.7-0.6c-0.2-0.3-0.2-0.6-0.2-1c0-0.4,0.1-0.7,0.2-1c0.2-0.3,0.4-0.5,0.7-0.7c0.3-0.2,0.7-0.2,1.1-0.2
				c0.4,0,0.7,0.1,1,0.2s0.5,0.4,0.7,0.6C172.8,173.1,172.9,173.4,172.9,173.8z M172.2,173.8c0-0.4-0.1-0.7-0.4-1
				c-0.2-0.2-0.6-0.4-1-0.4s-0.8,0.1-1,0.4c-0.2,0.2-0.4,0.6-0.4,1c0,0.4,0.1,0.7,0.4,1c0.2,0.2,0.6,0.4,1,0.4s0.8-0.1,1-0.4
				C172.1,174.5,172.2,174.2,172.2,173.8z"/>
			<path class="st8" d="M177.1,175.6l-2.2-2.7v2.7h-0.6V172h0.6l2.2,2.7V172h0.6v3.5H177.1z"/>
			<path class="st8" d="M182.3,174.2h-1.1v-0.5h1.7v1.5c-0.2,0.2-0.5,0.3-0.8,0.4s-0.6,0.1-0.9,0.1c-0.4,0-0.8-0.1-1.1-0.2
				c-0.3-0.1-0.5-0.4-0.7-0.6c-0.2-0.3-0.2-0.6-0.2-1c0-0.4,0.1-0.7,0.2-1s0.4-0.5,0.7-0.7c0.3-0.2,0.7-0.2,1.1-0.2
				c0.4,0,0.8,0.1,1.1,0.3s0.5,0.4,0.6,0.8l-0.6,0.1c-0.1-0.2-0.2-0.4-0.4-0.5s-0.4-0.2-0.7-0.2c-0.4,0-0.7,0.1-1,0.4
				c-0.2,0.2-0.3,0.6-0.3,1c0,0.4,0.1,0.8,0.4,1c0.2,0.2,0.6,0.3,1,0.3c0.4,0,0.8-0.1,1.1-0.2V174.2z"/>
			<path class="st8" d="M189.1,175.6l-0.8-1.4c0,0-0.1,0-0.1,0c0,0-0.1,0-0.1,0h-1v1.4h-0.6V172h1.7c0.9,0,1.4,0.4,1.4,1.1
				c0,0.5-0.2,0.8-0.7,0.9l0.9,1.5H189.1z M188.1,173.7c0.3,0,0.5,0,0.6-0.1c0.1-0.1,0.2-0.2,0.2-0.4c0-0.2-0.1-0.3-0.2-0.4
				c-0.1-0.1-0.3-0.1-0.6-0.1h-1.1v1.1H188.1z"/>
			<path class="st8" d="M194.8,173.8c0,0.4-0.1,0.7-0.2,1s-0.4,0.5-0.7,0.7c-0.3,0.2-0.7,0.2-1.1,0.2c-0.4,0-0.7-0.1-1-0.2
				c-0.3-0.1-0.5-0.4-0.7-0.6c-0.2-0.3-0.2-0.6-0.2-1c0-0.4,0.1-0.7,0.2-1c0.2-0.3,0.4-0.5,0.7-0.7c0.3-0.2,0.7-0.2,1.1-0.2
				c0.4,0,0.7,0.1,1,0.2s0.5,0.4,0.7,0.6C194.7,173.1,194.8,173.4,194.8,173.8z M194.2,173.8c0-0.4-0.1-0.7-0.4-1
				c-0.2-0.2-0.6-0.4-1-0.4s-0.8,0.1-1,0.4c-0.2,0.2-0.4,0.6-0.4,1c0,0.4,0.1,0.7,0.4,1c0.2,0.2,0.6,0.4,1,0.4s0.8-0.1,1-0.4
				C194,174.5,194.2,174.2,194.2,173.8z"/>
			<path class="st8" d="M196.2,175.6V172h1.5c0.7,0,1.2,0.2,1.5,0.5c0.3,0.3,0.5,0.7,0.5,1.3c0,0.6-0.2,1-0.6,1.3
				c-0.4,0.3-0.9,0.5-1.6,0.5H196.2z M197.7,175c0.5,0,0.8-0.1,1.1-0.3c0.2-0.2,0.4-0.5,0.4-0.9c0-0.8-0.5-1.2-1.4-1.2h-0.9v2.5
				H197.7z"/>
			<path class="st8" d="M201.2,175.6V172h2.9v0.5h-2.2v0.9h2.1v0.5h-2.1v1h2.4l-0.1,0.5H201.2z"/>
			<path class="st8" d="M209.5,173.8c0,0.4-0.1,0.7-0.2,1s-0.4,0.5-0.7,0.7c-0.3,0.2-0.7,0.2-1.1,0.2c-0.4,0-0.7-0.1-1-0.2
				c-0.3-0.1-0.5-0.4-0.7-0.6c-0.2-0.3-0.2-0.6-0.2-1c0-0.4,0.1-0.7,0.2-1c0.2-0.3,0.4-0.5,0.7-0.7c0.3-0.2,0.7-0.2,1.1-0.2
				c0.4,0,0.7,0.1,1,0.2s0.5,0.4,0.7,0.6C209.4,173.1,209.5,173.4,209.5,173.8z M208.8,173.8c0-0.4-0.1-0.7-0.4-1
				c-0.2-0.2-0.6-0.4-1-0.4s-0.8,0.1-1,0.4c-0.2,0.2-0.4,0.6-0.4,1c0,0.4,0.1,0.7,0.4,1c0.2,0.2,0.6,0.4,1,0.4s0.8-0.1,1-0.4
				C208.7,174.5,208.8,174.2,208.8,173.8z"/>
			<path class="st8" d="M143.3,178.9c-0.1-0.1-0.1-0.2-0.2-0.3c-0.1-0.1-0.2-0.1-0.3-0.2c-0.1,0-0.3-0.1-0.5-0.1
				c-0.3,0-0.6,0-0.7,0.1c-0.2,0.1-0.3,0.2-0.3,0.4c0,0.1,0.1,0.3,0.2,0.3c0.1,0.1,0.3,0.1,0.6,0.2l0.7,0.1c0.4,0.1,0.7,0.2,0.9,0.3
				s0.3,0.4,0.3,0.7c0,0.3-0.1,0.6-0.4,0.8s-0.7,0.3-1.2,0.3c-0.6,0-1-0.1-1.3-0.3c-0.3-0.2-0.5-0.5-0.5-0.9h0.6
				c0,0.2,0.2,0.4,0.3,0.5c0.2,0.1,0.5,0.2,0.8,0.2c0.3,0,0.6,0,0.7-0.1s0.3-0.2,0.3-0.4c0-0.1-0.1-0.3-0.2-0.3
				c-0.1-0.1-0.3-0.1-0.5-0.2l-0.6-0.1c-0.3,0-0.6-0.1-0.8-0.2c-0.2-0.1-0.3-0.2-0.4-0.3c-0.1-0.1-0.1-0.3-0.1-0.5
				c0-0.3,0.1-0.6,0.4-0.7c0.3-0.2,0.7-0.3,1.2-0.3c0.3,0,0.6,0,0.8,0.1s0.4,0.2,0.5,0.3s0.2,0.3,0.3,0.6L143.3,178.9z"/>
			<path class="st8" d="M146.4,181.5v-3H145V178h3.5v0.5h-1.4v3H146.4z"/>
			<path class="st8" d="M152,181.5l-0.4-0.9h-1.9l-0.4,0.9h-0.7l1.7-3.5h0.7l1.7,3.5H152z M150.7,178.6l-0.7,1.5h1.4L150.7,178.6z"
				/>
			<path class="st8" d="M154.3,181.5v-3h-1.4V178h3.5v0.5h-1.4v3H154.3z"/>
			<path class="st8" d="M157.6,181.5V178h0.6v3.5H157.6z"/>
			<path class="st8" d="M163.7,179.7c0,0.4-0.1,0.7-0.2,1s-0.4,0.5-0.7,0.7c-0.3,0.2-0.7,0.2-1.1,0.2c-0.4,0-0.7-0.1-1-0.2
				c-0.3-0.1-0.5-0.4-0.7-0.6c-0.2-0.3-0.2-0.6-0.2-1c0-0.4,0.1-0.7,0.2-1c0.2-0.3,0.4-0.5,0.7-0.7c0.3-0.2,0.7-0.2,1.1-0.2
				c0.4,0,0.7,0.1,1,0.2s0.5,0.4,0.7,0.6C163.6,179,163.7,179.4,163.7,179.7z M163,179.7c0-0.4-0.1-0.7-0.4-1
				c-0.2-0.2-0.6-0.4-1-0.4s-0.8,0.1-1,0.4c-0.2,0.2-0.4,0.6-0.4,1c0,0.4,0.1,0.7,0.4,1c0.2,0.2,0.6,0.4,1,0.4s0.8-0.1,1-0.4
				C162.9,180.5,163,180.2,163,179.7z"/>
			<path class="st8" d="M167.9,181.5l-2.2-2.7v2.7h-0.6V178h0.6l2.2,2.7V178h0.6v3.5H167.9z"/>
		</g>
		<g style="clip-path:url(#SVGID_00000055701892476280984350000003090039062180290975_);">
			<path class="st8" d="M315.3,295.9h2.5v0.3h-1c0,0.6,0.6,1.1,1.1,1.2l-0.2,0.3c-0.4-0.1-0.9-0.5-1.1-0.9c-0.1,0.4-0.6,0.9-1.2,1.1
				l-0.2-0.3c0.6-0.2,1.2-0.7,1.2-1.3h-1.1V295.9z M317.4,299.7c-1,0-1.6-0.3-1.6-0.8c0-0.5,0.6-0.9,1.6-0.9s1.6,0.3,1.6,0.9
				C319,299.4,318.4,299.7,317.4,299.7z M315.9,295.2h1.3v0.4h-1.3V295.2z M317.4,298.3c-0.7,0-1.2,0.2-1.2,0.5s0.5,0.5,1.2,0.5
				c0.7,0,1.2-0.2,1.2-0.5S318.2,298.3,317.4,298.3z M319,298h-0.4v-1.1h-0.9v-0.3h0.9v-1.5h0.4V298z"/>
			<path class="st8" d="M320.5,297c0.6,0,1.4-0.1,1.8-0.2l0,0.3c-0.5,0.1-1.3,0.2-2.1,0.2h-0.4v-2h2.1v0.3h-1.7v1.3H320.5z
				 M320.4,299.6v-1.7h2.9v1.7H320.4z M322.9,298.3h-2.1v1h2.1V298.3z M323.3,296.6v1.1h-0.4v-2.6h0.4v1.2h0.7v0.3H323.3z"/>
			<path class="st8" d="M326.7,298.6c-0.5-0.3-1-0.9-1.2-1.4c-0.2,0.6-0.6,1.2-1.2,1.5l-0.3-0.3c0.7-0.4,1.2-1.2,1.2-2.1v-0.8h0.4
				v0.8c0,0.8,0.6,1.6,1.2,2L326.7,298.6z M327.8,297.3v2.4h-0.4v-4.6h0.4v1.9h0.7v0.3H327.8z"/>
			<path class="st8" d="M329,298.8l-0.2-0.3c1.2-0.5,1.8-1.5,1.9-2.6H329v-0.3h2.2C331.1,297.1,330.2,298.2,329,298.8z M331.2,297.3
				v-0.3h1.1v-1.9h0.4v4.6h-0.4v-2.4H331.2z"/>
			<path class="st8" d="M336.4,298.4c-0.5,0.1-1.3,0.2-2.3,0.2h-0.5v-1.8h1.8v-1h-1.8v-0.3h2.2v1.6H334v1.1h0.1c0.7,0,1.7,0,2.2-0.1
				L336.4,298.4z M337.2,295.1v4.6h-0.4v-4.6H337.2z"/>
		</g>
		<g style="clip-path:url(#SVGID_00000055701892476280984350000003090039062180290975_);">
			<path class="st8" d="M297.2,306.2c-0.1,0.4-0.3,0.7-0.6,0.9c-0.3,0.2-0.7,0.3-1.2,0.3c-0.4,0-0.7-0.1-1-0.2
				c-0.3-0.1-0.5-0.4-0.7-0.6s-0.2-0.6-0.2-1c0-0.4,0.1-0.7,0.2-1s0.4-0.5,0.7-0.7s0.6-0.2,1-0.2c0.9,0,1.5,0.4,1.7,1.2l-0.6,0.1
				c-0.1-0.3-0.2-0.5-0.4-0.6c-0.2-0.1-0.4-0.2-0.7-0.2c-0.4,0-0.7,0.1-0.9,0.4c-0.2,0.2-0.3,0.6-0.3,1c0,0.4,0.1,0.7,0.3,1
				c0.2,0.2,0.5,0.4,0.9,0.4c0.3,0,0.6-0.1,0.8-0.2s0.3-0.3,0.4-0.6H297.2z"/>
			<path class="st8" d="M301.4,307.4v-1.5h-2.1v1.5h-0.6v-3.5h0.6v1.4h2.1v-1.4h0.6v3.5H301.4z"/>
			<path class="st8" d="M303.6,307.4v-3.5h2.9v0.5h-2.2v0.9h2.1v0.5h-2.1v1h2.4l-0.1,0.5H303.6z"/>
			<path class="st8" d="M311.9,305.6c0,0.4-0.1,0.7-0.2,1s-0.4,0.5-0.7,0.7c-0.3,0.2-0.7,0.2-1.1,0.2c-0.4,0-0.7-0.1-1-0.2
				c-0.3-0.1-0.5-0.4-0.7-0.6c-0.2-0.3-0.2-0.6-0.2-1c0-0.4,0.1-0.7,0.2-1c0.2-0.3,0.4-0.5,0.7-0.7c0.3-0.2,0.7-0.2,1.1-0.2
				c0.4,0,0.7,0.1,1,0.2s0.5,0.4,0.7,0.6C311.8,304.9,311.9,305.2,311.9,305.6z M311.2,305.6c0-0.4-0.1-0.7-0.4-1
				c-0.2-0.2-0.6-0.4-1-0.4s-0.8,0.1-1,0.4c-0.2,0.2-0.4,0.6-0.4,1c0,0.4,0.1,0.7,0.4,1c0.2,0.2,0.6,0.4,1,0.4s0.8-0.1,1-0.4
				C311.1,306.4,311.2,306,311.2,305.6z"/>
			<path class="st8" d="M316.1,307.4l-2.2-2.7v2.7h-0.6v-3.5h0.6l2.2,2.7v-2.7h0.6v3.5H316.1z"/>
			<path class="st8" d="M321.3,306h-1.1v-0.5h1.7v1.5c-0.2,0.2-0.5,0.3-0.8,0.4s-0.6,0.1-0.9,0.1c-0.4,0-0.8-0.1-1.1-0.2
				c-0.3-0.1-0.5-0.4-0.7-0.6c-0.2-0.3-0.2-0.6-0.2-1c0-0.4,0.1-0.7,0.2-1c0.2-0.3,0.4-0.5,0.7-0.7c0.3-0.2,0.7-0.2,1.1-0.2
				c0.4,0,0.8,0.1,1.1,0.3s0.5,0.4,0.6,0.8l-0.6,0.1c-0.1-0.2-0.2-0.4-0.4-0.5c-0.2-0.1-0.4-0.2-0.7-0.2c-0.4,0-0.7,0.1-1,0.4
				s-0.3,0.6-0.3,1c0,0.4,0.1,0.8,0.4,1c0.2,0.2,0.6,0.3,1,0.3c0.4,0,0.8-0.1,1.1-0.2V306z"/>
			<path class="st8" d="M323.4,307.4v-3.5h1.5c0.7,0,1.2,0.2,1.5,0.5c0.3,0.3,0.5,0.7,0.5,1.3c0,0.6-0.2,1-0.6,1.3
				c-0.4,0.3-0.9,0.5-1.6,0.5H323.4z M324.8,306.9c0.5,0,0.8-0.1,1.1-0.3c0.2-0.2,0.4-0.5,0.4-0.9c0-0.8-0.5-1.2-1.4-1.2H324v2.5
				H324.8z"/>
			<path class="st8" d="M331.1,307.4l-0.4-0.9h-1.9l-0.4,0.9h-0.7l1.7-3.5h0.7l1.7,3.5H331.1z M329.8,304.5l-0.7,1.5h1.4
				L329.8,304.5z"/>
			<path class="st8" d="M336.7,307.4v-2.6l-1.3,2.6h-0.5l-1.3-2.6v2.6h-0.6v-3.5h0.8l1.4,2.9l1.4-2.9h0.7v3.5H336.7z"/>
			<path class="st8" d="M298.9,312.1c-0.1,0.4-0.3,0.7-0.6,0.9c-0.3,0.2-0.7,0.3-1.2,0.3c-0.4,0-0.7-0.1-1-0.2
				c-0.3-0.1-0.5-0.4-0.7-0.6s-0.2-0.6-0.2-1c0-0.4,0.1-0.7,0.2-1s0.4-0.5,0.7-0.7s0.6-0.2,1-0.2c0.9,0,1.5,0.4,1.7,1.2l-0.6,0.1
				c-0.1-0.3-0.2-0.5-0.4-0.6c-0.2-0.1-0.4-0.2-0.7-0.2c-0.4,0-0.7,0.1-0.9,0.4c-0.2,0.2-0.3,0.6-0.3,1c0,0.4,0.1,0.7,0.3,1
				c0.2,0.2,0.5,0.4,0.9,0.4c0.3,0,0.6-0.1,0.8-0.2s0.3-0.3,0.4-0.6H298.9z"/>
			<path class="st8" d="M303,313.3l-0.8-1.4c0,0-0.1,0-0.1,0c0,0-0.1,0-0.1,0h-1v1.4h-0.6v-3.5h1.7c0.9,0,1.4,0.4,1.4,1.1
				c0,0.5-0.2,0.8-0.7,0.9l0.9,1.5H303z M302,311.4c0.3,0,0.5,0,0.6-0.1c0.1-0.1,0.2-0.2,0.2-0.4c0-0.2-0.1-0.3-0.2-0.4
				c-0.1-0.1-0.3-0.1-0.6-0.1H301v1.1H302z"/>
			<path class="st8" d="M308.7,311.6c0,0.4-0.1,0.7-0.2,1s-0.4,0.5-0.7,0.7c-0.3,0.2-0.7,0.2-1.1,0.2c-0.4,0-0.7-0.1-1-0.2
				c-0.3-0.1-0.5-0.4-0.7-0.6c-0.2-0.3-0.2-0.6-0.2-1c0-0.4,0.1-0.7,0.2-1c0.2-0.3,0.4-0.5,0.7-0.7c0.3-0.2,0.7-0.2,1.1-0.2
				c0.4,0,0.7,0.1,1,0.2s0.5,0.4,0.7,0.6C308.6,310.8,308.7,311.2,308.7,311.6z M308.1,311.6c0-0.4-0.1-0.7-0.4-1
				c-0.2-0.2-0.6-0.4-1-0.4s-0.8,0.1-1,0.4c-0.2,0.2-0.4,0.6-0.4,1c0,0.4,0.1,0.7,0.4,1c0.2,0.2,0.6,0.4,1,0.4s0.8-0.1,1-0.4
				C307.9,312.3,308.1,312,308.1,311.6z"/>
			<path class="st8" d="M312.7,310.8c-0.1-0.1-0.1-0.2-0.2-0.3c-0.1-0.1-0.2-0.1-0.3-0.2c-0.1,0-0.3-0.1-0.5-0.1
				c-0.3,0-0.6,0-0.7,0.1s-0.3,0.2-0.3,0.4c0,0.1,0.1,0.3,0.2,0.3c0.1,0.1,0.3,0.1,0.6,0.2l0.7,0.1c0.4,0.1,0.7,0.2,0.9,0.3
				c0.2,0.2,0.3,0.4,0.3,0.7c0,0.3-0.1,0.6-0.4,0.8s-0.7,0.3-1.2,0.3c-0.6,0-1-0.1-1.3-0.3c-0.3-0.2-0.5-0.5-0.5-0.9h0.6
				c0,0.2,0.2,0.4,0.3,0.5c0.2,0.1,0.5,0.2,0.8,0.2c0.3,0,0.6,0,0.7-0.1s0.3-0.2,0.3-0.4c0-0.1-0.1-0.3-0.2-0.3
				c-0.1-0.1-0.3-0.1-0.5-0.2l-0.6-0.1c-0.3,0-0.6-0.1-0.8-0.2c-0.2-0.1-0.3-0.2-0.4-0.3c-0.1-0.1-0.1-0.3-0.1-0.5
				c0-0.3,0.1-0.6,0.4-0.7c0.3-0.2,0.7-0.3,1.2-0.3c0.3,0,0.6,0,0.8,0.1c0.2,0.1,0.4,0.2,0.5,0.3c0.1,0.1,0.2,0.3,0.3,0.6
				L312.7,310.8z"/>
			<path class="st8" d="M317.3,310.8c-0.1-0.1-0.1-0.2-0.2-0.3c-0.1-0.1-0.2-0.1-0.3-0.2c-0.1,0-0.3-0.1-0.5-0.1
				c-0.3,0-0.6,0-0.7,0.1s-0.3,0.2-0.3,0.4c0,0.1,0.1,0.3,0.2,0.3c0.1,0.1,0.3,0.1,0.6,0.2l0.7,0.1c0.4,0.1,0.7,0.2,0.9,0.3
				c0.2,0.2,0.3,0.4,0.3,0.7c0,0.3-0.1,0.6-0.4,0.8s-0.7,0.3-1.2,0.3c-0.6,0-1-0.1-1.3-0.3c-0.3-0.2-0.5-0.5-0.5-0.9h0.6
				c0,0.2,0.2,0.4,0.3,0.5c0.2,0.1,0.5,0.2,0.8,0.2c0.3,0,0.6,0,0.7-0.1s0.3-0.2,0.3-0.4c0-0.1-0.1-0.3-0.2-0.3
				c-0.1-0.1-0.3-0.1-0.5-0.2l-0.6-0.1c-0.3,0-0.6-0.1-0.8-0.2c-0.2-0.1-0.3-0.2-0.4-0.3c-0.1-0.1-0.1-0.3-0.1-0.5
				c0-0.3,0.1-0.6,0.4-0.7c0.3-0.2,0.7-0.3,1.2-0.3c0.3,0,0.6,0,0.8,0.1c0.2,0.1,0.4,0.2,0.5,0.3c0.1,0.1,0.2,0.3,0.3,0.6
				L317.3,310.8z"/>
			<path class="st8" d="M322,313.3l-0.8-1.4c0,0-0.1,0-0.1,0s-0.1,0-0.1,0h-1v1.4h-0.6v-3.5h1.7c0.9,0,1.4,0.4,1.4,1.1
				c0,0.5-0.2,0.8-0.7,0.9l0.9,1.5H322z M321.1,311.4c0.3,0,0.5,0,0.6-0.1c0.1-0.1,0.2-0.2,0.2-0.4c0-0.2-0.1-0.3-0.2-0.4
				c-0.1-0.1-0.3-0.1-0.6-0.1H320v1.1H321.1z"/>
			<path class="st8" d="M327.8,311.6c0,0.4-0.1,0.7-0.2,1c-0.2,0.3-0.4,0.5-0.7,0.7s-0.7,0.2-1.1,0.2c-0.4,0-0.7-0.1-1-0.2
				c-0.3-0.1-0.5-0.4-0.7-0.6c-0.2-0.3-0.2-0.6-0.2-1c0-0.4,0.1-0.7,0.2-1c0.2-0.3,0.4-0.5,0.7-0.7c0.3-0.2,0.7-0.2,1.1-0.2
				c0.4,0,0.7,0.1,1,0.2s0.5,0.4,0.7,0.6C327.7,310.8,327.8,311.2,327.8,311.6z M327.1,311.6c0-0.4-0.1-0.7-0.4-1
				c-0.2-0.2-0.6-0.4-1-0.4c-0.4,0-0.8,0.1-1,0.4c-0.2,0.2-0.4,0.6-0.4,1c0,0.4,0.1,0.7,0.4,1c0.2,0.2,0.6,0.4,1,0.4
				c0.4,0,0.8-0.1,1-0.4C327,312.3,327.1,312,327.1,311.6z"/>
			<path class="st8" d="M332,313.3l-0.4-0.9h-1.9l-0.4,0.9h-0.7l1.7-3.5h0.7l1.7,3.5H332z M330.6,310.4l-0.7,1.5h1.4L330.6,310.4z"
				/>
			<path class="st8" d="M333.9,313.3v-3.5h1.5c0.7,0,1.2,0.2,1.5,0.5c0.3,0.3,0.5,0.7,0.5,1.3c0,0.6-0.2,1-0.6,1.3
				c-0.4,0.3-0.9,0.5-1.6,0.5H333.9z M335.4,312.8c0.5,0,0.8-0.1,1.1-0.3c0.2-0.2,0.4-0.5,0.4-0.9c0-0.8-0.5-1.2-1.4-1.2h-0.9v2.5
				H335.4z"/>
		</g>
		<g style="clip-path:url(#SVGID_00000055701892476280984350000003090039062180290975_);">
			<path class="st8" d="M514.2,151.8v0.3h1.9v0.3h-4.2v-0.3h1.9v-0.3c-0.9,0-1.4-0.3-1.4-0.8c0-0.5,0.6-0.8,1.6-0.8
				c1,0,1.6,0.3,1.6,0.8C515.6,151.5,515.1,151.7,514.2,151.8z M512.4,154.7v-1.1h2.8v-0.4h-2.8v-0.3h3.2v1h-2.8v0.5h2.9v0.3H512.4z
				 M512.8,151c0,0.3,0.5,0.5,1.2,0.5c0.7,0,1.2-0.2,1.2-0.5c0-0.3-0.5-0.5-1.2-0.5C513.3,150.5,512.8,150.7,512.8,151z"/>
			<path class="st8" d="M519.2,152.5c-0.5,0.1-1.2,0.1-2.1,0.1h-0.5v-1.3h1.7v-0.6h-1.8v-0.3h2.2v1.3h-1.7v0.7c0.7,0,1.6,0,2.1-0.1
				L519.2,152.5z M517.1,154.6v-1.6h3.1v1.6H517.1z M519.8,153.4h-2.3v0.9h2.3V153.4z M519.8,152.8v-2.8h0.4v2.8H519.8z"/>
			<path class="st8" d="M523.1,152.2c0.3,0,0.6,0,0.8-0.1l0,0.3c-0.3,0.1-0.9,0.1-1.4,0.1c-0.5,0-1.1,0-1.5,0l-0.1-0.4
				c0.2,0,0.4,0,0.7,0l-0.1-1.3l0.4-0.1l0.1,1.3c0.2,0,0.4,0,0.6,0c0,0,0.1,0,0.1,0l0.1-1.3l0.4,0.1L523.1,152.2z M521.1,150.7v-0.3
				h2.6v0.3H521.1z M524.8,153.1v1.6h-0.4v-1.3h-2.7v-0.3H524.8z M524.4,152.8v-2.8h0.4v2.8H524.4z"/>
			<path class="st8" d="M526.2,153.2c0.5,0,1.2,0,1.6-0.1l0,0.3c-0.4,0.1-1.2,0.1-1.8,0.1h-0.3v-2.9h1.8v0.3h-1.4v2.2H526.2z
				 M529,154.7v-2.5h-0.6v2.2H528v-4.3h0.4v1.7h0.6v-1.8h0.4v4.6H529z"/>
			<path class="st8" d="M530.1,154.1v-0.3h1.9V153h-1.4v-1.4h2.8v-0.7h-2.8v-0.3h3.2v1.4H531v0.8h2.9v0.3h-1.5v0.8h1.9v0.3H530.1z"
				/>
		</g>
		<g style="clip-path:url(#SVGID_00000055701892476280984350000003090039062180290975_);">
			<path class="st8" d="M508.8,160.6c0,0.4-0.1,0.7-0.2,1c-0.2,0.3-0.4,0.5-0.7,0.7s-0.7,0.2-1.1,0.2c-0.4,0-0.7-0.1-1-0.2
				c-0.3-0.1-0.5-0.4-0.7-0.6c-0.2-0.3-0.2-0.6-0.2-1c0-0.4,0.1-0.7,0.2-1c0.2-0.3,0.4-0.5,0.7-0.7c0.3-0.2,0.7-0.2,1.1-0.2
				c0.4,0,0.7,0.1,1,0.2s0.5,0.4,0.7,0.6C508.7,159.9,508.8,160.3,508.8,160.6z M508.1,160.6c0-0.4-0.1-0.7-0.4-1
				c-0.2-0.2-0.6-0.4-1-0.4c-0.4,0-0.8,0.1-1,0.4c-0.2,0.2-0.4,0.6-0.4,1c0,0.4,0.1,0.7,0.4,1c0.2,0.2,0.6,0.4,1,0.4
				c0.4,0,0.8-0.1,1-0.4C508,161.4,508.1,161.1,508.1,160.6z"/>
			<path class="st8" d="M510.2,162.4v-3.5h0.6v3h2.2l-0.1,0.5H510.2z"/>
			<path class="st8" d="M514.7,162.4V161l-1.5-2.1h0.7l1.1,1.6l1.1-1.6h0.7l-1.5,2.1v1.4H514.7z"/>
			<path class="st8" d="M521.7,162.4v-2.6l-1.3,2.6h-0.5l-1.3-2.6v2.6h-0.6v-3.5h0.8l1.4,2.9l1.4-2.9h0.7v3.5H521.7z"/>
			<path class="st8" d="M523.9,162.4v-3.5h1.7c0.5,0,0.8,0.1,1.1,0.3s0.4,0.5,0.4,0.8c0,0.4-0.1,0.7-0.4,0.9s-0.6,0.3-1.1,0.3h-1
				v1.3H523.9z M525.6,160.6c0.3,0,0.5-0.1,0.6-0.2s0.2-0.3,0.2-0.5c0-0.2-0.1-0.4-0.2-0.5c-0.1-0.1-0.3-0.1-0.6-0.1h-1v1.2H525.6z"
				/>
			<path class="st8" d="M528.4,162.4v-3.5h0.6v3.5H528.4z"/>
			<path class="st8" d="M534.2,161.2c-0.1,0.4-0.3,0.7-0.6,0.9c-0.3,0.2-0.7,0.3-1.2,0.3c-0.4,0-0.7-0.1-1-0.2
				c-0.3-0.1-0.5-0.4-0.7-0.6c-0.2-0.3-0.2-0.6-0.2-1c0-0.4,0.1-0.7,0.2-1c0.2-0.3,0.4-0.5,0.7-0.7s0.6-0.2,1-0.2
				c0.9,0,1.5,0.4,1.7,1.2l-0.6,0.1c-0.1-0.3-0.2-0.5-0.4-0.6c-0.2-0.1-0.4-0.2-0.7-0.2c-0.4,0-0.7,0.1-0.9,0.4s-0.3,0.6-0.3,1
				c0,0.4,0.1,0.7,0.3,1c0.2,0.2,0.5,0.4,0.9,0.4c0.3,0,0.6-0.1,0.8-0.2c0.2-0.1,0.3-0.3,0.4-0.6H534.2z"/>
			<path class="st8" d="M493.5,168.3v-3.5h1.6c0.9,0,1.4,0.3,1.4,0.9c0,0.4-0.2,0.6-0.6,0.8c0.5,0.2,0.7,0.4,0.7,0.8
				c0,0.3-0.1,0.6-0.4,0.8c-0.2,0.2-0.6,0.3-1.1,0.3H493.5z M495.2,166.3c0.3,0,0.5,0,0.6-0.1s0.2-0.2,0.2-0.4
				c0-0.2-0.1-0.3-0.2-0.4c-0.1-0.1-0.3-0.1-0.6-0.1h-1v1H495.2z M495.2,167.8c0.3,0,0.5,0,0.7-0.1c0.1-0.1,0.2-0.2,0.2-0.4
				c0-0.2-0.1-0.3-0.2-0.4c-0.1-0.1-0.4-0.1-0.7-0.1h-1.1v1.1H495.2z"/>
			<path class="st8" d="M501.9,166.6c0,0.4-0.1,0.7-0.2,1c-0.2,0.3-0.4,0.5-0.7,0.7s-0.7,0.2-1.1,0.2c-0.4,0-0.7-0.1-1-0.2
				c-0.3-0.1-0.5-0.4-0.7-0.6c-0.2-0.3-0.2-0.6-0.2-1c0-0.4,0.1-0.7,0.2-1c0.2-0.3,0.4-0.5,0.7-0.7c0.3-0.2,0.7-0.2,1.1-0.2
				c0.4,0,0.7,0.1,1,0.2s0.5,0.4,0.7,0.6C501.8,165.9,501.9,166.2,501.9,166.6z M501.3,166.6c0-0.4-0.1-0.7-0.4-1
				c-0.2-0.2-0.6-0.4-1-0.4c-0.4,0-0.8,0.1-1,0.4c-0.2,0.2-0.4,0.6-0.4,1c0,0.4,0.1,0.7,0.4,1c0.2,0.2,0.6,0.4,1,0.4
				c0.4,0,0.8-0.1,1-0.4C501.1,167.3,501.3,167,501.3,166.6z"/>
			<path class="st8" d="M506.1,164.8h0.6v2.1c0,0.5-0.1,0.9-0.4,1.2c-0.3,0.3-0.7,0.4-1.3,0.4s-1-0.1-1.3-0.4
				c-0.3-0.3-0.4-0.6-0.4-1.2v-2.1h0.6v2.1c0,0.3,0.1,0.6,0.3,0.7c0.2,0.2,0.4,0.2,0.8,0.2s0.6-0.1,0.8-0.2c0.2-0.2,0.3-0.4,0.3-0.7
				V164.8z"/>
			<path class="st8" d="M508.3,168.3v-3.5h0.6v3h2.2l-0.1,0.5H508.3z"/>
			<path class="st8" d="M512.5,168.3v-3.5h2.9v0.5h-2.2v0.9h2.1v0.5h-2.1v1h2.4l-0.1,0.5H512.5z"/>
			<path class="st8" d="M518.1,168.3l-1.6-3.5h0.7l1.2,2.9l1.2-2.9h0.7l-1.6,3.5H518.1z"/>
			<path class="st8" d="M524.1,168.3l-0.4-0.9h-1.9l-0.4,0.9h-0.7l1.7-3.5h0.7l1.7,3.5H524.1z M522.7,165.4l-0.7,1.5h1.4
				L522.7,165.4z"/>
			<path class="st8" d="M528.6,168.3l-0.8-1.4c0,0-0.1,0-0.1,0c0,0-0.1,0-0.1,0h-1v1.4H526v-3.5h1.7c0.9,0,1.4,0.4,1.4,1.1
				c0,0.5-0.2,0.8-0.7,0.9l0.9,1.5H528.6z M527.7,166.4c0.3,0,0.5,0,0.6-0.1c0.1-0.1,0.2-0.2,0.2-0.4c0-0.2-0.1-0.3-0.2-0.4
				c-0.1-0.1-0.3-0.1-0.6-0.1h-1.1v1.1H527.7z"/>
			<path class="st8" d="M530.6,168.3v-3.5h1.5c0.7,0,1.2,0.2,1.5,0.5c0.3,0.3,0.5,0.7,0.5,1.3c0,0.6-0.2,1-0.6,1.3
				c-0.4,0.3-0.9,0.5-1.6,0.5H530.6z M532.1,167.8c0.5,0,0.8-0.1,1.1-0.3c0.2-0.2,0.4-0.5,0.4-0.9c0-0.8-0.5-1.2-1.4-1.2h-0.9v2.5
				H532.1z"/>
		</g>
		<g style="clip-path:url(#SVGID_00000055701892476280984350000003090039062180290975_);">
			<path class="st9" d="M384.2-48.5v-0.3h2.7v0.3H384.2z M385.5-46.6c-0.6,0-1.1-0.3-1.1-0.8c0-0.5,0.5-0.8,1.1-0.8
				c0.6,0,1.1,0.3,1.1,0.8C386.6-46.9,386.1-46.6,385.5-46.6z M385.5-47.9c-0.4,0-0.7,0.2-0.7,0.5c0,0.3,0.3,0.5,0.7,0.5
				c0.4,0,0.7-0.2,0.7-0.5C386.2-47.7,385.9-47.9,385.5-47.9z M384.8-49.2v-0.4h1.3v0.4H384.8z M384.8-45.2v-1.2h0.4v0.8h2.7v0.3
				H384.8z M387.8-47.8v1.5h-0.4v-3.4h0.4v1.6h0.7v0.3H387.8z"/>
			<path class="st9" d="M391-49.3c-0.1,1.2-1,2.1-2.1,2.4l-0.2-0.3c0.9-0.2,1.8-1,1.9-1.8h-1.7v-0.3H391z M390.8-45
				c-1,0-1.6-0.3-1.6-0.9c0-0.6,0.6-0.9,1.6-0.9c1,0,1.6,0.3,1.6,0.9C392.4-45.4,391.8-45,390.8-45z M389.7-45.9
				c0,0.4,0.4,0.6,1.1,0.6c0.7,0,1.1-0.2,1.1-0.6c0-0.4-0.4-0.6-1.1-0.6C390.1-46.5,389.7-46.3,389.7-45.9z M392.3-48v1.2h-0.4v-2.9
				h0.4v1.3h0.7v0.3H392.3z"/>
		</g>
		<g style="clip-path:url(#SVGID_00000055701892476280984350000003090039062180290975_);">
			<path class="st9" d="M372.8-37.3v-1.5h-2.1v1.5h-0.6v-3.5h0.6v1.4h2.1v-1.4h0.6v3.5H372.8z"/>
			<path class="st9" d="M378.1-37.3l-0.4-0.9h-1.9l-0.4,0.9h-0.7l1.7-3.5h0.7l1.7,3.5H378.1z M376.7-40.3l-0.7,1.5h1.4L376.7-40.3z"
				/>
			<path class="st9" d="M382.8-37.3l-2.2-2.7v2.7H380v-3.5h0.6l2.2,2.7v-2.7h0.6v3.5H382.8z"/>
			<path class="st9" d="M384.9-38.9v-0.5h1.9v0.5H384.9z"/>
			<path class="st9" d="M390.8-37.3l-0.8-1.4c0,0-0.1,0-0.1,0c0,0-0.1,0-0.1,0h-1v1.4h-0.6v-3.5h1.7c0.9,0,1.4,0.4,1.4,1.1
				c0,0.5-0.2,0.8-0.7,0.9l0.9,1.5H390.8z M389.8-39.2c0.3,0,0.5,0,0.6-0.1c0.1-0.1,0.2-0.2,0.2-0.4c0-0.2-0.1-0.3-0.2-0.4
				c-0.1-0.1-0.3-0.1-0.6-0.1h-1.1v1.1H389.8z"/>
			<path class="st9" d="M392.8-37.3v-3.5h0.6v3.5H392.8z"/>
			<path class="st9" d="M396.2-37.3l-1.6-3.5h0.7l1.2,2.9l1.2-2.9h0.7l-1.6,3.5H396.2z"/>
			<path class="st9" d="M399.7-37.3v-3.5h2.9v0.5h-2.2v0.9h2.1v0.5h-2.1v1h2.4l-0.1,0.5H399.7z"/>
			<path class="st9" d="M406.7-37.3l-0.8-1.4c0,0-0.1,0-0.1,0c0,0-0.1,0-0.1,0h-1v1.4h-0.6v-3.5h1.7c0.9,0,1.4,0.4,1.4,1.1
				c0,0.5-0.2,0.8-0.7,0.9l0.9,1.5H406.7z M405.8-39.2c0.3,0,0.5,0,0.6-0.1c0.1-0.1,0.2-0.2,0.2-0.4c0-0.2-0.1-0.3-0.2-0.4
				c-0.1-0.1-0.3-0.1-0.6-0.1h-1.1v1.1H405.8z"/>
		</g>
		<g style="clip-path:url(#SVGID_00000055701892476280984350000003090039062180290975_);">
			<path class="st8" d="M523.3,325.4h2.5v0.3h-1c0,0.6,0.6,1.1,1.1,1.2l-0.2,0.3c-0.4-0.1-0.9-0.5-1.1-1c-0.2,0.4-0.6,0.9-1.2,1.1
				l-0.2-0.3c0.6-0.2,1.2-0.8,1.2-1.3h-1.1V325.4z M525.4,329.2c-1,0-1.6-0.3-1.6-0.9c0-0.5,0.6-0.9,1.6-0.9s1.6,0.3,1.6,0.9
				C527,328.9,526.5,329.2,525.4,329.2z M523.9,324.6h1.3v0.4h-1.3V324.6z M525.4,327.8c-0.8,0-1.2,0.2-1.2,0.5s0.5,0.5,1.2,0.5
				c0.8,0,1.2-0.2,1.2-0.5S526.2,327.8,525.4,327.8z M527,327.5h-0.4v-1.1h-0.9V326h0.9v-1.5h0.4V327.5z"/>
			<path class="st8" d="M528.6,326.5c0.7,0,1.4-0.1,1.8-0.2l0,0.3c-0.5,0.1-1.3,0.2-2.1,0.2h-0.4v-2h2.1v0.3h-1.7v1.3H528.6z
				 M528.4,329.2v-1.7h3v1.7H528.4z M531,327.8h-2.1v1h2.1V327.8z M531.4,326v1.2H531v-2.7h0.4v1.2h0.7v0.3H531.4z"/>
			<path class="st8" d="M532.4,327v-0.3h3.2c0.1-0.4,0.1-0.9,0.1-1.5h-2.8v-0.3h3.2c0,0.7,0,1.4-0.1,1.8h0.7v0.3H532.4z
				 M532.9,329.1v-1.5h0.4v1.1h2.9v0.3H532.9z"/>
			<path class="st8" d="M539.8,327.2c-0.5,0.1-1.3,0.1-2.1,0.1h-0.5v-1.5h1.8v-0.7h-1.8v-0.3h2.2v1.4h-1.8v0.8c0.7,0,1.7,0,2.2-0.1
				L539.8,327.2z M537.7,329.1v-1.3h0.4v1h2.8v0.3H537.7z M540.4,327.9v-3.4h0.4v3.4H540.4z"/>
			<path class="st8" d="M541.6,327.1v-0.3h1.8v-1h0.4v1h2.1v0.3H541.6z M543.7,329.2c-1.1,0-1.7-0.3-1.7-0.8c0-0.5,0.6-0.9,1.7-0.9
				s1.7,0.3,1.7,0.9C545.4,328.9,544.8,329.2,543.7,329.2z M545.4,325.2c0,0.4-0.1,1-0.1,1.3l-0.4-0.1c0.1-0.3,0.1-0.7,0.1-0.9
				l0-0.4h-2.9v-0.3h3.3V325.2z M543.7,327.8c-0.8,0-1.3,0.2-1.3,0.5c0,0.3,0.5,0.5,1.3,0.5c0.8,0,1.3-0.2,1.3-0.5
				C545,328,544.5,327.8,543.7,327.8z"/>
			<path class="st8" d="M547.5,328v-0.9c-0.4,0-0.9,0-1.3,0l-0.1-0.4c0.5,0,1.1,0,1.6,0c0.5,0,1-0.1,1.5-0.1l0,0.3
				c-0.3,0-0.8,0.1-1.3,0.1v0.9H547.5z M547.7,326.5c-0.7,0-1.3-0.3-1.3-0.9c0-0.5,0.5-0.9,1.3-0.9c0.7,0,1.3,0.3,1.3,0.9
				C549,326.1,548.4,326.5,547.7,326.5z M546.8,329.1v-1.4h0.4v1h3v0.3H546.8z M547.7,325.1c-0.5,0-0.9,0.2-0.9,0.5
				c0,0.3,0.3,0.5,0.9,0.5s0.8-0.2,0.8-0.5C548.6,325.3,548.2,325.1,547.7,325.1z M549.7,328.1v-0.5h-1v-0.3h1v-2.8h0.4v3.6H549.7z"
				/>
		</g>
		<g style="clip-path:url(#SVGID_00000055701892476280984350000003090039062180290975_);">
			<path class="st8" d="M527,335.8c-0.1,0.4-0.3,0.7-0.6,1c-0.3,0.2-0.7,0.3-1.2,0.3c-0.4,0-0.7-0.1-1-0.2c-0.3-0.1-0.5-0.4-0.7-0.7
				s-0.2-0.6-0.2-1c0-0.4,0.1-0.7,0.2-1c0.2-0.3,0.4-0.5,0.7-0.7c0.3-0.2,0.6-0.2,1-0.2c1,0,1.5,0.4,1.8,1.2l-0.6,0.1
				c-0.1-0.3-0.2-0.5-0.4-0.6c-0.2-0.1-0.4-0.2-0.7-0.2c-0.4,0-0.7,0.1-0.9,0.4c-0.2,0.2-0.3,0.6-0.3,1c0,0.4,0.1,0.8,0.3,1
				s0.6,0.4,1,0.4c0.3,0,0.6-0.1,0.8-0.2c0.2-0.1,0.3-0.3,0.4-0.6H527z"/>
			<path class="st8" d="M531.3,337v-1.6h-2.2v1.6h-0.6v-3.6h0.6v1.4h2.2v-1.4h0.6v3.6H531.3z"/>
			<path class="st8" d="M533.6,337v-3.6h2.9v0.5h-2.3v0.9h2.2v0.5h-2.2v1h2.4l-0.1,0.5H533.6z"/>
			<path class="st8" d="M542,335.3c0,0.4-0.1,0.7-0.2,1c-0.2,0.3-0.4,0.5-0.7,0.7s-0.7,0.2-1.1,0.2c-0.4,0-0.8-0.1-1.1-0.2
				c-0.3-0.1-0.5-0.4-0.7-0.7c-0.2-0.3-0.3-0.6-0.3-1c0-0.4,0.1-0.7,0.2-1c0.2-0.3,0.4-0.5,0.7-0.7c0.3-0.2,0.7-0.2,1.1-0.2
				c0.4,0,0.8,0.1,1.1,0.2c0.3,0.1,0.5,0.4,0.7,0.7S542,334.9,542,335.3z M541.3,335.3c0-0.4-0.1-0.8-0.4-1c-0.2-0.2-0.6-0.4-1-0.4
				c-0.4,0-0.8,0.1-1,0.4c-0.2,0.2-0.4,0.6-0.4,1c0,0.4,0.1,0.8,0.4,1c0.2,0.2,0.6,0.4,1,0.4c0.4,0,0.8-0.1,1-0.4
				C541.2,336,541.3,335.7,541.3,335.3z"/>
			<path class="st8" d="M546.3,337l-2.2-2.7v2.7h-0.6v-3.6h0.6l2.2,2.7v-2.7h0.6v3.6H546.3z"/>
			<path class="st8" d="M551.5,335.7h-1.1v-0.5h1.7v1.5c-0.2,0.2-0.5,0.3-0.8,0.4c-0.3,0.1-0.6,0.1-0.9,0.1c-0.4,0-0.8-0.1-1.1-0.2
				c-0.3-0.1-0.5-0.4-0.7-0.6c-0.2-0.3-0.3-0.6-0.3-1c0-0.4,0.1-0.7,0.2-1c0.2-0.3,0.4-0.5,0.7-0.7c0.3-0.2,0.7-0.2,1.1-0.2
				c0.4,0,0.8,0.1,1.1,0.3c0.3,0.2,0.5,0.4,0.6,0.8l-0.6,0.1c-0.1-0.2-0.2-0.4-0.4-0.5c-0.2-0.1-0.4-0.2-0.7-0.2
				c-0.4,0-0.7,0.1-1,0.4s-0.3,0.6-0.3,1c0,0.4,0.1,0.8,0.4,1c0.2,0.2,0.6,0.3,1.1,0.3c0.4,0,0.8-0.1,1.1-0.2V335.7z"/>
			<path class="st8" d="M553.6,337v-3.6h1.6c0.7,0,1.2,0.2,1.5,0.5c0.4,0.3,0.5,0.8,0.5,1.3c0,0.6-0.2,1-0.6,1.3s-0.9,0.5-1.6,0.5
				H553.6z M555.1,336.5c0.5,0,0.9-0.1,1.1-0.3c0.2-0.2,0.4-0.5,0.4-0.9c0-0.8-0.5-1.3-1.4-1.3h-0.9v2.5H555.1z"/>
			<path class="st8" d="M561.5,337l-0.4-0.9h-1.9l-0.4,0.9h-0.7l1.7-3.6h0.7l1.7,3.6H561.5z M560.1,334.1l-0.7,1.6h1.4L560.1,334.1z
				"/>
			<path class="st8" d="M567.2,337v-2.7l-1.3,2.7h-0.5l-1.3-2.7v2.7h-0.6v-3.6h0.8l1.4,2.9l1.4-2.9h0.7v3.6H567.2z"/>
			<path class="st8" d="M526.3,343.1l-2.2-2.7v2.7h-0.6v-3.6h0.6l2.2,2.7v-2.7h0.6v3.6H526.3z"/>
			<path class="st8" d="M528.6,343.1v-3.6h2.9v0.5h-2.3v0.9h2.2v0.5h-2.2v1h2.4l-0.1,0.5H528.6z"/>
			<path class="st8" d="M533,343.1v-3.6h0.6v3.6H533z"/>
			<path class="st8" d="M538.3,341.7h-1.1v-0.5h1.7v1.5c-0.2,0.2-0.5,0.3-0.8,0.4c-0.3,0.1-0.6,0.1-0.9,0.1c-0.4,0-0.8-0.1-1.1-0.2
				c-0.3-0.1-0.5-0.4-0.7-0.6c-0.2-0.3-0.3-0.6-0.3-1c0-0.4,0.1-0.7,0.2-1c0.2-0.3,0.4-0.5,0.7-0.7c0.3-0.2,0.7-0.2,1.1-0.2
				c0.4,0,0.8,0.1,1.1,0.3c0.3,0.2,0.5,0.4,0.6,0.8l-0.6,0.1c-0.1-0.2-0.2-0.4-0.4-0.5c-0.2-0.1-0.4-0.2-0.7-0.2
				c-0.4,0-0.7,0.1-1,0.4s-0.3,0.6-0.3,1c0,0.4,0.1,0.8,0.4,1c0.2,0.2,0.6,0.3,1.1,0.3c0.4,0,0.8-0.1,1.1-0.2V341.7z"/>
			<path class="st8" d="M543.2,343.1v-1.6h-2.2v1.6h-0.6v-3.6h0.6v1.4h2.2v-1.4h0.6v3.6H543.2z"/>
			<path class="st8" d="M545.6,343.1v-3.6h1.7c1,0,1.4,0.3,1.4,0.9c0,0.4-0.2,0.6-0.6,0.8c0.5,0.2,0.7,0.4,0.7,0.9
				c0,0.3-0.1,0.6-0.4,0.8c-0.3,0.2-0.6,0.3-1.1,0.3H545.6z M547.2,341c0.3,0,0.5,0,0.6-0.1s0.2-0.2,0.2-0.4c0-0.2-0.1-0.3-0.2-0.4
				c-0.1-0.1-0.3-0.1-0.6-0.1h-1v1H547.2z M547.3,342.6c0.3,0,0.5,0,0.7-0.1s0.2-0.2,0.2-0.4s-0.1-0.3-0.2-0.4
				c-0.1-0.1-0.4-0.1-0.7-0.1h-1.1v1.1H547.3z"/>
			<path class="st8" d="M554.1,341.3c0,0.4-0.1,0.7-0.2,1c-0.2,0.3-0.4,0.5-0.7,0.7s-0.7,0.2-1.1,0.2c-0.4,0-0.8-0.1-1.1-0.2
				c-0.3-0.1-0.5-0.4-0.7-0.7c-0.2-0.3-0.3-0.6-0.3-1c0-0.4,0.1-0.7,0.2-1c0.2-0.3,0.4-0.5,0.7-0.7c0.3-0.2,0.7-0.2,1.1-0.2
				c0.4,0,0.8,0.1,1.1,0.2c0.3,0.1,0.5,0.4,0.7,0.7S554.1,340.9,554.1,341.3z M553.4,341.3c0-0.4-0.1-0.8-0.4-1
				c-0.2-0.2-0.6-0.4-1-0.4c-0.4,0-0.8,0.1-1,0.4c-0.2,0.2-0.4,0.6-0.4,1c0,0.4,0.1,0.8,0.4,1c0.2,0.2,0.6,0.4,1,0.4
				c0.4,0,0.8-0.1,1-0.4C553.3,342,553.4,341.7,553.4,341.3z"/>
			<path class="st8" d="M558.2,343.1l-0.8-1.4c0,0-0.1,0-0.1,0s-0.1,0-0.1,0h-1v1.4h-0.6v-3.6h1.7c1,0,1.4,0.4,1.4,1.1
				c0,0.5-0.2,0.8-0.7,1l0.9,1.5H558.2z M557.2,341.1c0.3,0,0.5,0,0.6-0.1s0.2-0.2,0.2-0.4c0-0.2-0.1-0.3-0.2-0.4
				c-0.1-0.1-0.3-0.1-0.6-0.1h-1.1v1.1H557.2z"/>
			<path class="st8" d="M563,343.1v-1.6h-2.2v1.6h-0.6v-3.6h0.6v1.4h2.2v-1.4h0.6v3.6H563z"/>
			<path class="st8" d="M569.2,341.3c0,0.4-0.1,0.7-0.2,1c-0.2,0.3-0.4,0.5-0.7,0.7s-0.7,0.2-1.1,0.2c-0.4,0-0.8-0.1-1.1-0.2
				c-0.3-0.1-0.5-0.4-0.7-0.7c-0.2-0.3-0.3-0.6-0.3-1c0-0.4,0.1-0.7,0.2-1c0.2-0.3,0.4-0.5,0.7-0.7c0.3-0.2,0.7-0.2,1.1-0.2
				c0.4,0,0.8,0.1,1.1,0.2c0.3,0.1,0.5,0.4,0.7,0.7S569.2,340.9,569.2,341.3z M568.5,341.3c0-0.4-0.1-0.8-0.4-1
				c-0.2-0.2-0.6-0.4-1-0.4c-0.4,0-0.8,0.1-1,0.4c-0.2,0.2-0.4,0.6-0.4,1c0,0.4,0.1,0.8,0.4,1c0.2,0.2,0.6,0.4,1,0.4
				c0.4,0,0.8-0.1,1-0.4C568.4,342,568.5,341.7,568.5,341.3z"/>
			<path class="st8" d="M574.6,341.3c0,0.4-0.1,0.7-0.2,1c-0.2,0.3-0.4,0.5-0.7,0.7s-0.7,0.2-1.1,0.2c-0.4,0-0.8-0.1-1.1-0.2
				c-0.3-0.1-0.5-0.4-0.7-0.7c-0.2-0.3-0.3-0.6-0.3-1c0-0.4,0.1-0.7,0.2-1c0.2-0.3,0.4-0.5,0.7-0.7c0.3-0.2,0.7-0.2,1.1-0.2
				c0.4,0,0.8,0.1,1.1,0.2c0.3,0.1,0.5,0.4,0.7,0.7S574.6,340.9,574.6,341.3z M573.9,341.3c0-0.4-0.1-0.8-0.4-1
				c-0.2-0.2-0.6-0.4-1-0.4c-0.4,0-0.8,0.1-1,0.4c-0.2,0.2-0.4,0.6-0.4,1c0,0.4,0.1,0.8,0.4,1c0.2,0.2,0.6,0.4,1,0.4
				c0.4,0,0.8-0.1,1-0.4C573.8,342,573.9,341.7,573.9,341.3z"/>
			<path class="st8" d="M576,343.1v-3.6h1.6c0.7,0,1.2,0.2,1.5,0.5c0.4,0.3,0.5,0.8,0.5,1.3c0,0.6-0.2,1-0.6,1.3s-0.9,0.5-1.6,0.5
				H576z M577.5,342.5c0.5,0,0.9-0.1,1.1-0.3c0.2-0.2,0.4-0.5,0.4-0.9c0-0.8-0.5-1.3-1.4-1.3h-0.9v2.5H577.5z"/>
			<path class="st8" d="M523.4,349.1v-3.6h1.7c0.5,0,0.8,0.1,1.1,0.3c0.2,0.2,0.4,0.5,0.4,0.9c0,0.4-0.1,0.7-0.4,0.9
				c-0.2,0.2-0.6,0.3-1.1,0.3h-1v1.3H523.4z M525.1,347.3c0.3,0,0.5-0.1,0.6-0.2c0.1-0.1,0.2-0.3,0.2-0.5c0-0.2-0.1-0.4-0.2-0.5
				c-0.1-0.1-0.4-0.1-0.6-0.1h-1v1.3H525.1z"/>
			<path class="st8" d="M530.4,349.1l-0.4-0.9h-1.9l-0.4,0.9H527l1.7-3.6h0.7l1.7,3.6H530.4z M529.1,346.1l-0.7,1.6h1.4L529.1,346.1
				z"/>
			<path class="st8" d="M535.1,349.1l-0.8-1.4c0,0-0.1,0-0.1,0s-0.1,0-0.1,0h-1v1.4h-0.6v-3.6h1.7c1,0,1.4,0.4,1.4,1.1
				c0,0.5-0.2,0.8-0.7,1l0.9,1.5H535.1z M534.1,347.2c0.3,0,0.5,0,0.6-0.1s0.2-0.2,0.2-0.4c0-0.2-0.1-0.3-0.2-0.4
				c-0.1-0.1-0.3-0.1-0.6-0.1H533v1.1H534.1z"/>
			<path class="st8" d="M539.9,349.1l-1.4-1.9l-0.7,0.6v1.3h-0.6v-3.6h0.6v1.6l2-1.6h0.8l-1.6,1.3l1.7,2.2H539.9z"/>
		</g>
		<g style="clip-path:url(#SVGID_00000055701892476280984350000003090039062180290975_);">
			<path class="st10" d="M345.7,210.6c1.2,0,1.8,1,1.8,2.5c0,1.5-0.7,2.5-1.8,2.5s-1.8-1-1.8-2.5
				C343.9,211.6,344.6,210.6,345.7,210.6z M345.7,211.1c-0.7,0-1.2,0.8-1.2,2c0,1.2,0.5,2,1.2,2s1.2-0.8,1.2-2
				C347,212,346.5,211.1,345.7,211.1z M349.3,213.5v3.7h-0.6v-7.1h0.6v2.9h1.2v0.5H349.3z"/>
			<path class="st10" d="M356.1,213h1.1v0.5h-6.4V213h4.7c0.1-0.3,0.1-0.6,0.2-1l-4.2,0.2l-0.1-0.5l4.3-0.2c0-0.2,0-0.4,0-0.6h-4.1
				v-0.5h4.8C356.4,211.4,356.3,212.3,356.1,213z M351.5,217.1v-1.7h4.3v-0.7h-4.3v-0.5h4.9v1.6h-4.3v0.7h4.5v0.5H351.5z"/>
			<path class="st10" d="M361.2,215.2c-0.8,0.1-1.9,0.2-2.8,0.2H358v-2.7h2.1v-1.5h-2.1v-0.5h2.8v2.5h-2.1v1.6
				c0.6,0,1.8-0.1,2.6-0.2L361.2,215.2z M363.1,217.2v-3.8h-0.9v3.4h-0.6v-6.6h0.6v2.7h0.9v-2.8h0.6v7.1H363.1z"/>
			<path class="st10" d="M364.7,216.2v-0.5h6.4v0.5H364.7z M365.5,214.1v-3.3h4.8v0.5h-4.2v2.3h4.2v0.5H365.5z"/>
			<path class="st10" d="M372.8,211.5l-1,0.2v-0.4l1.3-0.6h0.3v5.6h-0.6V211.5z"/>
			<path class="st10" d="M374.8,213.8v-0.5c0-1.9,0.9-2.6,2-2.6c1.1,0,1.9,0.7,1.9,2.6v0.5c0,1.8-0.8,2.6-2,2.6
				C375.7,216.4,374.8,215.6,374.8,213.8z M378.1,213.9v-0.6c0-1.4-0.4-2-1.3-2c-0.9,0-1.3,0.6-1.3,2v0.6c0,1.4,0.5,2,1.3,2
				C377.6,215.8,378.1,215.3,378.1,213.9z"/>
			<path class="st10" d="M379.8,213.8v-0.5c0-1.9,0.9-2.6,2-2.6c1.1,0,1.9,0.7,1.9,2.6v0.5c0,1.8-0.8,2.6-2,2.6
				C380.7,216.4,379.8,215.6,379.8,213.8z M383.1,213.9v-0.6c0-1.4-0.4-2-1.3-2c-0.9,0-1.3,0.6-1.3,2v0.6c0,1.4,0.5,2,1.3,2
				C382.7,215.8,383.1,215.3,383.1,213.9z"/>
			<path class="st10" d="M388.3,213.1v0.4c0,1.9-0.8,2.9-2.1,2.9c-0.6,0-1.1-0.2-1.3-0.3l0.2-0.5c0.2,0.1,0.7,0.3,1.1,0.3
				c0.9,0,1.4-0.6,1.5-2.1c-0.3,0.3-0.7,0.6-1.3,0.6c-0.9,0-1.7-0.7-1.7-1.7c0-1,0.7-1.9,1.8-1.9
				C387.7,210.7,388.3,211.6,388.3,213.1z M385.3,212.6c0,0.9,0.5,1.2,1.2,1.2c0.5,0,1-0.4,1.2-0.7v-0.2c0-1-0.4-1.7-1.2-1.7
				C385.7,211.3,385.3,211.8,385.3,212.6z"/>
			<path class="st10" d="M391.5,214l-0.4-0.5c1.4-0.5,2.3-1.5,2.4-2.5h-2.1v-0.5h2.7C394.1,212.3,393,213.4,391.5,214z M392.4,217.1
				v-1.8h4v-0.7h-4.1v-0.5h4.7v1.7h-4v0.8h4.3v0.5H392.4z M396.5,213.8v-1.5h-0.9v1.5H395v-3.5h0.6v1.5h0.9v-1.7h0.6v3.7H396.5z"/>
			<path class="st10" d="M402.1,215.3c-0.7,0.1-2.3,0.2-3.3,0.2h-0.5v-2.8h2.6v-1.5h-2.6v-0.5h3.2v2.5h-2.6v1.7
				c0.9,0,2.3-0.1,3.2-0.2L402.1,215.3z M403.2,217.2v-3.8H402v-0.5h1.3v-2.8h0.6v7.1H403.2z"/>
			<path class="st10" d="M409.6,215.3c-0.7,0.1-2,0.2-3.5,0.2h-0.7v-2.7h2.7v-1.5h-2.7v-0.5h3.4v2.5H406v1.7h0.2
				c1.1,0,2.5-0.1,3.4-0.2L409.6,215.3z M410.9,210.1v7.1h-0.6v-7.1H410.9z"/>
		</g>
		<g style="clip-path:url(#SVGID_00000055701892476280984350000003090039062180290975_);">
			<path class="st10" d="M348.7,229l-0.5-1.2h-2.7l-0.5,1.2h-1.3l2.5-5.4h1.4l2.5,5.4H348.7z M346.8,224.6l-1,2.2h1.9L346.8,224.6z"
				/>
			<path class="st10" d="M357.1,227.1c-0.1,0.6-0.4,1.1-0.9,1.5c-0.5,0.3-1.1,0.5-2,0.5c-0.6,0-1.1-0.1-1.6-0.3s-0.8-0.5-1.1-1
				c-0.2-0.4-0.4-0.9-0.4-1.5c0-0.6,0.1-1.1,0.4-1.5c0.2-0.4,0.6-0.8,1-1c0.5-0.2,1-0.4,1.6-0.4c1.5,0,2.4,0.6,2.7,1.9l-1.2,0.1
				c-0.1-0.4-0.3-0.6-0.5-0.8c-0.2-0.2-0.6-0.2-1-0.2c-0.5,0-1,0.2-1.3,0.5c-0.3,0.3-0.5,0.8-0.5,1.4c0,0.6,0.2,1,0.5,1.4
				s0.7,0.5,1.3,0.5c0.4,0,0.8-0.1,1.1-0.2c0.3-0.2,0.4-0.4,0.5-0.8H357.1z"/>
			<path class="st10" d="M364.8,227.1c-0.1,0.6-0.4,1.1-0.9,1.5c-0.5,0.3-1.1,0.5-2,0.5c-0.6,0-1.1-0.1-1.6-0.3s-0.8-0.5-1.1-1
				c-0.2-0.4-0.4-0.9-0.4-1.5c0-0.6,0.1-1.1,0.4-1.5c0.2-0.4,0.6-0.8,1-1c0.5-0.2,1-0.4,1.6-0.4c1.5,0,2.4,0.6,2.7,1.9l-1.2,0.1
				c-0.1-0.4-0.3-0.6-0.5-0.8c-0.2-0.2-0.6-0.2-1-0.2c-0.5,0-1,0.2-1.3,0.5c-0.3,0.3-0.5,0.8-0.5,1.4c0,0.6,0.2,1,0.5,1.4
				s0.7,0.5,1.3,0.5c0.4,0,0.8-0.1,1.1-0.2c0.3-0.2,0.4-0.4,0.5-0.8H364.8z"/>
			<path class="st10" d="M372.9,226.3c0,0.6-0.1,1.1-0.4,1.5c-0.2,0.4-0.6,0.8-1.1,1c-0.5,0.2-1,0.4-1.7,0.4c-0.6,0-1.2-0.1-1.6-0.3
				c-0.5-0.2-0.8-0.6-1.1-1c-0.3-0.4-0.4-0.9-0.4-1.5c0-0.6,0.1-1.1,0.4-1.5c0.2-0.4,0.6-0.8,1.1-1s1-0.4,1.7-0.4
				c0.6,0,1.2,0.1,1.6,0.3c0.5,0.2,0.8,0.6,1.1,1C372.8,225.2,372.9,225.7,372.9,226.3z M371.7,226.3c0-0.6-0.2-1-0.5-1.4
				c-0.3-0.3-0.8-0.5-1.4-0.5c-0.6,0-1.1,0.2-1.4,0.5c-0.3,0.3-0.5,0.8-0.5,1.4c0,0.6,0.2,1,0.5,1.4c0.3,0.3,0.8,0.5,1.4,0.5
				c0.6,0,1.1-0.2,1.4-0.5C371.5,227.3,371.7,226.9,371.7,226.3z"/>
			<path class="st10" d="M375,229v-5.4h1.2v4.4h3.3l-0.2,1H375z"/>
			<path class="st10" d="M386,229l-0.5-1.2h-2.7l-0.5,1.2H381l2.5-5.4h1.4l2.5,5.4H386z M384.1,224.6l-1,2.2h1.9L384.1,224.6z"/>
			<path class="st10" d="M389.2,229v-5.4h2.4c1,0,1.8,0.2,2.4,0.7c0.5,0.5,0.8,1.1,0.8,2c0,0.9-0.3,1.5-0.9,2s-1.4,0.7-2.4,0.7
				H389.2z M391.6,228c0.7,0,1.2-0.1,1.5-0.4s0.5-0.7,0.5-1.3c0-1.1-0.6-1.7-1.9-1.7h-1.3v3.4H391.6z"/>
			<path class="st10" d="M397,229v-5.4h4.5v1h-3.3v1.1h3.2v1h-3.2v1.3h3.5l-0.2,1H397z"/>
			<path class="st10" d="M408.9,229v-4l-1.2,0.8l-0.5-0.8l1.9-1.2h1v5.2H408.9z"/>
			<path class="st10" d="M415.5,229.1c-0.8,0-1.4-0.2-1.8-0.7c-0.4-0.5-0.6-1.1-0.6-2.1c0-0.9,0.2-1.6,0.6-2.1
				c0.4-0.5,1-0.7,1.8-0.7s1.4,0.2,1.7,0.7c0.4,0.5,0.6,1.1,0.6,2.1c0,0.9-0.2,1.6-0.6,2.1C416.8,228.9,416.2,229.1,415.5,229.1z
				 M415.5,228.2c0.4,0,0.7-0.1,0.9-0.4s0.3-0.8,0.3-1.4c0-0.6-0.1-1.1-0.3-1.4s-0.5-0.4-0.9-0.4s-0.7,0.1-0.9,0.4s-0.3,0.8-0.3,1.4
				c0,0.6,0.1,1.1,0.3,1.4C414.8,228,415.1,228.2,415.5,228.2z"/>
			<path class="st10" d="M421.9,229.1c-0.8,0-1.4-0.2-1.8-0.7c-0.4-0.5-0.6-1.1-0.6-2.1c0-0.9,0.2-1.6,0.6-2.1
				c0.4-0.5,1-0.7,1.8-0.7s1.4,0.2,1.7,0.7c0.4,0.5,0.6,1.1,0.6,2.1c0,0.9-0.2,1.6-0.6,2.1C423.3,228.9,422.7,229.1,421.9,229.1z
				 M421.9,228.2c0.4,0,0.7-0.1,0.9-0.4s0.3-0.8,0.3-1.4c0-0.6-0.1-1.1-0.3-1.4s-0.5-0.4-0.9-0.4s-0.7,0.1-0.9,0.4s-0.3,0.8-0.3,1.4
				c0,0.6,0.1,1.1,0.3,1.4C421.2,228,421.5,228.2,421.9,228.2z"/>
			<path class="st10" d="M429.5,226.6c-0.3,0.3-0.8,0.5-1.4,0.5c-0.6,0-1.1-0.2-1.5-0.5c-0.3-0.3-0.5-0.7-0.5-1.3
				c0-0.3,0.1-0.7,0.3-0.9c0.2-0.3,0.4-0.5,0.8-0.6c0.3-0.2,0.7-0.2,1.2-0.2c0.7,0,1.3,0.2,1.7,0.7c0.4,0.4,0.6,1.1,0.6,2
				c0,0.9-0.2,1.6-0.6,2.1c-0.4,0.5-1,0.8-1.7,0.8c-0.6,0-1.1-0.1-1.5-0.4c-0.4-0.2-0.6-0.6-0.6-1.1h1.1c0.1,0.2,0.2,0.3,0.3,0.4
				c0.2,0.1,0.4,0.1,0.7,0.1c0.4,0,0.6-0.1,0.8-0.4C429.3,227.6,429.4,227.2,429.5,226.6L429.5,226.6z M429.4,225.4
				c0-0.3-0.1-0.5-0.3-0.7c-0.2-0.2-0.5-0.3-0.8-0.3c-0.3,0-0.6,0.1-0.8,0.2s-0.3,0.4-0.3,0.6c0,0.6,0.4,0.9,1.1,0.9
				c0.3,0,0.6-0.1,0.8-0.2C429.3,225.9,429.4,225.7,429.4,225.4z"/>
			<path class="st10" d="M348.6,236.1h-1.5v-0.9h2.6v2.4c-0.3,0.2-0.7,0.4-1.2,0.5s-0.9,0.2-1.4,0.2c-1,0-1.8-0.2-2.4-0.7
				c-0.6-0.5-0.9-1.2-0.9-2.1c0-0.6,0.1-1.1,0.4-1.5s0.6-0.8,1.1-1c0.5-0.2,1-0.4,1.7-0.4c0.7,0,1.3,0.1,1.7,0.4s0.8,0.7,0.9,1.2
				l-1.2,0.1c-0.1-0.3-0.3-0.5-0.5-0.6s-0.6-0.2-0.9-0.2c-0.6,0-1,0.2-1.3,0.5c-0.3,0.3-0.5,0.8-0.5,1.4c0,0.6,0.2,1.1,0.5,1.4
				c0.3,0.3,0.8,0.5,1.5,0.5c0.6,0,1.1-0.1,1.5-0.3V236.1z"/>
			<path class="st10" d="M356.5,238.1l-0.5-1.2h-2.7l-0.5,1.2h-1.3l2.5-5.4h1.4l2.5,5.4H356.5z M354.6,233.7l-1,2.2h1.9L354.6,233.7
				z"/>
			<path class="st10" d="M359.7,238.1v-5.4h1.2v4.4h3.3l-0.2,1H359.7z"/>
			<path class="st10" d="M366.2,238.1v-5.4h1.2v4.4h3.3l-0.2,1H366.2z"/>
			<path class="st10" d="M372.7,238.1v-5.4h4.5v1h-3.3v1.1h3.2v1h-3.2v1.3h3.5l-0.2,1H372.7z"/>
			<path class="st10" d="M383.5,238.1l-1.2-2h-1.6v2h-1.2v-5.4h2.7c1.5,0,2.3,0.6,2.3,1.7c0,0.4-0.1,0.7-0.3,0.9
				c-0.2,0.2-0.4,0.4-0.8,0.6l1.4,2.2H383.5z M382.1,235.1c0.4,0,0.7-0.1,0.9-0.2c0.2-0.1,0.3-0.3,0.3-0.6c0-0.3-0.1-0.5-0.3-0.6
				s-0.5-0.2-0.9-0.2h-1.4v1.5H382.1z"/>
			<path class="st10" d="M388.1,238.1v-2.2l-2.3-3.3h1.4l1.6,2.3l1.6-2.3h1.3l-2.3,3.3v2.2H388.1z"/>
		</g>
		<g style="clip-path:url(#SVGID_00000055701892476280984350000003090039062180290975_);">
			<path class="st8" d="M84.1,94.1l-0.3-0.3c0.9-0.3,1.5-1,1.6-1.7h-1.4v-0.3h1.8C85.9,93,85.1,93.7,84.1,94.1z M84.7,96.2V95h2.7
				v-0.5h-2.7v-0.3h3.2v1.2h-2.7v0.5H88v0.3H84.7z M87.4,94v-1h-0.6v1h-0.4v-2.3h0.4v1h0.6v-1.1h0.4V94H87.4z"/>
			<path class="st8" d="M91.2,95c-0.5,0.1-1.5,0.2-2.2,0.2h-0.3v-1.9h1.8v-1h-1.8v-0.3h2.2v1.7h-1.8v1.2c0.6,0,1.5,0,2.1-0.1
				L91.2,95z M92,96.3v-2.5h-0.9v-0.4H92v-1.9h0.4v4.8H92z"/>
			<path class="st8" d="M96.2,95c-0.5,0.1-1.3,0.2-2.4,0.2h-0.5v-1.8h1.8v-1h-1.8v-0.3h2.2v1.7h-1.8v1.1h0.1c0.8,0,1.7,0,2.3-0.1
				L96.2,95z M97.1,91.5v4.8h-0.4v-4.8H97.1z"/>
			<path class="st8" d="M99.1,91.9c0.8,0,1.2,0.7,1.2,1.7s-0.4,1.7-1.2,1.7s-1.2-0.7-1.2-1.7C97.9,92.5,98.3,91.9,99.1,91.9z
				 M99.1,92.2c-0.5,0-0.8,0.5-0.8,1.3c0,0.8,0.3,1.3,0.8,1.3s0.8-0.5,0.8-1.3C99.9,92.7,99.6,92.2,99.1,92.2z M101.5,93.8v2.5H101
				v-4.8h0.4v1.9h0.8v0.3H101.5z"/>
			<path class="st8" d="M104.2,91.9h0.5l0.8,3.3h0l0.9-3.3h0.4l0.9,3.3h0l0.8-3.3h0.4l-1,4.1h-0.5l-0.9-3.2h0l-0.9,3.2h-0.5
				L104.2,91.9z"/>
			<path class="st8" d="M109.7,91.9h2.4v0.4h-1.9v1.4h1.5v0.4h-1.5v1.5h1.9V96h-2.4V91.9z"/>
			<path class="st8" d="M112.6,95.8v-0.4c0.3,0.2,0.7,0.3,1.1,0.3c0.6,0,0.9-0.3,0.9-0.7c0-0.4-0.2-0.6-0.7-0.7l-0.4-0.1
				c-0.6-0.2-0.9-0.5-0.9-1.1c0-0.6,0.4-1.1,1.3-1.1c0.5,0,0.8,0.1,1,0.2v0.4c-0.2-0.1-0.6-0.2-1-0.2c-0.5,0-0.8,0.2-0.8,0.6
				s0.1,0.6,0.6,0.7l0.4,0.1c0.6,0.2,1,0.5,1,1.1c0,0.7-0.4,1.2-1.4,1.2C113.3,96.1,112.9,95.9,112.6,95.8z"/>
			<path class="st8" d="M116.8,92.3h-1.2v-0.4h2.9v0.4h-1.2V96h-0.5V92.3z"/>
		</g>
		<g style="clip-path:url(#SVGID_00000055701892476280984350000003090039062180290975_);">
			<path class="st8" d="M69.3,103.4v-3.1h-1.5v-0.5h3.6v0.5h-1.5v3.1H69.3z"/>
			<path class="st8" d="M75.5,103.4v-1.6h-2.2v1.6h-0.6v-3.6h0.6v1.5h2.2v-1.5h0.6v3.6H75.5z"/>
			<path class="st8" d="M77.9,103.4v-3.6h2.9v0.5h-2.3v0.9h2.2v0.5h-2.2v1h2.4l-0.1,0.5H77.9z"/>
			<path class="st8" d="M87.6,102h-1.1v-0.5h1.7v1.5c-0.2,0.2-0.5,0.3-0.8,0.4c-0.3,0.1-0.6,0.1-0.9,0.1c-0.4,0-0.8-0.1-1.1-0.2
				c-0.3-0.1-0.6-0.4-0.7-0.6c-0.2-0.3-0.3-0.6-0.3-1c0-0.4,0.1-0.7,0.2-1c0.2-0.3,0.4-0.5,0.7-0.7c0.3-0.2,0.7-0.2,1.1-0.2
				c0.4,0,0.8,0.1,1.1,0.3s0.5,0.5,0.6,0.8l-0.6,0.1c-0.1-0.2-0.2-0.4-0.4-0.5c-0.2-0.1-0.4-0.2-0.7-0.2c-0.4,0-0.8,0.1-1,0.4
				c-0.2,0.2-0.4,0.6-0.4,1c0,0.4,0.1,0.8,0.4,1s0.6,0.4,1.1,0.4c0.5,0,0.8-0.1,1.1-0.2V102z"/>
			<path class="st8" d="M92.7,103.4l-0.4-0.9h-1.9l-0.4,0.9h-0.7l1.7-3.6h0.7l1.7,3.6H92.7z M91.4,100.4l-0.7,1.6h1.4L91.4,100.4z"
				/>
			<path class="st8" d="M94.7,103.4v-3.6h0.6v3.1h2.3l-0.1,0.5H94.7z"/>
			<path class="st8" d="M99,103.4v-3.6h0.6v3.1h2.3l-0.1,0.5H99z"/>
			<path class="st8" d="M103.3,103.4v-3.6h2.9v0.5H104v0.9h2.2v0.5H104v1h2.4l-0.1,0.5H103.3z"/>
			<path class="st8" d="M110.5,103.4l-0.8-1.4c0,0-0.1,0-0.1,0c0,0-0.1,0-0.1,0h-1v1.4h-0.6v-3.6h1.7c1,0,1.5,0.4,1.5,1.1
				c0,0.5-0.2,0.8-0.7,1l0.9,1.5H110.5z M109.5,101.4c0.3,0,0.5,0,0.6-0.1s0.2-0.2,0.2-0.4c0-0.2-0.1-0.3-0.2-0.4
				c-0.1-0.1-0.3-0.1-0.6-0.1h-1.1v1.2H109.5z"/>
			<path class="st8" d="M112.5,103.4v-3.6h0.6v3.6H112.5z"/>
			<path class="st8" d="M117.9,103.4l-0.4-0.9h-1.9l-0.4,0.9h-0.7l1.7-3.6h0.7l1.7,3.6H117.9z M116.5,100.4l-0.7,1.6h1.4
				L116.5,100.4z"/>
			<path class="st8" d="M103,109.5l-0.9-2.8l-0.9,2.8h-0.7l-1.2-3.6h0.7l0.9,2.8l0.9-2.8h0.6l0.9,2.8l0.9-2.9h0.7l-1.2,3.6H103z"/>
			<path class="st8" d="M106.3,109.5v-3.6h2.9v0.5h-2.3v0.9h2.2v0.5h-2.2v1h2.4l-0.1,0.5H106.3z"/>
			<path class="st8" d="M113.3,106.8c-0.1-0.1-0.1-0.3-0.2-0.3c-0.1-0.1-0.2-0.1-0.3-0.2c-0.1,0-0.3-0.1-0.5-0.1
				c-0.3,0-0.6,0-0.8,0.1c-0.2,0.1-0.3,0.2-0.3,0.4c0,0.2,0.1,0.3,0.2,0.3c0.1,0.1,0.3,0.1,0.6,0.2l0.7,0.1c0.4,0.1,0.7,0.2,0.9,0.4
				c0.2,0.2,0.3,0.4,0.3,0.7c0,0.3-0.1,0.6-0.4,0.8s-0.7,0.3-1.2,0.3c-0.6,0-1-0.1-1.3-0.3s-0.5-0.5-0.5-0.9h0.6
				c0,0.2,0.2,0.4,0.3,0.5s0.5,0.2,0.8,0.2c0.3,0,0.6,0,0.8-0.1c0.2-0.1,0.3-0.2,0.3-0.4c0-0.1-0.1-0.3-0.2-0.3
				c-0.1-0.1-0.3-0.1-0.6-0.2l-0.6-0.1c-0.3,0-0.6-0.1-0.8-0.2s-0.3-0.2-0.4-0.3c-0.1-0.1-0.1-0.3-0.1-0.5c0-0.3,0.1-0.6,0.4-0.8
				s0.7-0.3,1.2-0.3c0.3,0,0.6,0,0.8,0.1c0.2,0.1,0.4,0.2,0.5,0.3c0.1,0.1,0.2,0.3,0.3,0.6L113.3,106.8z"/>
			<path class="st8" d="M116.5,109.5v-3.1h-1.5v-0.5h3.6v0.5h-1.5v3.1H116.5z"/>
		</g>
		
			<circle style="clip-path:url(#SVGID_00000055701892476280984350000003090039062180290975_);fill:#8C9091;" cx="315" cy="261.2" r="3"/>
		<g style="clip-path:url(#SVGID_00000055701892476280984350000003090039062180290975_);">
			<path class="st8" d="M293.8,254.6v-3.1h0.4v1.2h1.4v-1.2h0.4v3.1H293.8z M295.6,253h-1.4v1.2h1.4V253z M296.2,253.2v-0.4h0.9
				v-1.8h0.4v4.8h-0.4v-2.7H296.2z"/>
			<path class="st8" d="M298.5,254.6v-3.1h0.4v1.2h1.4v-1.2h0.4v3.1H298.5z M300.3,253h-1.4v1.2h1.4V253z M300.9,253.2v-0.4h0.9
				v-1.8h0.4v4.8h-0.4v-2.7H300.9z"/>
			<path class="st8" d="M306.1,254.5c-0.5,0.1-1.3,0.2-2.4,0.2h-0.5v-1.8h1.8v-1h-1.8v-0.3h2.2v1.7h-1.8v1.1h0.1
				c0.8,0,1.7,0,2.3-0.1L306.1,254.5z M306.9,251.1v4.8h-0.4v-4.8H306.9z"/>
		</g>
		<g style="clip-path:url(#SVGID_00000055701892476280984350000003090039062180290975_);">
			<path class="st8" d="M271.1,263v-3.6h1.7c1,0,1.4,0.3,1.4,0.9c0,0.4-0.2,0.6-0.6,0.8c0.5,0.2,0.7,0.4,0.7,0.9
				c0,0.3-0.1,0.6-0.4,0.8c-0.3,0.2-0.6,0.3-1.1,0.3H271.1z M272.8,260.8c0.3,0,0.5,0,0.6-0.1c0.1-0.1,0.2-0.2,0.2-0.4
				c0-0.2-0.1-0.3-0.2-0.4c-0.1-0.1-0.3-0.1-0.6-0.1h-1v1H272.8z M272.8,262.5c0.3,0,0.5,0,0.7-0.1c0.1-0.1,0.2-0.2,0.2-0.4
				c0-0.2-0.1-0.3-0.2-0.4c-0.1-0.1-0.4-0.1-0.7-0.1h-1.1v1.1H272.8z"/>
			<path class="st8" d="M278.6,259.4h0.6v2.1c0,0.5-0.1,0.9-0.4,1.2s-0.7,0.4-1.3,0.4c-0.6,0-1-0.1-1.3-0.4
				c-0.3-0.3-0.4-0.7-0.4-1.2v-2.1h0.6v2.2c0,0.3,0.1,0.6,0.3,0.8c0.2,0.2,0.4,0.2,0.8,0.2c0.4,0,0.6-0.1,0.8-0.2
				c0.2-0.2,0.3-0.4,0.3-0.8V259.4z"/>
			<path class="st8" d="M283.5,263l-0.8-1.4c0,0-0.1,0-0.1,0c0,0-0.1,0-0.1,0h-1v1.4h-0.6v-3.6h1.7c1,0,1.5,0.4,1.5,1.1
				c0,0.5-0.2,0.8-0.7,1l0.9,1.5H283.5z M282.5,261c0.3,0,0.5,0,0.6-0.1s0.2-0.2,0.2-0.4c0-0.2-0.1-0.3-0.2-0.4
				c-0.1-0.1-0.3-0.1-0.6-0.1h-1.1v1.2H282.5z"/>
			<path class="st8" d="M285.6,263v-3.6h1.7c1,0,1.4,0.3,1.4,0.9c0,0.4-0.2,0.6-0.6,0.8c0.5,0.2,0.7,0.4,0.7,0.9
				c0,0.3-0.1,0.6-0.4,0.8c-0.3,0.2-0.6,0.3-1.1,0.3H285.6z M287.3,260.8c0.3,0,0.5,0,0.6-0.1c0.1-0.1,0.2-0.2,0.2-0.4
				c0-0.2-0.1-0.3-0.2-0.4c-0.1-0.1-0.3-0.1-0.6-0.1h-1v1H287.3z M287.3,262.5c0.3,0,0.5,0,0.7-0.1c0.1-0.1,0.2-0.2,0.2-0.4
				c0-0.2-0.1-0.3-0.2-0.4c-0.1-0.1-0.4-0.1-0.7-0.1h-1.1v1.1H287.3z"/>
			<path class="st8" d="M290.3,263v-3.6h2.9v0.5H291v0.9h2.2v0.5H291v1h2.4l-0.1,0.5H290.3z"/>
			<path class="st8" d="M297.5,263l-0.8-1.4c0,0-0.1,0-0.1,0c0,0-0.1,0-0.1,0h-1v1.4h-0.6v-3.6h1.7c1,0,1.5,0.4,1.5,1.1
				c0,0.5-0.2,0.8-0.7,1l0.9,1.5H297.5z M296.5,261c0.3,0,0.5,0,0.6-0.1s0.2-0.2,0.2-0.4c0-0.2-0.1-0.3-0.2-0.4
				c-0.1-0.1-0.3-0.1-0.6-0.1h-1.1v1.2H296.5z"/>
			<path class="st8" d="M302.2,263l-0.8-1.4c0,0-0.1,0-0.1,0c0,0-0.1,0-0.1,0h-1v1.4h-0.6v-3.6h1.7c1,0,1.5,0.4,1.5,1.1
				c0,0.5-0.2,0.8-0.7,1l0.9,1.5H302.2z M301.2,261c0.3,0,0.5,0,0.6-0.1c0.1-0.1,0.2-0.2,0.2-0.4c0-0.2-0.1-0.3-0.2-0.4
				c-0.1-0.1-0.3-0.1-0.6-0.1h-1.1v1.2H301.2z"/>
			<path class="st8" d="M305.2,263v-1.5l-1.5-2.1h0.7l1.1,1.6l1.1-1.6h0.7l-1.5,2.1v1.5H305.2z"/>
		</g>
		<g style="clip-path:url(#SVGID_00000055701892476280984350000003090039062180290975_);">
			<defs>
				<polygon id="SVGID_00000080170241099410688160000000138345670099699601_" points="428.8,374.2 445.3,411.1 481,414.2 
					484.8,427.2 554.5,417.7 514.5,347.1 488.3,328.8 				"/>
			</defs>
			<clipPath id="SVGID_00000132805765145235216960000017415885918029900963_">
				<use xlink:href="#SVGID_00000080170241099410688160000000138345670099699601_"  style="overflow:visible;"/>
			</clipPath>
			<g style="clip-path:url(#SVGID_00000132805765145235216960000017415885918029900963_);">
				<line class="st12" x1="383.5" y1="413.8" x2="496.5" y2="300.8"/>
				<line class="st12" x1="385.9" y1="416.1" x2="498.9" y2="303.1"/>
				<line class="st12" x1="388.2" y1="418.5" x2="501.2" y2="305.5"/>
				<line class="st12" x1="390.5" y1="420.8" x2="503.5" y2="307.8"/>
				<line class="st12" x1="392.9" y1="423.1" x2="505.9" y2="310.1"/>
				<line class="st12" x1="395.2" y1="425.5" x2="508.2" y2="312.5"/>
				<line class="st12" x1="397.5" y1="427.8" x2="510.5" y2="314.8"/>
				<line class="st12" x1="399.9" y1="430.1" x2="512.9" y2="317.1"/>
				<line class="st12" x1="402.2" y1="432.5" x2="515.2" y2="319.5"/>
				<line class="st12" x1="404.5" y1="434.8" x2="517.5" y2="321.8"/>
				<line class="st12" x1="406.9" y1="437.1" x2="519.9" y2="324.1"/>
				<line class="st12" x1="409.2" y1="439.5" x2="522.2" y2="326.5"/>
				<line class="st12" x1="411.5" y1="441.8" x2="524.5" y2="328.8"/>
				<line class="st12" x1="413.9" y1="444.1" x2="526.9" y2="331.1"/>
				<line class="st12" x1="416.2" y1="446.5" x2="529.2" y2="333.5"/>
				<line class="st12" x1="418.5" y1="448.8" x2="531.5" y2="335.8"/>
				<line class="st12" x1="420.9" y1="451.1" x2="533.9" y2="338.1"/>
				<line class="st12" x1="423.2" y1="453.5" x2="536.2" y2="340.5"/>
				<line class="st12" x1="425.5" y1="455.8" x2="538.5" y2="342.8"/>
				<line class="st12" x1="427.9" y1="458.1" x2="540.9" y2="345.1"/>
				<line class="st12" x1="430.2" y1="460.5" x2="543.2" y2="347.5"/>
				<line class="st12" x1="432.5" y1="462.8" x2="545.5" y2="349.8"/>
				<line class="st12" x1="434.9" y1="465.1" x2="547.9" y2="352.1"/>
				<line class="st12" x1="437.2" y1="467.5" x2="550.2" y2="354.5"/>
				<line class="st12" x1="439.5" y1="469.8" x2="552.5" y2="356.8"/>
				<line class="st12" x1="441.9" y1="472.1" x2="554.9" y2="359.1"/>
				<line class="st12" x1="444.2" y1="474.5" x2="557.2" y2="361.5"/>
				<line class="st12" x1="446.5" y1="476.8" x2="559.5" y2="363.8"/>
				<line class="st12" x1="448.9" y1="479.1" x2="561.9" y2="366.1"/>
				<line class="st12" x1="451.2" y1="481.5" x2="564.2" y2="368.5"/>
				<line class="st12" x1="453.5" y1="483.8" x2="566.5" y2="370.8"/>
				<line class="st12" x1="455.9" y1="486.1" x2="568.9" y2="373.1"/>
				<line class="st12" x1="458.2" y1="488.5" x2="571.2" y2="375.5"/>
				<line class="st12" x1="460.5" y1="490.8" x2="573.5" y2="377.8"/>
				<line class="st12" x1="462.9" y1="493.1" x2="575.9" y2="380.1"/>
				<line class="st12" x1="465.2" y1="495.5" x2="578.2" y2="382.5"/>
				<line class="st12" x1="467.5" y1="497.8" x2="580.5" y2="384.8"/>
				<line class="st12" x1="469.9" y1="500.1" x2="582.9" y2="387.1"/>
				<line class="st12" x1="472.2" y1="502.5" x2="585.2" y2="389.5"/>
			</g>
		</g>
		<g style="clip-path:url(#SVGID_00000055701892476280984350000003090039062180290975_);">
			<g>
				<line class="st13" x1="306.4" y1="213.8" x2="334.7" y2="213.8"/>
				<g>
					<rect x="332.9" y="212.1" class="st10" width="3.3" height="3.3"/>
				</g>
			</g>
		</g>
		
			<circle style="clip-path:url(#SVGID_00000055701892476280984350000003090039062180290975_);fill:#8C9091;" cx="132.8" cy="139.4" r="10.7"/>
		
			<circle style="clip-path:url(#SVGID_00000055701892476280984350000003090039062180290975_);fill:#231815;" cx="132.8" cy="139.4" r="6.6"/>
		
			<circle style="clip-path:url(#SVGID_00000055701892476280984350000003090039062180290975_);fill:#8C9091;" cx="337.8" cy="276.9" r="10.7"/>
		
			<circle style="clip-path:url(#SVGID_00000055701892476280984350000003090039062180290975_);fill:#231815;" cx="337.8" cy="276.9" r="6.6"/>
		<polygon style="clip-path:url(#SVGID_00000055701892476280984350000003090039062180290975_);fill:#231815;" points="109.8,332.8 
			83.7,332.8 92,358.6 111,358.6 		"/>
		<g style="clip-path:url(#SVGID_00000055701892476280984350000003090039062180290975_);">
			<path class="st8" d="M90.5,337.3H93v0.3h-1c0,0.6,0.6,1.1,1.1,1.2l-0.2,0.3c-0.4-0.1-0.9-0.5-1.1-1c-0.2,0.4-0.6,0.9-1.2,1.1
				l-0.2-0.3c0.6-0.2,1.2-0.8,1.2-1.4h-1.1V337.3z M92.6,341.2c-1.1,0-1.6-0.3-1.6-0.9c0-0.5,0.6-0.9,1.6-0.9s1.6,0.3,1.6,0.9
				C94.3,340.8,93.7,341.2,92.6,341.2z M91.1,336.5h1.3v0.4h-1.3V336.5z M92.6,339.8c-0.8,0-1.2,0.2-1.2,0.5c0,0.3,0.5,0.5,1.2,0.5
				c0.8,0,1.2-0.2,1.2-0.5C93.8,340,93.4,339.8,92.6,339.8z M94.2,339.4h-0.4v-1.1h-1v-0.3h1v-1.5h0.4V339.4z"/>
			<path class="st8" d="M95.8,338.4c0.7,0,1.4-0.1,1.8-0.2l0,0.3c-0.5,0.1-1.3,0.2-2.1,0.2h-0.4v-2h2.1v0.3h-1.7v1.3H95.8z
				 M95.7,341.1v-1.7h3v1.7H95.7z M98.2,339.7h-2.2v1h2.2V339.7z M98.6,337.9v1.2h-0.4v-2.7h0.4v1.2h0.7v0.3H98.6z"/>
			<path class="st8" d="M99.7,337.6v-0.3h2.7v0.3H99.7z M101,339.5c-0.6,0-1.1-0.3-1.1-0.8c0-0.5,0.5-0.8,1.1-0.8
				c0.6,0,1.1,0.3,1.1,0.8C102.2,339.2,101.7,339.5,101,339.5z M101,338.2c-0.4,0-0.7,0.2-0.7,0.5s0.3,0.5,0.7,0.5s0.7-0.2,0.7-0.5
				S101.4,338.2,101,338.2z M100.3,336.9v-0.4h1.4v0.4H100.3z M100.4,341v-1.2h0.4v0.9h2.8v0.3H100.4z M102.3,337.8h0.8v-1.4h0.4
				v3.6h-0.4v-0.9h-0.8v-0.3h0.8v-0.6h-0.8V337.8z"/>
			<path class="st8" d="M105,339.6c0.5,0,1.2,0,1.6-0.1l0,0.3c-0.5,0.1-1.2,0.1-1.9,0.1h-0.3V337h1.8v0.3h-1.4v2.2H105z
				 M107.9,341.2v-2.5h-0.6v2.3h-0.4v-4.4h0.4v1.8h0.6v-1.9h0.4v4.7H107.9z"/>
			<path class="st8" d="M109.1,340.6l1-1c0.6-0.6,1-1,1-1.6c0-0.5-0.3-0.8-0.8-0.8c-0.3,0-0.7,0.2-0.9,0.3l-0.1-0.4
				c0.3-0.2,0.7-0.4,1.1-0.4c0.8,0,1.3,0.5,1.3,1.2c0,0.7-0.4,1.2-1.1,1.9l-0.6,0.6h1.8v0.4h-2.5V340.6z"/>
			<path class="st8" d="M114.7,340.2c-0.5-0.2-1-0.8-1.2-1.3c-0.1,0.5-0.7,1.1-1.2,1.4L112,340c0.6-0.3,1.2-1,1.2-1.9v-0.2h-1.1
				v-0.3h2.6v0.3h-1.1v0.2c0,0.9,0.7,1.5,1.2,1.8L114.7,340.2z M112.8,337.1v-0.4h1.4v0.4H112.8z M115.8,338.7v2.4h-0.4v-4.7h0.4v2
				h0.8v0.4H115.8z"/>
			<path class="st8" d="M118,336.8c0.8,0,1.2,0.7,1.2,1.7s-0.4,1.7-1.2,1.7s-1.2-0.7-1.2-1.7C116.8,337.4,117.3,336.8,118,336.8z
				 M118,337.1c-0.5,0-0.8,0.5-0.8,1.3c0,0.8,0.3,1.3,0.8,1.3c0.5,0,0.8-0.5,0.8-1.3C118.9,337.7,118.5,337.1,118,337.1z
				 M120.4,338.7v2.5H120v-4.7h0.4v1.9h0.8v0.3H120.4z"/>
			<path class="st8" d="M122.9,339.9c-0.5,0-1.1,0-1.5,0l-0.1-0.4c0.2,0,0.5,0,0.7,0l-0.2-2l0.4,0l0.1,2c0.2,0,0.4,0,0.5,0
				c0.1,0,0.1,0,0.2,0l0.1-2l0.4,0l-0.2,1.9c0.3,0,0.6,0,0.8-0.1l0,0.3C124,339.9,123.5,339.9,122.9,339.9z M121.5,337.3v-0.3h2.6
				v0.3H121.5z M125.1,338.3h0.8v0.3h-0.8v2.5h-0.4v-4.7h0.4V338.3z"/>
			<path class="st8" d="M126.1,340.6v-0.3h4.3v0.3H126.1z M127,338.2v0.7h2.8v0.3h-3.3v-2.5h3.2v0.3H127v0.7h2.7v0.3H127z"/>
		</g>
		<g style="clip-path:url(#SVGID_00000055701892476280984350000003090039062180290975_);">
			<path class="st8" d="M56.5,347.1c-0.1,0.4-0.3,0.7-0.6,1c-0.3,0.2-0.7,0.3-1.3,0.3c-0.4,0-0.7-0.1-1-0.2
				c-0.3-0.2-0.5-0.4-0.7-0.7c-0.2-0.3-0.2-0.6-0.2-1c0-0.4,0.1-0.7,0.2-1c0.2-0.3,0.4-0.5,0.7-0.7s0.6-0.2,1-0.2
				c1,0,1.6,0.4,1.8,1.2l-0.6,0.1c-0.1-0.3-0.2-0.5-0.4-0.6c-0.2-0.1-0.4-0.2-0.7-0.2c-0.4,0-0.7,0.1-1,0.4c-0.2,0.2-0.3,0.6-0.3,1
				c0,0.4,0.1,0.8,0.4,1c0.2,0.2,0.6,0.4,1,0.4c0.3,0,0.6-0.1,0.8-0.2c0.2-0.1,0.3-0.3,0.4-0.6H56.5z"/>
			<path class="st8" d="M60.8,348.3v-1.6h-2.2v1.6H58v-3.6h0.6v1.5h2.2v-1.5h0.6v3.6H60.8z"/>
			<path class="st8" d="M65.9,344.7h0.6v2.1c0,0.5-0.1,0.9-0.4,1.2c-0.3,0.3-0.7,0.4-1.3,0.4s-1-0.1-1.3-0.4
				c-0.3-0.3-0.4-0.7-0.4-1.2v-2.1h0.6v2.2c0,0.3,0.1,0.6,0.3,0.8c0.2,0.2,0.4,0.2,0.8,0.2s0.6-0.1,0.8-0.2c0.2-0.2,0.3-0.4,0.3-0.8
				V344.7z"/>
			<path class="st8" d="M71.1,348.3l-2.3-2.7v2.7h-0.6v-3.6h0.6l2.3,2.7v-2.7h0.6v3.6H71.1z"/>
			<path class="st8" d="M76.4,346.9h-1.1v-0.5H77v1.5c-0.2,0.2-0.5,0.3-0.8,0.4c-0.3,0.1-0.6,0.1-0.9,0.1c-0.4,0-0.8-0.1-1.1-0.2
				s-0.6-0.4-0.7-0.6c-0.2-0.3-0.3-0.6-0.3-1c0-0.4,0.1-0.7,0.2-1c0.2-0.3,0.4-0.5,0.7-0.7c0.3-0.2,0.7-0.2,1.1-0.2
				c0.4,0,0.8,0.1,1.1,0.3c0.3,0.2,0.5,0.5,0.6,0.8l-0.6,0.1c-0.1-0.2-0.2-0.4-0.4-0.5c-0.2-0.1-0.4-0.2-0.7-0.2
				c-0.4,0-0.8,0.1-1,0.4c-0.2,0.2-0.4,0.6-0.4,1c0,0.4,0.1,0.8,0.4,1s0.6,0.4,1.1,0.4c0.5,0,0.8-0.1,1.1-0.2V346.9z"/>
			<path class="st8" d="M78.5,348.3v-3.6h1.6c0.7,0,1.2,0.2,1.5,0.5c0.4,0.3,0.5,0.8,0.5,1.3c0,0.6-0.2,1-0.6,1.3
				c-0.4,0.3-0.9,0.5-1.6,0.5H78.5z M80,347.7c0.5,0,0.9-0.1,1.1-0.3c0.3-0.2,0.4-0.5,0.4-0.9c0-0.8-0.5-1.3-1.4-1.3h-0.9v2.5H80z"
				/>
			<path class="st8" d="M86.5,348.3l-0.4-0.9h-1.9l-0.4,0.9H83l1.7-3.6h0.7l1.7,3.6H86.5z M85.1,345.3l-0.7,1.6h1.4L85.1,345.3z"/>
			<path class="st8" d="M92.2,348.3v-2.7l-1.3,2.7h-0.5l-1.3-2.7v2.7h-0.6v-3.6h0.8l1.4,2.9l1.4-2.9h0.7v3.6H92.2z"/>
			<path class="st8" d="M99.5,348.3v-1.6h-2.2v1.6h-0.6v-3.6h0.6v1.5h2.2v-1.5h0.6v3.6H99.5z"/>
			<path class="st8" d="M102.8,348.3v-1.5l-1.5-2.1h0.7l1.1,1.6l1.1-1.6h0.7l-1.5,2.1v1.5H102.8z"/>
			<path class="st8" d="M109.1,344.7h0.6v2.1c0,0.5-0.1,0.9-0.4,1.2c-0.3,0.3-0.7,0.4-1.3,0.4s-1-0.1-1.3-0.4
				c-0.3-0.3-0.4-0.7-0.4-1.2v-2.1h0.6v2.2c0,0.3,0.1,0.6,0.3,0.8c0.2,0.2,0.4,0.2,0.8,0.2s0.6-0.1,0.8-0.2c0.2-0.2,0.3-0.4,0.3-0.8
				V344.7z"/>
			<path class="st8" d="M114.3,348.3l-2.3-2.7v2.7h-0.6v-3.6h0.6l2.3,2.7v-2.7h0.6v3.6H114.3z"/>
			<path class="st8" d="M116.6,348.3v-3.6h1.6c0.7,0,1.2,0.2,1.5,0.5c0.4,0.3,0.5,0.8,0.5,1.3c0,0.6-0.2,1-0.6,1.3
				c-0.4,0.3-0.9,0.5-1.6,0.5H116.6z M118.1,347.7c0.5,0,0.9-0.1,1.1-0.3c0.3-0.2,0.4-0.5,0.4-0.9c0-0.8-0.5-1.3-1.4-1.3h-0.9v2.5
				H118.1z"/>
			<path class="st8" d="M124.5,348.3l-0.4-0.9h-1.9l-0.4,0.9h-0.7l1.7-3.6h0.7l1.7,3.6H124.5z M123.1,345.3l-0.7,1.6h1.4
				L123.1,345.3z"/>
			<path class="st8" d="M126.5,348.3v-3.6h2.9v0.5h-2.3v0.9h2.2v0.5h-2.2v1h2.4l-0.1,0.5H126.5z"/>
			<path class="st8" d="M100,354.4v-0.5c0.5-0.4,0.9-0.7,1.2-0.9c0.3-0.2,0.5-0.4,0.6-0.5c0.1-0.1,0.2-0.2,0.3-0.3s0.1-0.2,0.1-0.3
				c0-0.2-0.1-0.3-0.2-0.4c-0.1-0.1-0.3-0.2-0.6-0.2c-0.2,0-0.4,0-0.5,0.1c-0.1,0.1-0.2,0.2-0.3,0.4l-0.6-0.1
				c0.1-0.3,0.2-0.6,0.5-0.8c0.2-0.2,0.6-0.3,1-0.3c0.4,0,0.8,0.1,1,0.3s0.4,0.4,0.4,0.8c0,0.2,0,0.3-0.1,0.5s-0.2,0.3-0.3,0.4
				c-0.1,0.1-0.4,0.3-0.6,0.5c-0.4,0.3-0.6,0.5-0.9,0.6h2l-0.1,0.5H100z"/>
			<path class="st8" d="M107.3,354.4l-2.3-2.7v2.7h-0.6v-3.6h0.6l2.3,2.7v-2.7h0.6v3.6H107.3z"/>
			<path class="st8" d="M109.6,354.4v-3.6h1.6c0.7,0,1.2,0.2,1.5,0.5c0.4,0.3,0.5,0.8,0.5,1.3c0,0.6-0.2,1-0.6,1.3
				c-0.4,0.3-0.9,0.5-1.6,0.5H109.6z M111.1,353.8c0.5,0,0.9-0.1,1.1-0.3c0.3-0.2,0.4-0.5,0.4-0.9c0-0.8-0.5-1.3-1.4-1.3h-0.9v2.5
				H111.1z"/>
			<path class="st8" d="M119.9,354.4l-0.4-0.9h-1.9l-0.4,0.9h-0.7l1.7-3.6h0.7l1.7,3.6H119.9z M118.6,351.4l-0.7,1.6h1.4
				L118.6,351.4z"/>
			<path class="st8" d="M121.9,354.4v-3.6h1.7c0.5,0,0.8,0.1,1.1,0.3s0.4,0.5,0.4,0.9c0,0.4-0.1,0.7-0.4,0.9
				c-0.2,0.2-0.6,0.3-1.1,0.3h-1v1.3H121.9z M123.6,352.5c0.3,0,0.5-0.1,0.7-0.2s0.2-0.3,0.2-0.5c0-0.2-0.1-0.4-0.2-0.5
				s-0.4-0.1-0.6-0.1h-1.1v1.3H123.6z"/>
			<path class="st8" d="M127.6,354.4v-3.1h-1.5v-0.5h3.6v0.5h-1.5v3.1H127.6z"/>
			<path class="st8" d="M130.6,354.4v-0.7h0.6v0.7H130.6z"/>
		</g>
		
			<line style="clip-path:url(#SVGID_00000055701892476280984350000003090039062180290975_);fill:none;stroke:#8C9091;stroke-width:10;stroke-miterlimit:10;" x1="546" y1="140.7" x2="602.5" y2="109.6"/>
		
			<circle style="clip-path:url(#SVGID_00000055701892476280984350000003090039062180290975_);fill:#8C9091;" cx="546" cy="140.7" r="10.7"/>
		
			<circle style="clip-path:url(#SVGID_00000055701892476280984350000003090039062180290975_);fill:#231815;" cx="546" cy="140.7" r="6.6"/>
	</g>
	<g style="clip-path:url(#SVGID_00000073682697061718591120000016538979877272371620_);">
		<path class="st8" d="M270.4,157.2c-0.4-0.1-0.8-0.4-1-0.8c-0.2,0.4-0.6,0.8-1.1,1l-0.3-0.4c0.5-0.2,1-0.6,1.1-1.2h-0.9v-0.4h2.4
			v0.4h-0.9c0.1,0.5,0.5,0.9,1,1L270.4,157.2z M270.3,159.1c-1,0-1.5-0.3-1.5-0.9c0-0.5,0.6-0.9,1.5-0.9c1,0,1.6,0.3,1.6,0.9
			C271.8,158.7,271.3,159.1,270.3,159.1z M268.8,155v-0.4h1.3v0.4H268.8z M270.3,157.7c-0.6,0-1,0.2-1,0.5c0,0.3,0.4,0.4,1,0.4
			c0.6,0,1-0.2,1-0.4C271.3,157.9,270.9,157.7,270.3,157.7z M271.8,157.3h-0.5v-0.9h-0.7V156h0.7v-1.4h0.5V157.3z"/>
		<path class="st8" d="M275.1,156.7c-0.5,0.1-1.2,0.1-2,0.2h-0.5v-2h2v0.4h-1.5v1.2c0.7,0,1.4,0,1.8-0.1L275.1,156.7z M273.1,159
			v-1.7h2.9v1.7H273.1z M275.5,157.7h-1.9v0.9h1.9V157.7z M276,156v1h-0.5v-2.5h0.5v1.1h0.7v0.4H276z"/>
		<path class="st8" d="M279.2,156.2v0.5h1.8v0.4h-4.1v-0.4h1.8v-0.5h-1.2v-1.6h3v0.4h-2.5v0.7h2.5v0.4H279.2z M278.9,159.1
			c-1,0-1.6-0.3-1.6-0.8c0-0.5,0.6-0.8,1.6-0.8c1,0,1.6,0.3,1.6,0.8C280.5,158.7,279.9,159.1,278.9,159.1z M278.9,157.8
			c-0.6,0-1,0.2-1,0.4s0.4,0.4,1,0.4c0.6,0,1-0.1,1-0.4S279.6,157.8,278.9,157.8z"/>
		<path class="st8" d="M282.8,156.9v-2h2.1v2H282.8z M284.8,159.1c-1,0-1.5-0.4-1.5-0.9c0-0.6,0.6-0.9,1.5-0.9c1,0,1.6,0.4,1.6,0.9
			C286.4,158.7,285.8,159.1,284.8,159.1z M284.4,155.3h-1v1.2h1V155.3z M284.8,157.7c-0.6,0-1,0.2-1,0.5c0,0.3,0.4,0.5,1,0.5
			c0.6,0,1-0.2,1-0.5C285.9,157.9,285.5,157.7,284.8,157.7z M285.1,155.6v-0.4h0.7v-0.7h0.5v2.7h-0.5v-0.6h-0.7v-0.4h0.7v-0.5H285.1
			z"/>
		<path class="st8" d="M287.6,159v-1.5h1.3v-0.4H287v-0.4h4.1v0.4h-1.8v0.4h1.3v1.5H287.6z M287.4,155v-0.4h3.3v0.4H287.4z
			 M287.4,156.3v-0.4h0.7l-0.1-0.7l0.5,0l0.1,0.7h0.9l0.1-0.7l0.5,0.1l-0.1,0.7h0.7v0.4H287.4z M290.1,157.9h-2v0.7h2V157.9z"/>
		<path class="st8" d="M291.7,158.2l-0.3-0.4c1-0.5,1.7-1.4,1.8-2.4h-1.5V155h2.1C293.7,156.4,293,157.5,291.7,158.2z M294.7,159.1
			v-2.3h-0.9v-0.4h0.9v-1.8h0.5v4.5H294.7z"/>
		<path class="st8" d="M298.7,157.9c-0.5,0.1-1.2,0.1-2,0.1l-0.6,0v-1.8h1.5v-0.8h-1.6v-0.4h2.1v1.7h-1.5v1c0.5,0,1.4,0,2-0.1
			L298.7,157.9z M299.1,159.1v-4.5h0.5v4.5H299.1z"/>
		<path class="st15" d="M272,165.6c-0.1,0.4-0.3,0.7-0.6,1c-0.3,0.2-0.7,0.3-1.2,0.3c-0.4,0-0.7-0.1-1-0.2s-0.5-0.4-0.7-0.6
			c-0.2-0.3-0.2-0.6-0.2-1c0-0.4,0.1-0.7,0.2-1s0.4-0.5,0.7-0.7c0.3-0.2,0.6-0.2,1-0.2c1,0,1.5,0.4,1.8,1.2l-0.6,0.1
			c-0.1-0.3-0.2-0.5-0.4-0.6s-0.4-0.2-0.7-0.2c-0.4,0-0.7,0.1-0.9,0.4c-0.2,0.2-0.3,0.6-0.3,1c0,0.4,0.1,0.7,0.3,1
			c0.2,0.2,0.6,0.4,1,0.4c0.3,0,0.6-0.1,0.8-0.2c0.2-0.1,0.3-0.3,0.4-0.6H272z"/>
		<path class="st15" d="M275.9,166.8v-1.6h-2.2v1.6h-0.6v-3.6h0.6v1.4h2.2v-1.4h0.6v3.6H275.9z"/>
		<path class="st15" d="M278,166.8v-3.6h2.9v0.5h-2.3v0.9h2.2v0.5h-2.2v1h2.4l-0.1,0.5H278z"/>
		<path class="st15" d="M286.1,165c0,0.4-0.1,0.7-0.2,1c-0.2,0.3-0.4,0.5-0.7,0.7c-0.3,0.2-0.7,0.2-1.1,0.2c-0.4,0-0.8-0.1-1.1-0.2
			c-0.3-0.1-0.5-0.4-0.7-0.6c-0.2-0.3-0.3-0.6-0.3-1c0-0.4,0.1-0.7,0.2-1c0.2-0.3,0.4-0.5,0.7-0.7c0.3-0.2,0.7-0.2,1.1-0.2
			c0.4,0,0.8,0.1,1.1,0.2c0.3,0.1,0.5,0.4,0.7,0.6C286,164.3,286.1,164.6,286.1,165z M285.4,165c0-0.4-0.1-0.8-0.4-1
			c-0.2-0.2-0.6-0.4-1-0.4c-0.4,0-0.8,0.1-1,0.4c-0.2,0.2-0.4,0.6-0.4,1c0,0.4,0.1,0.8,0.4,1s0.6,0.4,1,0.4c0.4,0,0.8-0.1,1-0.4
			S285.4,165.5,285.4,165z"/>
		<path class="st15" d="M290.1,166.8l-2.2-2.7v2.7h-0.6v-3.6h0.6l2.2,2.7v-2.7h0.6v3.6H290.1z"/>
		<path class="st15" d="M295.1,165.4H294v-0.5h1.7v1.5c-0.2,0.2-0.5,0.3-0.8,0.4s-0.6,0.1-0.9,0.1c-0.4,0-0.8-0.1-1.1-0.2
			c-0.3-0.1-0.5-0.4-0.7-0.6c-0.2-0.3-0.3-0.6-0.3-1c0-0.4,0.1-0.7,0.2-1s0.4-0.5,0.7-0.7c0.3-0.2,0.7-0.2,1.1-0.2
			c0.4,0,0.8,0.1,1.1,0.3c0.3,0.2,0.5,0.4,0.6,0.8l-0.6,0.1c-0.1-0.2-0.2-0.4-0.4-0.5s-0.4-0.2-0.7-0.2c-0.4,0-0.7,0.1-1,0.4
			c-0.2,0.2-0.3,0.6-0.3,1c0,0.4,0.1,0.8,0.4,1s0.6,0.3,1,0.3c0.4,0,0.8-0.1,1.1-0.2V165.4z"/>
		<path class="st15" d="M297,166.8v-3.6h1.6c0.7,0,1.2,0.2,1.5,0.5s0.5,0.7,0.5,1.3c0,0.6-0.2,1-0.6,1.3c-0.4,0.3-0.9,0.5-1.6,0.5
			H297z M298.4,166.3c0.5,0,0.9-0.1,1.1-0.3c0.2-0.2,0.4-0.5,0.4-0.9c0-0.8-0.5-1.2-1.4-1.2h-0.9v2.5H298.4z"/>
		<path class="st15" d="M304.6,166.8l-0.4-0.9h-1.9l-0.4,0.9h-0.7l1.7-3.6h0.7l1.7,3.6H304.6z M303.2,163.8l-0.7,1.5h1.4
			L303.2,163.8z"/>
		<path class="st15" d="M309.9,166.8v-2.7l-1.3,2.7h-0.5l-1.3-2.7v2.7h-0.6v-3.6h0.8l1.4,2.9l1.4-2.9h0.7v3.6H309.9z"/>
		<path class="st15" d="M311.8,165.6v-0.5h1.9v0.5H311.8z"/>
		<path class="st15" d="M314.9,166.8v-3.6h1.5c0.7,0,1.2,0.2,1.5,0.5s0.5,0.7,0.5,1.3c0,0.6-0.2,1-0.6,1.3c-0.4,0.3-0.9,0.5-1.6,0.5
			H314.9z M316.3,166.3c0.5,0,0.9-0.1,1.1-0.3c0.2-0.2,0.4-0.5,0.4-0.9c0-0.8-0.5-1.2-1.4-1.2h-0.9v2.5H316.3z"/>
		<path class="st15" d="M323.6,165c0,0.4-0.1,0.7-0.2,1c-0.2,0.3-0.4,0.5-0.7,0.7c-0.3,0.2-0.7,0.2-1.1,0.2c-0.4,0-0.8-0.1-1.1-0.2
			c-0.3-0.1-0.5-0.4-0.7-0.6c-0.2-0.3-0.3-0.6-0.3-1c0-0.4,0.1-0.7,0.2-1c0.2-0.3,0.4-0.5,0.7-0.7c0.3-0.2,0.7-0.2,1.1-0.2
			c0.4,0,0.8,0.1,1.1,0.2c0.3,0.1,0.5,0.4,0.7,0.6C323.5,164.3,323.6,164.6,323.6,165z M322.9,165c0-0.4-0.1-0.8-0.4-1
			c-0.2-0.2-0.6-0.4-1-0.4c-0.4,0-0.8,0.1-1,0.4c-0.2,0.2-0.4,0.6-0.4,1c0,0.4,0.1,0.8,0.4,1c0.2,0.2,0.6,0.4,1,0.4s0.8-0.1,1-0.4
			C322.8,165.8,322.9,165.5,322.9,165z"/>
		<path class="st15" d="M327.6,166.8l-2.2-2.7v2.7h-0.6v-3.6h0.6l2.2,2.7v-2.7h0.6v3.6H327.6z"/>
		<path class="st15" d="M332.6,165.4h-1.1v-0.5h1.7v1.5c-0.2,0.2-0.5,0.3-0.8,0.4s-0.6,0.1-0.9,0.1c-0.4,0-0.8-0.1-1.1-0.2
			c-0.3-0.1-0.5-0.4-0.7-0.6c-0.2-0.3-0.3-0.6-0.3-1c0-0.4,0.1-0.7,0.2-1s0.4-0.5,0.7-0.7c0.3-0.2,0.7-0.2,1.1-0.2
			c0.4,0,0.8,0.1,1.1,0.3c0.3,0.2,0.5,0.4,0.6,0.8l-0.6,0.1c-0.1-0.2-0.2-0.4-0.4-0.5s-0.4-0.2-0.7-0.2c-0.4,0-0.7,0.1-1,0.4
			s-0.3,0.6-0.3,1c0,0.4,0.1,0.8,0.4,1c0.2,0.2,0.6,0.3,1,0.3c0.4,0,0.8-0.1,1.1-0.2V165.4z"/>
		<path class="st15" d="M268.4,172.9v-3.6h0.6v3h2.3l-0.1,0.5H268.4z"/>
		<path class="st15" d="M274.9,169.4h0.6v2.1c0,0.5-0.1,0.9-0.4,1.2c-0.3,0.3-0.7,0.4-1.3,0.4c-0.6,0-1-0.1-1.3-0.4
			c-0.3-0.3-0.4-0.6-0.4-1.2v-2.1h0.6v2.1c0,0.3,0.1,0.6,0.3,0.8c0.2,0.2,0.4,0.2,0.8,0.2s0.6-0.1,0.8-0.2c0.2-0.2,0.3-0.4,0.3-0.8
			V169.4z"/>
		<path class="st15" d="M279.5,172.9l-1.2-1.5l-1.2,1.5h-0.7l1.5-1.9l-1.4-1.7h0.8l1,1.3l1.1-1.3h0.7l-1.4,1.7l1.6,1.9H279.5z"/>
		<path class="st15" d="M283.9,169.4h0.6v2.1c0,0.5-0.1,0.9-0.4,1.2c-0.3,0.3-0.7,0.4-1.3,0.4c-0.6,0-1-0.1-1.3-0.4
			c-0.3-0.3-0.4-0.6-0.4-1.2v-2.1h0.6v2.1c0,0.3,0.1,0.6,0.3,0.8c0.2,0.2,0.4,0.2,0.8,0.2s0.6-0.1,0.8-0.2c0.2-0.2,0.3-0.4,0.3-0.8
			V169.4z"/>
		<path class="st15" d="M288.5,172.9l-0.8-1.4c0,0-0.1,0-0.1,0s-0.1,0-0.1,0h-1v1.4h-0.6v-3.6h1.7c1,0,1.4,0.4,1.4,1.1
			c0,0.5-0.2,0.8-0.7,1l0.9,1.5H288.5z M287.6,171c0.3,0,0.5,0,0.6-0.1c0.1-0.1,0.2-0.2,0.2-0.4c0-0.2-0.1-0.3-0.2-0.4
			c-0.1-0.1-0.3-0.1-0.6-0.1h-1.1v1.1H287.6z"/>
		<path class="st15" d="M291.2,172.9v-1.5l-1.5-2.1h0.7l1.1,1.6l1.1-1.6h0.7l-1.5,2.1v1.5H291.2z"/>
		<path class="st15" d="M298.8,170.3c-0.1-0.1-0.1-0.3-0.2-0.3c-0.1-0.1-0.2-0.1-0.3-0.2c-0.1,0-0.3-0.1-0.5-0.1
			c-0.3,0-0.6,0-0.7,0.1s-0.3,0.2-0.3,0.4c0,0.2,0.1,0.3,0.2,0.3c0.1,0.1,0.3,0.1,0.6,0.2l0.7,0.1c0.4,0.1,0.7,0.2,0.9,0.4
			c0.2,0.2,0.3,0.4,0.3,0.7c0,0.3-0.1,0.6-0.4,0.8s-0.7,0.3-1.2,0.3c-0.6,0-1-0.1-1.3-0.3c-0.3-0.2-0.5-0.5-0.5-0.9h0.6
			c0,0.2,0.2,0.4,0.3,0.5c0.2,0.1,0.5,0.2,0.8,0.2c0.3,0,0.6,0,0.7-0.1c0.2-0.1,0.3-0.2,0.3-0.4c0-0.1-0.1-0.3-0.2-0.3
			c-0.1-0.1-0.3-0.1-0.6-0.2l-0.6-0.1c-0.3,0-0.6-0.1-0.8-0.2c-0.2-0.1-0.3-0.2-0.4-0.3c-0.1-0.1-0.1-0.3-0.1-0.5
			c0-0.3,0.1-0.6,0.4-0.7c0.3-0.2,0.7-0.3,1.2-0.3c0.3,0,0.6,0,0.8,0.1c0.2,0.1,0.4,0.2,0.5,0.3c0.1,0.1,0.2,0.3,0.3,0.6
			L298.8,170.3z"/>
		<path class="st15" d="M301.7,172.9v-3h-1.4v-0.5h3.5v0.5h-1.4v3H301.7z"/>
		<path class="st15" d="M307.4,172.9l-0.8-1.4c0,0-0.1,0-0.1,0s-0.1,0-0.1,0h-1v1.4h-0.6v-3.6h1.7c1,0,1.4,0.4,1.4,1.1
			c0,0.5-0.2,0.8-0.7,1l0.9,1.5H307.4z M306.5,171c0.3,0,0.5,0,0.6-0.1c0.1-0.1,0.2-0.2,0.2-0.4c0-0.2-0.1-0.3-0.2-0.4
			c-0.1-0.1-0.3-0.1-0.6-0.1h-1.1v1.1H306.5z"/>
		<path class="st15" d="M309.2,172.9v-3.6h2.9v0.5h-2.3v0.9h2.2v0.5h-2.2v1h2.4l-0.1,0.5H309.2z"/>
		<path class="st15" d="M313.4,172.9v-3.6h2.9v0.5h-2.3v0.9h2.2v0.5h-2.2v1h2.4l-0.1,0.5H313.4z"/>
		<path class="st15" d="M318.7,172.9v-3h-1.4v-0.5h3.5v0.5h-1.4v3H318.7z"/>
	</g>
</g>
</svg>
